G04 #@! TF.GenerationSoftware,KiCad,Pcbnew,5.1.6-c6e7f7d~87~ubuntu18.04.1*
G04 #@! TF.CreationDate,2021-01-11T12:45:55+00:00*
G04 #@! TF.ProjectId,vary_resistance,76617279-5f72-4657-9369-7374616e6365,rev?*
G04 #@! TF.SameCoordinates,Original*
G04 #@! TF.FileFunction,Soldermask,Top*
G04 #@! TF.FilePolarity,Negative*
%FSLAX46Y46*%
G04 Gerber Fmt 4.6, Leading zero omitted, Abs format (unit mm)*
G04 Created by KiCad (PCBNEW 5.1.6-c6e7f7d~87~ubuntu18.04.1) date 2021-01-11 12:45:55*
%MOMM*%
%LPD*%
G01*
G04 APERTURE LIST*
%ADD10C,0.750000*%
%ADD11C,0.100000*%
G04 APERTURE END LIST*
D10*
X197000000Y-85000000D02*
X184540000Y-85000000D01*
X183914600Y-65168713D02*
X183991998Y-65258438D01*
X183991998Y-65258438D02*
X184064900Y-65351854D01*
X184064900Y-65351854D02*
X184133131Y-65448734D01*
X184133131Y-65448734D02*
X184196526Y-65548846D01*
X184196526Y-65548846D02*
X184254932Y-65651947D01*
X184254932Y-65651947D02*
X184308209Y-65757790D01*
X184308209Y-65757790D02*
X184356228Y-65866120D01*
X184356228Y-65866120D02*
X184398874Y-65976675D01*
X184398874Y-65976675D02*
X184436044Y-66089190D01*
X184436044Y-66089190D02*
X184467648Y-66203393D01*
X184467648Y-66203393D02*
X184493611Y-66319010D01*
X184493611Y-66319010D02*
X184513869Y-66435761D01*
X184513869Y-66435761D02*
X184528374Y-66553365D01*
X184528374Y-66553365D02*
X184537091Y-66671540D01*
X184537091Y-66671540D02*
X184540000Y-66790000D01*
X184540000Y-66790000D02*
X184540000Y-75000000D01*
X180000000Y-60250000D02*
X180000000Y-52500000D01*
X180000000Y-60250000D02*
X180002908Y-60368459D01*
X180002908Y-60368459D02*
X180011625Y-60486634D01*
X180011625Y-60486634D02*
X180026130Y-60604238D01*
X180026130Y-60604238D02*
X180046388Y-60720989D01*
X180046388Y-60720989D02*
X180072350Y-60836605D01*
X180072350Y-60836605D02*
X180103955Y-60950808D01*
X180103955Y-60950808D02*
X180141125Y-61063323D01*
X180141125Y-61063323D02*
X180183770Y-61173878D01*
X180183770Y-61173878D02*
X180231790Y-61282208D01*
X180231790Y-61282208D02*
X180285067Y-61388051D01*
X180285067Y-61388051D02*
X180343473Y-61491153D01*
X180343473Y-61491153D02*
X180406868Y-61591264D01*
X180406868Y-61591264D02*
X180475098Y-61688144D01*
X180475098Y-61688144D02*
X180548000Y-61781559D01*
X180548000Y-61781559D02*
X180625398Y-61871285D01*
X180625398Y-61871285D02*
X180707106Y-61957106D01*
X180707106Y-61957106D02*
X183832893Y-65082893D01*
X183832893Y-65082893D02*
X183914600Y-65168713D01*
D11*
G36*
X199500000Y-94500000D02*
G01*
X198500000Y-94500000D01*
X198500000Y-90250000D01*
X199500000Y-90250000D01*
X199500000Y-94500000D01*
G37*
X199500000Y-94500000D02*
X198500000Y-94500000D01*
X198500000Y-90250000D01*
X199500000Y-90250000D01*
X199500000Y-94500000D01*
G36*
X190000000Y-101500000D02*
G01*
X170500000Y-101500000D01*
X170500000Y-100500000D01*
X190000000Y-100500000D01*
X190000000Y-101500000D01*
G37*
X190000000Y-101500000D02*
X170500000Y-101500000D01*
X170500000Y-100500000D01*
X190000000Y-100500000D01*
X190000000Y-101500000D01*
G36*
X163000000Y-96500000D02*
G01*
X162000000Y-96500000D01*
X162000000Y-84000000D01*
X163000000Y-84000000D01*
X163000000Y-96500000D01*
G37*
X163000000Y-96500000D02*
X162000000Y-96500000D01*
X162000000Y-84000000D01*
X163000000Y-84000000D01*
X163000000Y-96500000D01*
G36*
X163500000Y-72000000D02*
G01*
X162500000Y-72000000D01*
X162500000Y-58000000D01*
X163500000Y-58000000D01*
X163500000Y-72000000D01*
G37*
X163500000Y-72000000D02*
X162500000Y-72000000D01*
X162500000Y-58000000D01*
X163500000Y-58000000D01*
X163500000Y-72000000D01*
G36*
X194000000Y-52000000D02*
G01*
X193000000Y-52500000D01*
X192000000Y-51500000D01*
X185500000Y-51500000D01*
X185500000Y-50500000D01*
X192500000Y-50500000D01*
X194000000Y-52000000D01*
G37*
X194000000Y-52000000D02*
X193000000Y-52500000D01*
X192000000Y-51500000D01*
X185500000Y-51500000D01*
X185500000Y-50500000D01*
X192500000Y-50500000D01*
X194000000Y-52000000D01*
G36*
X174750000Y-51500000D02*
G01*
X166500000Y-51500000D01*
X166500000Y-50500000D01*
X174750000Y-50500000D01*
X174750000Y-51500000D01*
G37*
X174750000Y-51500000D02*
X166500000Y-51500000D01*
X166500000Y-50500000D01*
X174750000Y-50500000D01*
X174750000Y-51500000D01*
G36*
X199500000Y-57500000D02*
G01*
X199500000Y-60500000D01*
X198500000Y-60500000D01*
X198500000Y-58000000D01*
X198000000Y-57500000D01*
X198000000Y-56000000D01*
X199500000Y-57500000D01*
G37*
X199500000Y-57500000D02*
X199500000Y-60500000D01*
X198500000Y-60500000D01*
X198500000Y-58000000D01*
X198000000Y-57500000D01*
X198000000Y-56000000D01*
X199500000Y-57500000D01*
G36*
X199500000Y-57500000D02*
G01*
X199500000Y-80000000D01*
X198500000Y-80000000D01*
X198500000Y-58000000D01*
X197750000Y-57250000D01*
X198250000Y-56250000D01*
X199500000Y-57500000D01*
G37*
X199500000Y-57500000D02*
X199500000Y-80000000D01*
X198500000Y-80000000D01*
X198500000Y-58000000D01*
X197750000Y-57250000D01*
X198250000Y-56250000D01*
X199500000Y-57500000D01*
G36*
X194548156Y-92672794D02*
G01*
X195269140Y-92816206D01*
X196060972Y-93144193D01*
X196773601Y-93620357D01*
X197379643Y-94226399D01*
X197855807Y-94939028D01*
X198183794Y-95730860D01*
X198351000Y-96571464D01*
X198351000Y-97428536D01*
X198183794Y-98269140D01*
X197855807Y-99060972D01*
X197379643Y-99773601D01*
X196773601Y-100379643D01*
X196060972Y-100855807D01*
X195269140Y-101183794D01*
X194548156Y-101327206D01*
X194428537Y-101351000D01*
X193571463Y-101351000D01*
X193451844Y-101327206D01*
X192730860Y-101183794D01*
X191939028Y-100855807D01*
X191226399Y-100379643D01*
X190620357Y-99773601D01*
X190144193Y-99060972D01*
X189816206Y-98269140D01*
X189649000Y-97428536D01*
X189649000Y-96571464D01*
X189816206Y-95730860D01*
X190144193Y-94939028D01*
X190620357Y-94226399D01*
X191226399Y-93620357D01*
X191939028Y-93144193D01*
X192730860Y-92816206D01*
X193451844Y-92672794D01*
X193571463Y-92649000D01*
X194428537Y-92649000D01*
X194548156Y-92672794D01*
G37*
G36*
X167548156Y-92672794D02*
G01*
X168269140Y-92816206D01*
X169060972Y-93144193D01*
X169773601Y-93620357D01*
X170379643Y-94226399D01*
X170855807Y-94939028D01*
X171183794Y-95730860D01*
X171351000Y-96571464D01*
X171351000Y-97428536D01*
X171183794Y-98269140D01*
X170855807Y-99060972D01*
X170379643Y-99773601D01*
X169773601Y-100379643D01*
X169060972Y-100855807D01*
X168269140Y-101183794D01*
X167548156Y-101327206D01*
X167428537Y-101351000D01*
X166571463Y-101351000D01*
X166451844Y-101327206D01*
X165730860Y-101183794D01*
X164939028Y-100855807D01*
X164226399Y-100379643D01*
X163620357Y-99773601D01*
X163144193Y-99060972D01*
X162816206Y-98269140D01*
X162649000Y-97428536D01*
X162649000Y-96571464D01*
X162816206Y-95730860D01*
X163144193Y-94939028D01*
X163620357Y-94226399D01*
X164226399Y-93620357D01*
X164939028Y-93144193D01*
X165730860Y-92816206D01*
X166451844Y-92672794D01*
X166571463Y-92649000D01*
X167428537Y-92649000D01*
X167548156Y-92672794D01*
G37*
G36*
X190838674Y-89153465D02*
G01*
X190876367Y-89164899D01*
X190911103Y-89183466D01*
X190941548Y-89208452D01*
X190966534Y-89238897D01*
X190985101Y-89273633D01*
X190996535Y-89311326D01*
X191001000Y-89356661D01*
X191001000Y-90193339D01*
X190996535Y-90238674D01*
X190985101Y-90276367D01*
X190966534Y-90311103D01*
X190941548Y-90341548D01*
X190911103Y-90366534D01*
X190876367Y-90385101D01*
X190838674Y-90396535D01*
X190793339Y-90401000D01*
X189706661Y-90401000D01*
X189661326Y-90396535D01*
X189623633Y-90385101D01*
X189588897Y-90366534D01*
X189558452Y-90341548D01*
X189533466Y-90311103D01*
X189514899Y-90276367D01*
X189503465Y-90238674D01*
X189499000Y-90193339D01*
X189499000Y-89356661D01*
X189503465Y-89311326D01*
X189514899Y-89273633D01*
X189533466Y-89238897D01*
X189558452Y-89208452D01*
X189588897Y-89183466D01*
X189623633Y-89164899D01*
X189661326Y-89153465D01*
X189706661Y-89149000D01*
X190793339Y-89149000D01*
X190838674Y-89153465D01*
G37*
G36*
X199591000Y-90051000D02*
G01*
X194409000Y-90051000D01*
X194409000Y-88449000D01*
X199591000Y-88449000D01*
X199591000Y-90051000D01*
G37*
G36*
X190838674Y-87103465D02*
G01*
X190876367Y-87114899D01*
X190911103Y-87133466D01*
X190941548Y-87158452D01*
X190966534Y-87188897D01*
X190985101Y-87223633D01*
X190996535Y-87261326D01*
X191001000Y-87306661D01*
X191001000Y-88143339D01*
X190996535Y-88188674D01*
X190985101Y-88226367D01*
X190966534Y-88261103D01*
X190941548Y-88291548D01*
X190911103Y-88316534D01*
X190876367Y-88335101D01*
X190838674Y-88346535D01*
X190793339Y-88351000D01*
X189706661Y-88351000D01*
X189661326Y-88346535D01*
X189623633Y-88335101D01*
X189588897Y-88316534D01*
X189558452Y-88291548D01*
X189533466Y-88261103D01*
X189514899Y-88226367D01*
X189503465Y-88188674D01*
X189499000Y-88143339D01*
X189499000Y-87306661D01*
X189503465Y-87261326D01*
X189514899Y-87223633D01*
X189533466Y-87188897D01*
X189558452Y-87158452D01*
X189588897Y-87133466D01*
X189623633Y-87114899D01*
X189661326Y-87103465D01*
X189706661Y-87099000D01*
X190793339Y-87099000D01*
X190838674Y-87103465D01*
G37*
G36*
X184777142Y-84218242D02*
G01*
X184925101Y-84279529D01*
X185058255Y-84368499D01*
X185171501Y-84481745D01*
X185260471Y-84614899D01*
X185321758Y-84762858D01*
X185353000Y-84919925D01*
X185353000Y-85080075D01*
X185321758Y-85237142D01*
X185260471Y-85385101D01*
X185171501Y-85518255D01*
X185058255Y-85631501D01*
X184925101Y-85720471D01*
X184777142Y-85781758D01*
X184620075Y-85813000D01*
X184459925Y-85813000D01*
X184302858Y-85781758D01*
X184154899Y-85720471D01*
X184021745Y-85631501D01*
X183908499Y-85518255D01*
X183819529Y-85385101D01*
X183758242Y-85237142D01*
X183727000Y-85080075D01*
X183727000Y-84919925D01*
X183758242Y-84762858D01*
X183819529Y-84614899D01*
X183908499Y-84481745D01*
X184021745Y-84368499D01*
X184154899Y-84279529D01*
X184302858Y-84218242D01*
X184459925Y-84187000D01*
X184620075Y-84187000D01*
X184777142Y-84218242D01*
G37*
G36*
X182237142Y-84218242D02*
G01*
X182385101Y-84279529D01*
X182518255Y-84368499D01*
X182631501Y-84481745D01*
X182720471Y-84614899D01*
X182781758Y-84762858D01*
X182813000Y-84919925D01*
X182813000Y-85080075D01*
X182781758Y-85237142D01*
X182720471Y-85385101D01*
X182631501Y-85518255D01*
X182518255Y-85631501D01*
X182385101Y-85720471D01*
X182237142Y-85781758D01*
X182080075Y-85813000D01*
X181919925Y-85813000D01*
X181762858Y-85781758D01*
X181614899Y-85720471D01*
X181481745Y-85631501D01*
X181368499Y-85518255D01*
X181279529Y-85385101D01*
X181218242Y-85237142D01*
X181187000Y-85080075D01*
X181187000Y-84919925D01*
X181218242Y-84762858D01*
X181279529Y-84614899D01*
X181368499Y-84481745D01*
X181481745Y-84368499D01*
X181614899Y-84279529D01*
X181762858Y-84218242D01*
X181919925Y-84187000D01*
X182080075Y-84187000D01*
X182237142Y-84218242D01*
G37*
G36*
X179697142Y-84218242D02*
G01*
X179845101Y-84279529D01*
X179978255Y-84368499D01*
X180091501Y-84481745D01*
X180180471Y-84614899D01*
X180241758Y-84762858D01*
X180273000Y-84919925D01*
X180273000Y-85080075D01*
X180241758Y-85237142D01*
X180180471Y-85385101D01*
X180091501Y-85518255D01*
X179978255Y-85631501D01*
X179845101Y-85720471D01*
X179697142Y-85781758D01*
X179540075Y-85813000D01*
X179379925Y-85813000D01*
X179222858Y-85781758D01*
X179074899Y-85720471D01*
X178941745Y-85631501D01*
X178828499Y-85518255D01*
X178739529Y-85385101D01*
X178678242Y-85237142D01*
X178647000Y-85080075D01*
X178647000Y-84919925D01*
X178678242Y-84762858D01*
X178739529Y-84614899D01*
X178828499Y-84481745D01*
X178941745Y-84368499D01*
X179074899Y-84279529D01*
X179222858Y-84218242D01*
X179379925Y-84187000D01*
X179540075Y-84187000D01*
X179697142Y-84218242D01*
G37*
G36*
X199591000Y-85801000D02*
G01*
X194409000Y-85801000D01*
X194409000Y-84199000D01*
X199591000Y-84199000D01*
X199591000Y-85801000D01*
G37*
G36*
X191301000Y-85701000D02*
G01*
X189199000Y-85701000D01*
X189199000Y-84299000D01*
X191301000Y-84299000D01*
X191301000Y-85701000D01*
G37*
G36*
X174051000Y-84301000D02*
G01*
X169949000Y-84301000D01*
X169949000Y-80199000D01*
X174051000Y-80199000D01*
X174051000Y-84301000D01*
G37*
G36*
X166591000Y-83551000D02*
G01*
X161409000Y-83551000D01*
X161409000Y-81949000D01*
X166591000Y-81949000D01*
X166591000Y-83551000D01*
G37*
G36*
X199591000Y-81551000D02*
G01*
X194409000Y-81551000D01*
X194409000Y-79949000D01*
X199591000Y-79949000D01*
X199591000Y-81551000D01*
G37*
G36*
X189801000Y-80201000D02*
G01*
X188399000Y-80201000D01*
X188399000Y-78799000D01*
X189801000Y-78799000D01*
X189801000Y-80201000D01*
G37*
G36*
X192101000Y-80201000D02*
G01*
X190699000Y-80201000D01*
X190699000Y-78799000D01*
X192101000Y-78799000D01*
X192101000Y-80201000D01*
G37*
G36*
X182364499Y-78678445D02*
G01*
X182401995Y-78689820D01*
X182436554Y-78708292D01*
X182466847Y-78733153D01*
X182491708Y-78763446D01*
X182510180Y-78798005D01*
X182521555Y-78835501D01*
X182526000Y-78880638D01*
X182526000Y-79619362D01*
X182521555Y-79664499D01*
X182510180Y-79701995D01*
X182491708Y-79736554D01*
X182466847Y-79766847D01*
X182436554Y-79791708D01*
X182401995Y-79810180D01*
X182364499Y-79821555D01*
X182319362Y-79826000D01*
X181680638Y-79826000D01*
X181635501Y-79821555D01*
X181598005Y-79810180D01*
X181563446Y-79791708D01*
X181533153Y-79766847D01*
X181508292Y-79736554D01*
X181489820Y-79701995D01*
X181478445Y-79664499D01*
X181474000Y-79619362D01*
X181474000Y-78880638D01*
X181478445Y-78835501D01*
X181489820Y-78798005D01*
X181508292Y-78763446D01*
X181533153Y-78733153D01*
X181563446Y-78708292D01*
X181598005Y-78689820D01*
X181635501Y-78678445D01*
X181680638Y-78674000D01*
X182319362Y-78674000D01*
X182364499Y-78678445D01*
G37*
G36*
X166591000Y-79301000D02*
G01*
X161409000Y-79301000D01*
X161409000Y-77699000D01*
X166591000Y-77699000D01*
X166591000Y-79301000D01*
G37*
G36*
X182364499Y-76928445D02*
G01*
X182401995Y-76939820D01*
X182436554Y-76958292D01*
X182466847Y-76983153D01*
X182491708Y-77013446D01*
X182510180Y-77048005D01*
X182521555Y-77085501D01*
X182526000Y-77130638D01*
X182526000Y-77869362D01*
X182521555Y-77914499D01*
X182510180Y-77951995D01*
X182491708Y-77986554D01*
X182466847Y-78016847D01*
X182436554Y-78041708D01*
X182401995Y-78060180D01*
X182364499Y-78071555D01*
X182319362Y-78076000D01*
X181680638Y-78076000D01*
X181635501Y-78071555D01*
X181598005Y-78060180D01*
X181563446Y-78041708D01*
X181533153Y-78016847D01*
X181508292Y-77986554D01*
X181489820Y-77951995D01*
X181478445Y-77914499D01*
X181474000Y-77869362D01*
X181474000Y-77130638D01*
X181478445Y-77085501D01*
X181489820Y-77048005D01*
X181508292Y-77013446D01*
X181533153Y-76983153D01*
X181563446Y-76958292D01*
X181598005Y-76939820D01*
X181635501Y-76928445D01*
X181680638Y-76924000D01*
X182319362Y-76924000D01*
X182364499Y-76928445D01*
G37*
G36*
X179914499Y-75978445D02*
G01*
X179951995Y-75989820D01*
X179986554Y-76008292D01*
X180016847Y-76033153D01*
X180041708Y-76063446D01*
X180060180Y-76098005D01*
X180071555Y-76135501D01*
X180076000Y-76180638D01*
X180076000Y-76819362D01*
X180071555Y-76864499D01*
X180060180Y-76901995D01*
X180041708Y-76936554D01*
X180016847Y-76966847D01*
X179986554Y-76991708D01*
X179951995Y-77010180D01*
X179914499Y-77021555D01*
X179869362Y-77026000D01*
X179130638Y-77026000D01*
X179085501Y-77021555D01*
X179048005Y-77010180D01*
X179013446Y-76991708D01*
X178983153Y-76966847D01*
X178958292Y-76936554D01*
X178939820Y-76901995D01*
X178928445Y-76864499D01*
X178924000Y-76819362D01*
X178924000Y-76180638D01*
X178928445Y-76135501D01*
X178939820Y-76098005D01*
X178958292Y-76063446D01*
X178983153Y-76033153D01*
X179013446Y-76008292D01*
X179048005Y-75989820D01*
X179085501Y-75978445D01*
X179130638Y-75974000D01*
X179869362Y-75974000D01*
X179914499Y-75978445D01*
G37*
G36*
X178164499Y-75978445D02*
G01*
X178201995Y-75989820D01*
X178236554Y-76008292D01*
X178266847Y-76033153D01*
X178291708Y-76063446D01*
X178310180Y-76098005D01*
X178321555Y-76135501D01*
X178326000Y-76180638D01*
X178326000Y-76819362D01*
X178321555Y-76864499D01*
X178310180Y-76901995D01*
X178291708Y-76936554D01*
X178266847Y-76966847D01*
X178236554Y-76991708D01*
X178201995Y-77010180D01*
X178164499Y-77021555D01*
X178119362Y-77026000D01*
X177380638Y-77026000D01*
X177335501Y-77021555D01*
X177298005Y-77010180D01*
X177263446Y-76991708D01*
X177233153Y-76966847D01*
X177208292Y-76936554D01*
X177189820Y-76901995D01*
X177178445Y-76864499D01*
X177174000Y-76819362D01*
X177174000Y-76180638D01*
X177178445Y-76135501D01*
X177189820Y-76098005D01*
X177208292Y-76063446D01*
X177233153Y-76033153D01*
X177263446Y-76008292D01*
X177298005Y-75989820D01*
X177335501Y-75978445D01*
X177380638Y-75974000D01*
X178119362Y-75974000D01*
X178164499Y-75978445D01*
G37*
G36*
X182237142Y-74218242D02*
G01*
X182385101Y-74279529D01*
X182518255Y-74368499D01*
X182631501Y-74481745D01*
X182720471Y-74614899D01*
X182781758Y-74762858D01*
X182813000Y-74919925D01*
X182813000Y-75080075D01*
X182781758Y-75237142D01*
X182720471Y-75385101D01*
X182631501Y-75518255D01*
X182518255Y-75631501D01*
X182385101Y-75720471D01*
X182237142Y-75781758D01*
X182080075Y-75813000D01*
X181919925Y-75813000D01*
X181762858Y-75781758D01*
X181614899Y-75720471D01*
X181481745Y-75631501D01*
X181368499Y-75518255D01*
X181279529Y-75385101D01*
X181218242Y-75237142D01*
X181187000Y-75080075D01*
X181187000Y-74919925D01*
X181218242Y-74762858D01*
X181279529Y-74614899D01*
X181368499Y-74481745D01*
X181481745Y-74368499D01*
X181614899Y-74279529D01*
X181762858Y-74218242D01*
X181919925Y-74187000D01*
X182080075Y-74187000D01*
X182237142Y-74218242D01*
G37*
G36*
X184777142Y-74218242D02*
G01*
X184925101Y-74279529D01*
X185058255Y-74368499D01*
X185171501Y-74481745D01*
X185260471Y-74614899D01*
X185321758Y-74762858D01*
X185353000Y-74919925D01*
X185353000Y-75080075D01*
X185321758Y-75237142D01*
X185260471Y-75385101D01*
X185171501Y-75518255D01*
X185058255Y-75631501D01*
X184925101Y-75720471D01*
X184777142Y-75781758D01*
X184620075Y-75813000D01*
X184459925Y-75813000D01*
X184302858Y-75781758D01*
X184154899Y-75720471D01*
X184021745Y-75631501D01*
X183908499Y-75518255D01*
X183819529Y-75385101D01*
X183758242Y-75237142D01*
X183727000Y-75080075D01*
X183727000Y-74919925D01*
X183758242Y-74762858D01*
X183819529Y-74614899D01*
X183908499Y-74481745D01*
X184021745Y-74368499D01*
X184154899Y-74279529D01*
X184302858Y-74218242D01*
X184459925Y-74187000D01*
X184620075Y-74187000D01*
X184777142Y-74218242D01*
G37*
G36*
X190323512Y-73603927D02*
G01*
X190472812Y-73633624D01*
X190636784Y-73701544D01*
X190784354Y-73800147D01*
X190909853Y-73925646D01*
X191008456Y-74073216D01*
X191076376Y-74237188D01*
X191111000Y-74411259D01*
X191111000Y-74588741D01*
X191076376Y-74762812D01*
X191008456Y-74926784D01*
X190909853Y-75074354D01*
X190784354Y-75199853D01*
X190636784Y-75298456D01*
X190472812Y-75366376D01*
X190323512Y-75396073D01*
X190298742Y-75401000D01*
X190121258Y-75401000D01*
X190096488Y-75396073D01*
X189947188Y-75366376D01*
X189783216Y-75298456D01*
X189635646Y-75199853D01*
X189510147Y-75074354D01*
X189411544Y-74926784D01*
X189343624Y-74762812D01*
X189309000Y-74588741D01*
X189309000Y-74411259D01*
X189343624Y-74237188D01*
X189411544Y-74073216D01*
X189510147Y-73925646D01*
X189635646Y-73800147D01*
X189783216Y-73701544D01*
X189947188Y-73633624D01*
X190096488Y-73603927D01*
X190121258Y-73599000D01*
X190298742Y-73599000D01*
X190323512Y-73603927D01*
G37*
G36*
X193651000Y-75401000D02*
G01*
X191849000Y-75401000D01*
X191849000Y-73599000D01*
X193651000Y-73599000D01*
X193651000Y-75401000D01*
G37*
G36*
X166591000Y-75051000D02*
G01*
X161409000Y-75051000D01*
X161409000Y-73449000D01*
X166591000Y-73449000D01*
X166591000Y-75051000D01*
G37*
G36*
X179414499Y-73978445D02*
G01*
X179451995Y-73989820D01*
X179486554Y-74008292D01*
X179516847Y-74033153D01*
X179541708Y-74063446D01*
X179560180Y-74098005D01*
X179571555Y-74135501D01*
X179576000Y-74180638D01*
X179576000Y-74819362D01*
X179571555Y-74864499D01*
X179560180Y-74901995D01*
X179541708Y-74936554D01*
X179516847Y-74966847D01*
X179486554Y-74991708D01*
X179451995Y-75010180D01*
X179414499Y-75021555D01*
X179369362Y-75026000D01*
X178630638Y-75026000D01*
X178585501Y-75021555D01*
X178548005Y-75010180D01*
X178513446Y-74991708D01*
X178483153Y-74966847D01*
X178458292Y-74936554D01*
X178439820Y-74901995D01*
X178428445Y-74864499D01*
X178424000Y-74819362D01*
X178424000Y-74180638D01*
X178428445Y-74135501D01*
X178439820Y-74098005D01*
X178458292Y-74063446D01*
X178483153Y-74033153D01*
X178513446Y-74008292D01*
X178548005Y-73989820D01*
X178585501Y-73978445D01*
X178630638Y-73974000D01*
X179369362Y-73974000D01*
X179414499Y-73978445D01*
G37*
G36*
X177664499Y-73978445D02*
G01*
X177701995Y-73989820D01*
X177736554Y-74008292D01*
X177766847Y-74033153D01*
X177791708Y-74063446D01*
X177810180Y-74098005D01*
X177821555Y-74135501D01*
X177826000Y-74180638D01*
X177826000Y-74819362D01*
X177821555Y-74864499D01*
X177810180Y-74901995D01*
X177791708Y-74936554D01*
X177766847Y-74966847D01*
X177736554Y-74991708D01*
X177701995Y-75010180D01*
X177664499Y-75021555D01*
X177619362Y-75026000D01*
X176880638Y-75026000D01*
X176835501Y-75021555D01*
X176798005Y-75010180D01*
X176763446Y-74991708D01*
X176733153Y-74966847D01*
X176708292Y-74936554D01*
X176689820Y-74901995D01*
X176678445Y-74864499D01*
X176674000Y-74819362D01*
X176674000Y-74180638D01*
X176678445Y-74135501D01*
X176689820Y-74098005D01*
X176708292Y-74063446D01*
X176733153Y-74033153D01*
X176763446Y-74008292D01*
X176798005Y-73989820D01*
X176835501Y-73978445D01*
X176880638Y-73974000D01*
X177619362Y-73974000D01*
X177664499Y-73978445D01*
G37*
G36*
X182281938Y-72141716D02*
G01*
X182302557Y-72147971D01*
X182321553Y-72158124D01*
X182338208Y-72171792D01*
X182351876Y-72188447D01*
X182362029Y-72207443D01*
X182368284Y-72228062D01*
X182371000Y-72255640D01*
X182371000Y-72714360D01*
X182368284Y-72741938D01*
X182362029Y-72762557D01*
X182351876Y-72781553D01*
X182338208Y-72798208D01*
X182321553Y-72811876D01*
X182302557Y-72822029D01*
X182281938Y-72828284D01*
X182254360Y-72831000D01*
X181745640Y-72831000D01*
X181718062Y-72828284D01*
X181697443Y-72822029D01*
X181678447Y-72811876D01*
X181661792Y-72798208D01*
X181648124Y-72781553D01*
X181637971Y-72762557D01*
X181631716Y-72741938D01*
X181629000Y-72714360D01*
X181629000Y-72255640D01*
X181631716Y-72228062D01*
X181637971Y-72207443D01*
X181648124Y-72188447D01*
X181661792Y-72171792D01*
X181678447Y-72158124D01*
X181697443Y-72147971D01*
X181718062Y-72141716D01*
X181745640Y-72139000D01*
X182254360Y-72139000D01*
X182281938Y-72141716D01*
G37*
G36*
X180781938Y-72141716D02*
G01*
X180802557Y-72147971D01*
X180821553Y-72158124D01*
X180838208Y-72171792D01*
X180851876Y-72188447D01*
X180862029Y-72207443D01*
X180868284Y-72228062D01*
X180871000Y-72255640D01*
X180871000Y-72714360D01*
X180868284Y-72741938D01*
X180862029Y-72762557D01*
X180851876Y-72781553D01*
X180838208Y-72798208D01*
X180821553Y-72811876D01*
X180802557Y-72822029D01*
X180781938Y-72828284D01*
X180754360Y-72831000D01*
X180245640Y-72831000D01*
X180218062Y-72828284D01*
X180197443Y-72822029D01*
X180178447Y-72811876D01*
X180161792Y-72798208D01*
X180148124Y-72781553D01*
X180137971Y-72762557D01*
X180131716Y-72741938D01*
X180129000Y-72714360D01*
X180129000Y-72255640D01*
X180131716Y-72228062D01*
X180137971Y-72207443D01*
X180148124Y-72188447D01*
X180161792Y-72171792D01*
X180178447Y-72158124D01*
X180197443Y-72147971D01*
X180218062Y-72141716D01*
X180245640Y-72139000D01*
X180754360Y-72139000D01*
X180781938Y-72141716D01*
G37*
G36*
X180781938Y-71171716D02*
G01*
X180802557Y-71177971D01*
X180821553Y-71188124D01*
X180838208Y-71201792D01*
X180851876Y-71218447D01*
X180862029Y-71237443D01*
X180868284Y-71258062D01*
X180871000Y-71285640D01*
X180871000Y-71744360D01*
X180868284Y-71771938D01*
X180862029Y-71792557D01*
X180851876Y-71811553D01*
X180838208Y-71828208D01*
X180821553Y-71841876D01*
X180802557Y-71852029D01*
X180781938Y-71858284D01*
X180754360Y-71861000D01*
X180245640Y-71861000D01*
X180218062Y-71858284D01*
X180197443Y-71852029D01*
X180178447Y-71841876D01*
X180161792Y-71828208D01*
X180148124Y-71811553D01*
X180137971Y-71792557D01*
X180131716Y-71771938D01*
X180129000Y-71744360D01*
X180129000Y-71285640D01*
X180131716Y-71258062D01*
X180137971Y-71237443D01*
X180148124Y-71218447D01*
X180161792Y-71201792D01*
X180178447Y-71188124D01*
X180197443Y-71177971D01*
X180218062Y-71171716D01*
X180245640Y-71169000D01*
X180754360Y-71169000D01*
X180781938Y-71171716D01*
G37*
G36*
X182281938Y-71171716D02*
G01*
X182302557Y-71177971D01*
X182321553Y-71188124D01*
X182338208Y-71201792D01*
X182351876Y-71218447D01*
X182362029Y-71237443D01*
X182368284Y-71258062D01*
X182371000Y-71285640D01*
X182371000Y-71744360D01*
X182368284Y-71771938D01*
X182362029Y-71792557D01*
X182351876Y-71811553D01*
X182338208Y-71828208D01*
X182321553Y-71841876D01*
X182302557Y-71852029D01*
X182281938Y-71858284D01*
X182254360Y-71861000D01*
X181745640Y-71861000D01*
X181718062Y-71858284D01*
X181697443Y-71852029D01*
X181678447Y-71841876D01*
X181661792Y-71828208D01*
X181648124Y-71811553D01*
X181637971Y-71792557D01*
X181631716Y-71771938D01*
X181629000Y-71744360D01*
X181629000Y-71285640D01*
X181631716Y-71258062D01*
X181637971Y-71237443D01*
X181648124Y-71218447D01*
X181661792Y-71201792D01*
X181678447Y-71188124D01*
X181697443Y-71177971D01*
X181718062Y-71171716D01*
X181745640Y-71169000D01*
X182254360Y-71169000D01*
X182281938Y-71171716D01*
G37*
G36*
X174051000Y-70051000D02*
G01*
X169949000Y-70051000D01*
X169949000Y-65949000D01*
X174051000Y-65949000D01*
X174051000Y-70051000D01*
G37*
G36*
X194548156Y-51672794D02*
G01*
X195269140Y-51816206D01*
X196060972Y-52144193D01*
X196773601Y-52620357D01*
X197379643Y-53226399D01*
X197855807Y-53939028D01*
X198183794Y-54730860D01*
X198351000Y-55571464D01*
X198351000Y-56428536D01*
X198183794Y-57269140D01*
X197855807Y-58060972D01*
X197379643Y-58773601D01*
X196773601Y-59379643D01*
X196060972Y-59855807D01*
X195269140Y-60183794D01*
X194548156Y-60327206D01*
X194428537Y-60351000D01*
X193571463Y-60351000D01*
X193451844Y-60327206D01*
X192730860Y-60183794D01*
X191939028Y-59855807D01*
X191226399Y-59379643D01*
X190620357Y-58773601D01*
X190144193Y-58060972D01*
X189816206Y-57269140D01*
X189649000Y-56428536D01*
X189649000Y-55571464D01*
X189816206Y-54730860D01*
X190144193Y-53939028D01*
X190620357Y-53226399D01*
X191226399Y-52620357D01*
X191939028Y-52144193D01*
X192730860Y-51816206D01*
X193451844Y-51672794D01*
X193571463Y-51649000D01*
X194428537Y-51649000D01*
X194548156Y-51672794D01*
G37*
G36*
X167548156Y-51672794D02*
G01*
X168269140Y-51816206D01*
X169060972Y-52144193D01*
X169773601Y-52620357D01*
X170379643Y-53226399D01*
X170855807Y-53939028D01*
X171183794Y-54730860D01*
X171351000Y-55571464D01*
X171351000Y-56428536D01*
X171183794Y-57269140D01*
X170855807Y-58060972D01*
X170379643Y-58773601D01*
X169773601Y-59379643D01*
X169060972Y-59855807D01*
X168269140Y-60183794D01*
X167548156Y-60327206D01*
X167428537Y-60351000D01*
X166571463Y-60351000D01*
X166451844Y-60327206D01*
X165730860Y-60183794D01*
X164939028Y-59855807D01*
X164226399Y-59379643D01*
X163620357Y-58773601D01*
X163144193Y-58060972D01*
X162816206Y-57269140D01*
X162649000Y-56428536D01*
X162649000Y-55571464D01*
X162816206Y-54730860D01*
X163144193Y-53939028D01*
X163620357Y-53226399D01*
X164226399Y-52620357D01*
X164939028Y-52144193D01*
X165730860Y-51816206D01*
X166451844Y-51672794D01*
X166571463Y-51649000D01*
X167428537Y-51649000D01*
X167548156Y-51672794D01*
G37*
G36*
X176551000Y-55091000D02*
G01*
X174949000Y-55091000D01*
X174949000Y-49909000D01*
X176551000Y-49909000D01*
X176551000Y-55091000D01*
G37*
G36*
X185051000Y-55091000D02*
G01*
X183449000Y-55091000D01*
X183449000Y-49909000D01*
X185051000Y-49909000D01*
X185051000Y-55091000D01*
G37*
G36*
X180801000Y-55091000D02*
G01*
X179199000Y-55091000D01*
X179199000Y-49909000D01*
X180801000Y-49909000D01*
X180801000Y-55091000D01*
G37*
M02*
