G04 #@! TF.GenerationSoftware,KiCad,Pcbnew,5.1.6-c6e7f7d~87~ubuntu18.04.1*
G04 #@! TF.CreationDate,2021-01-11T12:45:55+00:00*
G04 #@! TF.ProjectId,vary_resistance,76617279-5f72-4657-9369-7374616e6365,rev?*
G04 #@! TF.SameCoordinates,Original*
G04 #@! TF.FileFunction,Copper,L3,Inr*
G04 #@! TF.FilePolarity,Positive*
%FSLAX46Y46*%
G04 Gerber Fmt 4.6, Leading zero omitted, Abs format (unit mm)*
G04 Created by KiCad (PCBNEW 5.1.6-c6e7f7d~87~ubuntu18.04.1) date 2021-01-11 12:45:55*
%MOMM*%
%LPD*%
G01*
G04 APERTURE LIST*
G04 #@! TA.AperFunction,ViaPad*
%ADD10C,0.900000*%
G04 #@! TD*
G04 #@! TA.AperFunction,ViaPad*
%ADD11C,8.600000*%
G04 #@! TD*
G04 #@! TA.AperFunction,ViaPad*
%ADD12O,1.700000X1.700000*%
G04 #@! TD*
G04 #@! TA.AperFunction,ViaPad*
%ADD13R,1.700000X1.700000*%
G04 #@! TD*
G04 #@! TA.AperFunction,ViaPad*
%ADD14C,1.524000*%
G04 #@! TD*
G04 #@! TA.AperFunction,ViaPad*
%ADD15C,0.800000*%
G04 #@! TD*
G04 #@! TA.AperFunction,Conductor*
%ADD16C,0.254000*%
G04 #@! TD*
G04 APERTURE END LIST*
D10*
X169280419Y-94719581D03*
X167000000Y-93775000D03*
X164719581Y-94719581D03*
X163775000Y-97000000D03*
X164719581Y-99280419D03*
X167000000Y-100225000D03*
X169280419Y-99280419D03*
X170225000Y-97000000D03*
D11*
X167000000Y-97000000D03*
D10*
X196280419Y-94719581D03*
X194000000Y-93775000D03*
X191719581Y-94719581D03*
X190775000Y-97000000D03*
X191719581Y-99280419D03*
X194000000Y-100225000D03*
X196280419Y-99280419D03*
X197225000Y-97000000D03*
D11*
X194000000Y-97000000D03*
D12*
X190210000Y-74500000D03*
D13*
X192750000Y-74500000D03*
D14*
X184540000Y-75000000D03*
X182000000Y-75000000D03*
X184540000Y-85000000D03*
X182000000Y-85000000D03*
X179460000Y-85000000D03*
D10*
X169280419Y-53719581D03*
X167000000Y-52775000D03*
X164719581Y-53719581D03*
X163775000Y-56000000D03*
X164719581Y-58280419D03*
X167000000Y-59225000D03*
X169280419Y-58280419D03*
X170225000Y-56000000D03*
D11*
X167000000Y-56000000D03*
D10*
X196280419Y-53719581D03*
X194000000Y-52775000D03*
X191719581Y-53719581D03*
X190775000Y-56000000D03*
X191719581Y-58280419D03*
X194000000Y-59225000D03*
X196280419Y-58280419D03*
X197225000Y-56000000D03*
D11*
X194000000Y-56000000D03*
D15*
X180000000Y-101000000D03*
X176000000Y-101000000D03*
X174000000Y-101000000D03*
X178000000Y-101000000D03*
X172000000Y-101000000D03*
X184000000Y-101000000D03*
X182000000Y-101000000D03*
X186000000Y-101000000D03*
X188000000Y-101000000D03*
X162500000Y-91370000D03*
X162500000Y-95370000D03*
X162500000Y-93370000D03*
X162500000Y-85500000D03*
X162500000Y-89370000D03*
X162500000Y-87370000D03*
X199000000Y-75000000D03*
X199000000Y-77000000D03*
X199000000Y-79000000D03*
X199000000Y-73000000D03*
X199000000Y-61000000D03*
X199000000Y-59000000D03*
X190000000Y-51000000D03*
X171000000Y-51000000D03*
X173000000Y-51000000D03*
X167000000Y-51000000D03*
X169000000Y-51000000D03*
X163000000Y-60000000D03*
X163000000Y-62000000D03*
X163000000Y-64000000D03*
X163000000Y-66000000D03*
X163000000Y-70000000D03*
X163000000Y-68000000D03*
X192000000Y-51000000D03*
X199000000Y-81000000D03*
X199000000Y-91000000D03*
X188000000Y-51000000D03*
X186000000Y-51000000D03*
X199000000Y-71000000D03*
X199000000Y-69000000D03*
X199000000Y-67000000D03*
X199000000Y-65000000D03*
X199000000Y-63000000D03*
X172000000Y-64500000D03*
X167750000Y-74250000D03*
X167750000Y-82750000D03*
X176000000Y-74500000D03*
X176250000Y-76500000D03*
X179500000Y-71500000D03*
X182000000Y-80500000D03*
X193500000Y-80750000D03*
X193500000Y-89250000D03*
X192250000Y-78250000D03*
X173750000Y-52500000D03*
X189750000Y-91250000D03*
X190750000Y-91250000D03*
X199000000Y-92750000D03*
X167500000Y-77000000D03*
X167500000Y-78500000D03*
X167500000Y-80000000D03*
D16*
G36*
X175373000Y-58250000D02*
G01*
X175374728Y-58270879D01*
X176374728Y-64270879D01*
X176384241Y-64302237D01*
X176396656Y-64323817D01*
X181394375Y-71320624D01*
X182623000Y-73286424D01*
X182623000Y-73749211D01*
X182469952Y-73677244D01*
X182202865Y-73610977D01*
X181927983Y-73598090D01*
X181655867Y-73639078D01*
X181396977Y-73732364D01*
X181281020Y-73794344D01*
X181214040Y-74034435D01*
X182000000Y-74820395D01*
X182014143Y-74806253D01*
X182193748Y-74985858D01*
X182179605Y-75000000D01*
X182193748Y-75014143D01*
X182014143Y-75193748D01*
X182000000Y-75179605D01*
X181214040Y-75965565D01*
X181281020Y-76205656D01*
X181530048Y-76322756D01*
X181797135Y-76389023D01*
X182072017Y-76401910D01*
X182344133Y-76360922D01*
X182603023Y-76267636D01*
X182623000Y-76256958D01*
X182623000Y-77500000D01*
X182625440Y-77524776D01*
X182632667Y-77548601D01*
X182644403Y-77570557D01*
X182660197Y-77589803D01*
X182679443Y-77605597D01*
X182701399Y-77617333D01*
X182725224Y-77624560D01*
X182750000Y-77627000D01*
X186873000Y-77627000D01*
X186873000Y-82873000D01*
X185000000Y-82873000D01*
X184975224Y-82875440D01*
X184951399Y-82882667D01*
X184929443Y-82894403D01*
X184910197Y-82910197D01*
X184894403Y-82929443D01*
X184882667Y-82951399D01*
X184875440Y-82975224D01*
X184873000Y-83000000D01*
X184873000Y-83140230D01*
X184726050Y-83111000D01*
X184353950Y-83111000D01*
X183988999Y-83183593D01*
X183645223Y-83325990D01*
X183335833Y-83532718D01*
X183270000Y-83598551D01*
X183204167Y-83532718D01*
X182894777Y-83325990D01*
X182551001Y-83183593D01*
X182186050Y-83111000D01*
X181813950Y-83111000D01*
X181448999Y-83183593D01*
X181105223Y-83325990D01*
X180795833Y-83532718D01*
X180730000Y-83598551D01*
X180664167Y-83532718D01*
X180354777Y-83325990D01*
X180011001Y-83183593D01*
X179646050Y-83111000D01*
X179273950Y-83111000D01*
X178908999Y-83183593D01*
X178565223Y-83325990D01*
X178255833Y-83532718D01*
X177992718Y-83795833D01*
X177785990Y-84105223D01*
X177643593Y-84448999D01*
X177571000Y-84813950D01*
X177571000Y-85186050D01*
X177643593Y-85551001D01*
X177785990Y-85894777D01*
X177992718Y-86204167D01*
X178255833Y-86467282D01*
X178565223Y-86674010D01*
X178908999Y-86816407D01*
X179273950Y-86889000D01*
X179646050Y-86889000D01*
X180011001Y-86816407D01*
X180354777Y-86674010D01*
X180664167Y-86467282D01*
X180730000Y-86401449D01*
X180795833Y-86467282D01*
X181105223Y-86674010D01*
X181448999Y-86816407D01*
X181813950Y-86889000D01*
X182186050Y-86889000D01*
X182551001Y-86816407D01*
X182894777Y-86674010D01*
X183204167Y-86467282D01*
X183270000Y-86401449D01*
X183335833Y-86467282D01*
X183645223Y-86674010D01*
X183988999Y-86816407D01*
X184353950Y-86889000D01*
X184726050Y-86889000D01*
X184873000Y-86859770D01*
X184873000Y-87000000D01*
X184875440Y-87024776D01*
X184882667Y-87048601D01*
X184894403Y-87070557D01*
X184910197Y-87089803D01*
X184929443Y-87105597D01*
X184951399Y-87117333D01*
X184975224Y-87124560D01*
X185000000Y-87127000D01*
X186873000Y-87127000D01*
X186873000Y-99746812D01*
X186723306Y-99646790D01*
X186445410Y-99531681D01*
X186150396Y-99473000D01*
X185849604Y-99473000D01*
X185554590Y-99531681D01*
X185276694Y-99646790D01*
X185026594Y-99813901D01*
X185000000Y-99840495D01*
X184973406Y-99813901D01*
X184723306Y-99646790D01*
X184445410Y-99531681D01*
X184150396Y-99473000D01*
X183849604Y-99473000D01*
X183554590Y-99531681D01*
X183276694Y-99646790D01*
X183026594Y-99813901D01*
X183000000Y-99840495D01*
X182973406Y-99813901D01*
X182723306Y-99646790D01*
X182445410Y-99531681D01*
X182150396Y-99473000D01*
X181849604Y-99473000D01*
X181554590Y-99531681D01*
X181276694Y-99646790D01*
X181026594Y-99813901D01*
X181000000Y-99840495D01*
X180973406Y-99813901D01*
X180723306Y-99646790D01*
X180445410Y-99531681D01*
X180150396Y-99473000D01*
X179849604Y-99473000D01*
X179554590Y-99531681D01*
X179276694Y-99646790D01*
X179026594Y-99813901D01*
X179000000Y-99840495D01*
X178973406Y-99813901D01*
X178723306Y-99646790D01*
X178445410Y-99531681D01*
X178150396Y-99473000D01*
X177849604Y-99473000D01*
X177554590Y-99531681D01*
X177276694Y-99646790D01*
X177026594Y-99813901D01*
X177000000Y-99840495D01*
X176973406Y-99813901D01*
X176723306Y-99646790D01*
X176445410Y-99531681D01*
X176150396Y-99473000D01*
X175849604Y-99473000D01*
X175554590Y-99531681D01*
X175276694Y-99646790D01*
X175026594Y-99813901D01*
X175000000Y-99840495D01*
X174973406Y-99813901D01*
X174723306Y-99646790D01*
X174445410Y-99531681D01*
X174150396Y-99473000D01*
X173849604Y-99473000D01*
X173554590Y-99531681D01*
X173276694Y-99646790D01*
X173026594Y-99813901D01*
X173000000Y-99840495D01*
X172973406Y-99813901D01*
X172723306Y-99646790D01*
X172445410Y-99531681D01*
X172150396Y-99473000D01*
X171849792Y-99473000D01*
X172218443Y-98582998D01*
X172427000Y-97534513D01*
X172427000Y-96465487D01*
X172218443Y-95417002D01*
X171809345Y-94429352D01*
X171215426Y-93540489D01*
X170459511Y-92784574D01*
X169570648Y-92190655D01*
X168582998Y-91781557D01*
X167534513Y-91573000D01*
X166465487Y-91573000D01*
X165417002Y-91781557D01*
X164429352Y-92190655D01*
X163820378Y-92597558D01*
X163686099Y-92396594D01*
X163659505Y-92370000D01*
X163686099Y-92343406D01*
X163853210Y-92093306D01*
X163968319Y-91815410D01*
X164027000Y-91520396D01*
X164027000Y-91219604D01*
X163968319Y-90924590D01*
X163853210Y-90646694D01*
X163686099Y-90396594D01*
X163659505Y-90370000D01*
X163686099Y-90343406D01*
X163853210Y-90093306D01*
X163968319Y-89815410D01*
X164027000Y-89520396D01*
X164027000Y-89219604D01*
X163968319Y-88924590D01*
X163853210Y-88646694D01*
X163686099Y-88396594D01*
X163659505Y-88370000D01*
X163686099Y-88343406D01*
X163853210Y-88093306D01*
X163968319Y-87815410D01*
X164027000Y-87520396D01*
X164027000Y-87219604D01*
X163968319Y-86924590D01*
X163853210Y-86646694D01*
X163711761Y-86435000D01*
X163853210Y-86223306D01*
X163968319Y-85945410D01*
X164027000Y-85650396D01*
X164027000Y-85349604D01*
X163968319Y-85054590D01*
X163853210Y-84776694D01*
X163686099Y-84526594D01*
X163473406Y-84313901D01*
X163223306Y-84146790D01*
X162945410Y-84031681D01*
X162650396Y-83973000D01*
X162349604Y-83973000D01*
X162152000Y-84012305D01*
X162152000Y-82599604D01*
X166223000Y-82599604D01*
X166223000Y-82900396D01*
X166281681Y-83195410D01*
X166396790Y-83473306D01*
X166563901Y-83723406D01*
X166776594Y-83936099D01*
X167026694Y-84103210D01*
X167304590Y-84218319D01*
X167599604Y-84277000D01*
X167900396Y-84277000D01*
X168195410Y-84218319D01*
X168473306Y-84103210D01*
X168723406Y-83936099D01*
X168936099Y-83723406D01*
X169103210Y-83473306D01*
X169218319Y-83195410D01*
X169277000Y-82900396D01*
X169277000Y-82599604D01*
X169218319Y-82304590D01*
X169103210Y-82026694D01*
X168936099Y-81776594D01*
X168723406Y-81563901D01*
X168473306Y-81396790D01*
X168195410Y-81281681D01*
X167900396Y-81223000D01*
X167599604Y-81223000D01*
X167304590Y-81281681D01*
X167026694Y-81396790D01*
X166776594Y-81563901D01*
X166563901Y-81776594D01*
X166396790Y-82026694D01*
X166281681Y-82304590D01*
X166223000Y-82599604D01*
X162152000Y-82599604D01*
X162152000Y-80349604D01*
X180473000Y-80349604D01*
X180473000Y-80650396D01*
X180531681Y-80945410D01*
X180646790Y-81223306D01*
X180813901Y-81473406D01*
X181026594Y-81686099D01*
X181276694Y-81853210D01*
X181554590Y-81968319D01*
X181849604Y-82027000D01*
X182150396Y-82027000D01*
X182445410Y-81968319D01*
X182723306Y-81853210D01*
X182973406Y-81686099D01*
X183186099Y-81473406D01*
X183353210Y-81223306D01*
X183468319Y-80945410D01*
X183527000Y-80650396D01*
X183527000Y-80349604D01*
X183468319Y-80054590D01*
X183353210Y-79776694D01*
X183186099Y-79526594D01*
X182973406Y-79313901D01*
X182723306Y-79146790D01*
X182445410Y-79031681D01*
X182150396Y-78973000D01*
X181849604Y-78973000D01*
X181554590Y-79031681D01*
X181276694Y-79146790D01*
X181026594Y-79313901D01*
X180813901Y-79526594D01*
X180646790Y-79776694D01*
X180531681Y-80054590D01*
X180473000Y-80349604D01*
X162152000Y-80349604D01*
X162152000Y-74099604D01*
X166223000Y-74099604D01*
X166223000Y-74400396D01*
X166281681Y-74695410D01*
X166396790Y-74973306D01*
X166563901Y-75223406D01*
X166776594Y-75436099D01*
X167026694Y-75603210D01*
X167304590Y-75718319D01*
X167599604Y-75777000D01*
X167900396Y-75777000D01*
X168195410Y-75718319D01*
X168473306Y-75603210D01*
X168723406Y-75436099D01*
X168936099Y-75223406D01*
X169103210Y-74973306D01*
X169218319Y-74695410D01*
X169277000Y-74400396D01*
X169277000Y-74349604D01*
X174473000Y-74349604D01*
X174473000Y-74650396D01*
X174531681Y-74945410D01*
X174646790Y-75223306D01*
X174813901Y-75473406D01*
X174985069Y-75644574D01*
X174896790Y-75776694D01*
X174781681Y-76054590D01*
X174723000Y-76349604D01*
X174723000Y-76650396D01*
X174781681Y-76945410D01*
X174896790Y-77223306D01*
X175063901Y-77473406D01*
X175276594Y-77686099D01*
X175526694Y-77853210D01*
X175804590Y-77968319D01*
X176099604Y-78027000D01*
X176400396Y-78027000D01*
X176695410Y-77968319D01*
X176973306Y-77853210D01*
X177223406Y-77686099D01*
X177436099Y-77473406D01*
X177603210Y-77223306D01*
X177718319Y-76945410D01*
X177777000Y-76650396D01*
X177777000Y-76349604D01*
X177718319Y-76054590D01*
X177603210Y-75776694D01*
X177436099Y-75526594D01*
X177264931Y-75355426D01*
X177353210Y-75223306D01*
X177415876Y-75072017D01*
X180598090Y-75072017D01*
X180639078Y-75344133D01*
X180732364Y-75603023D01*
X180794344Y-75718980D01*
X181034435Y-75785960D01*
X181820395Y-75000000D01*
X181034435Y-74214040D01*
X180794344Y-74281020D01*
X180677244Y-74530048D01*
X180610977Y-74797135D01*
X180598090Y-75072017D01*
X177415876Y-75072017D01*
X177468319Y-74945410D01*
X177527000Y-74650396D01*
X177527000Y-74349604D01*
X177468319Y-74054590D01*
X177353210Y-73776694D01*
X177186099Y-73526594D01*
X176973406Y-73313901D01*
X176723306Y-73146790D01*
X176445410Y-73031681D01*
X176150396Y-72973000D01*
X175849604Y-72973000D01*
X175554590Y-73031681D01*
X175276694Y-73146790D01*
X175026594Y-73313901D01*
X174813901Y-73526594D01*
X174646790Y-73776694D01*
X174531681Y-74054590D01*
X174473000Y-74349604D01*
X169277000Y-74349604D01*
X169277000Y-74099604D01*
X169218319Y-73804590D01*
X169103210Y-73526694D01*
X168936099Y-73276594D01*
X168723406Y-73063901D01*
X168473306Y-72896790D01*
X168195410Y-72781681D01*
X167900396Y-72723000D01*
X167599604Y-72723000D01*
X167304590Y-72781681D01*
X167026694Y-72896790D01*
X166776594Y-73063901D01*
X166563901Y-73276594D01*
X166396790Y-73526694D01*
X166281681Y-73804590D01*
X166223000Y-74099604D01*
X162152000Y-74099604D01*
X162152000Y-71269892D01*
X162276694Y-71353210D01*
X162554590Y-71468319D01*
X162849604Y-71527000D01*
X163150396Y-71527000D01*
X163445410Y-71468319D01*
X163723306Y-71353210D01*
X163728702Y-71349604D01*
X177973000Y-71349604D01*
X177973000Y-71650396D01*
X178031681Y-71945410D01*
X178146790Y-72223306D01*
X178313901Y-72473406D01*
X178526594Y-72686099D01*
X178776694Y-72853210D01*
X179054590Y-72968319D01*
X179349604Y-73027000D01*
X179650396Y-73027000D01*
X179945410Y-72968319D01*
X180223306Y-72853210D01*
X180473406Y-72686099D01*
X180686099Y-72473406D01*
X180853210Y-72223306D01*
X180968319Y-71945410D01*
X181027000Y-71650396D01*
X181027000Y-71349604D01*
X180968319Y-71054590D01*
X180853210Y-70776694D01*
X180686099Y-70526594D01*
X180473406Y-70313901D01*
X180223306Y-70146790D01*
X179945410Y-70031681D01*
X179650396Y-69973000D01*
X179349604Y-69973000D01*
X179054590Y-70031681D01*
X178776694Y-70146790D01*
X178526594Y-70313901D01*
X178313901Y-70526594D01*
X178146790Y-70776694D01*
X178031681Y-71054590D01*
X177973000Y-71349604D01*
X163728702Y-71349604D01*
X163973406Y-71186099D01*
X164186099Y-70973406D01*
X164353210Y-70723306D01*
X164468319Y-70445410D01*
X164527000Y-70150396D01*
X164527000Y-69849604D01*
X164468319Y-69554590D01*
X164353210Y-69276694D01*
X164186099Y-69026594D01*
X164159505Y-69000000D01*
X164186099Y-68973406D01*
X164353210Y-68723306D01*
X164468319Y-68445410D01*
X164527000Y-68150396D01*
X164527000Y-67849604D01*
X164468319Y-67554590D01*
X164353210Y-67276694D01*
X164186099Y-67026594D01*
X164159505Y-67000000D01*
X164186099Y-66973406D01*
X164353210Y-66723306D01*
X164468319Y-66445410D01*
X164527000Y-66150396D01*
X164527000Y-65849604D01*
X164468319Y-65554590D01*
X164353210Y-65276694D01*
X164186099Y-65026594D01*
X164159505Y-65000000D01*
X164186099Y-64973406D01*
X164353210Y-64723306D01*
X164468319Y-64445410D01*
X164487375Y-64349604D01*
X170473000Y-64349604D01*
X170473000Y-64650396D01*
X170531681Y-64945410D01*
X170646790Y-65223306D01*
X170813901Y-65473406D01*
X171026594Y-65686099D01*
X171276694Y-65853210D01*
X171554590Y-65968319D01*
X171849604Y-66027000D01*
X172150396Y-66027000D01*
X172445410Y-65968319D01*
X172723306Y-65853210D01*
X172973406Y-65686099D01*
X173186099Y-65473406D01*
X173353210Y-65223306D01*
X173468319Y-64945410D01*
X173527000Y-64650396D01*
X173527000Y-64349604D01*
X173468319Y-64054590D01*
X173353210Y-63776694D01*
X173186099Y-63526594D01*
X172973406Y-63313901D01*
X172723306Y-63146790D01*
X172445410Y-63031681D01*
X172150396Y-62973000D01*
X171849604Y-62973000D01*
X171554590Y-63031681D01*
X171276694Y-63146790D01*
X171026594Y-63313901D01*
X170813901Y-63526594D01*
X170646790Y-63776694D01*
X170531681Y-64054590D01*
X170473000Y-64349604D01*
X164487375Y-64349604D01*
X164527000Y-64150396D01*
X164527000Y-63849604D01*
X164468319Y-63554590D01*
X164353210Y-63276694D01*
X164186099Y-63026594D01*
X164159505Y-63000000D01*
X164186099Y-62973406D01*
X164353210Y-62723306D01*
X164468319Y-62445410D01*
X164527000Y-62150396D01*
X164527000Y-61849604D01*
X164468319Y-61554590D01*
X164353210Y-61276694D01*
X164186099Y-61026594D01*
X164159505Y-61000000D01*
X164186099Y-60973406D01*
X164336967Y-60747615D01*
X164429352Y-60809345D01*
X165417002Y-61218443D01*
X166465487Y-61427000D01*
X167534513Y-61427000D01*
X168582998Y-61218443D01*
X169570648Y-60809345D01*
X170459511Y-60215426D01*
X171215426Y-59459511D01*
X171809345Y-58570648D01*
X172218443Y-57582998D01*
X172427000Y-56534513D01*
X172427000Y-55465487D01*
X172218443Y-54417002D01*
X171809345Y-53429352D01*
X171215426Y-52540489D01*
X171193386Y-52518449D01*
X171445410Y-52468319D01*
X171723306Y-52353210D01*
X171973406Y-52186099D01*
X172000000Y-52159505D01*
X172026594Y-52186099D01*
X172228666Y-52321119D01*
X172223000Y-52349604D01*
X172223000Y-52650396D01*
X172281681Y-52945410D01*
X172396790Y-53223306D01*
X172563901Y-53473406D01*
X172776594Y-53686099D01*
X173026694Y-53853210D01*
X173304590Y-53968319D01*
X173599604Y-54027000D01*
X173900396Y-54027000D01*
X174195410Y-53968319D01*
X174473306Y-53853210D01*
X174723406Y-53686099D01*
X174936099Y-53473406D01*
X175103210Y-53223306D01*
X175218319Y-52945410D01*
X175277000Y-52650396D01*
X175277000Y-52349604D01*
X175218319Y-52054590D01*
X175103210Y-51776694D01*
X174936099Y-51526594D01*
X174723406Y-51313901D01*
X174521334Y-51178881D01*
X174526681Y-51152000D01*
X175373000Y-51152000D01*
X175373000Y-58250000D01*
G37*
X175373000Y-58250000D02*
X175374728Y-58270879D01*
X176374728Y-64270879D01*
X176384241Y-64302237D01*
X176396656Y-64323817D01*
X181394375Y-71320624D01*
X182623000Y-73286424D01*
X182623000Y-73749211D01*
X182469952Y-73677244D01*
X182202865Y-73610977D01*
X181927983Y-73598090D01*
X181655867Y-73639078D01*
X181396977Y-73732364D01*
X181281020Y-73794344D01*
X181214040Y-74034435D01*
X182000000Y-74820395D01*
X182014143Y-74806253D01*
X182193748Y-74985858D01*
X182179605Y-75000000D01*
X182193748Y-75014143D01*
X182014143Y-75193748D01*
X182000000Y-75179605D01*
X181214040Y-75965565D01*
X181281020Y-76205656D01*
X181530048Y-76322756D01*
X181797135Y-76389023D01*
X182072017Y-76401910D01*
X182344133Y-76360922D01*
X182603023Y-76267636D01*
X182623000Y-76256958D01*
X182623000Y-77500000D01*
X182625440Y-77524776D01*
X182632667Y-77548601D01*
X182644403Y-77570557D01*
X182660197Y-77589803D01*
X182679443Y-77605597D01*
X182701399Y-77617333D01*
X182725224Y-77624560D01*
X182750000Y-77627000D01*
X186873000Y-77627000D01*
X186873000Y-82873000D01*
X185000000Y-82873000D01*
X184975224Y-82875440D01*
X184951399Y-82882667D01*
X184929443Y-82894403D01*
X184910197Y-82910197D01*
X184894403Y-82929443D01*
X184882667Y-82951399D01*
X184875440Y-82975224D01*
X184873000Y-83000000D01*
X184873000Y-83140230D01*
X184726050Y-83111000D01*
X184353950Y-83111000D01*
X183988999Y-83183593D01*
X183645223Y-83325990D01*
X183335833Y-83532718D01*
X183270000Y-83598551D01*
X183204167Y-83532718D01*
X182894777Y-83325990D01*
X182551001Y-83183593D01*
X182186050Y-83111000D01*
X181813950Y-83111000D01*
X181448999Y-83183593D01*
X181105223Y-83325990D01*
X180795833Y-83532718D01*
X180730000Y-83598551D01*
X180664167Y-83532718D01*
X180354777Y-83325990D01*
X180011001Y-83183593D01*
X179646050Y-83111000D01*
X179273950Y-83111000D01*
X178908999Y-83183593D01*
X178565223Y-83325990D01*
X178255833Y-83532718D01*
X177992718Y-83795833D01*
X177785990Y-84105223D01*
X177643593Y-84448999D01*
X177571000Y-84813950D01*
X177571000Y-85186050D01*
X177643593Y-85551001D01*
X177785990Y-85894777D01*
X177992718Y-86204167D01*
X178255833Y-86467282D01*
X178565223Y-86674010D01*
X178908999Y-86816407D01*
X179273950Y-86889000D01*
X179646050Y-86889000D01*
X180011001Y-86816407D01*
X180354777Y-86674010D01*
X180664167Y-86467282D01*
X180730000Y-86401449D01*
X180795833Y-86467282D01*
X181105223Y-86674010D01*
X181448999Y-86816407D01*
X181813950Y-86889000D01*
X182186050Y-86889000D01*
X182551001Y-86816407D01*
X182894777Y-86674010D01*
X183204167Y-86467282D01*
X183270000Y-86401449D01*
X183335833Y-86467282D01*
X183645223Y-86674010D01*
X183988999Y-86816407D01*
X184353950Y-86889000D01*
X184726050Y-86889000D01*
X184873000Y-86859770D01*
X184873000Y-87000000D01*
X184875440Y-87024776D01*
X184882667Y-87048601D01*
X184894403Y-87070557D01*
X184910197Y-87089803D01*
X184929443Y-87105597D01*
X184951399Y-87117333D01*
X184975224Y-87124560D01*
X185000000Y-87127000D01*
X186873000Y-87127000D01*
X186873000Y-99746812D01*
X186723306Y-99646790D01*
X186445410Y-99531681D01*
X186150396Y-99473000D01*
X185849604Y-99473000D01*
X185554590Y-99531681D01*
X185276694Y-99646790D01*
X185026594Y-99813901D01*
X185000000Y-99840495D01*
X184973406Y-99813901D01*
X184723306Y-99646790D01*
X184445410Y-99531681D01*
X184150396Y-99473000D01*
X183849604Y-99473000D01*
X183554590Y-99531681D01*
X183276694Y-99646790D01*
X183026594Y-99813901D01*
X183000000Y-99840495D01*
X182973406Y-99813901D01*
X182723306Y-99646790D01*
X182445410Y-99531681D01*
X182150396Y-99473000D01*
X181849604Y-99473000D01*
X181554590Y-99531681D01*
X181276694Y-99646790D01*
X181026594Y-99813901D01*
X181000000Y-99840495D01*
X180973406Y-99813901D01*
X180723306Y-99646790D01*
X180445410Y-99531681D01*
X180150396Y-99473000D01*
X179849604Y-99473000D01*
X179554590Y-99531681D01*
X179276694Y-99646790D01*
X179026594Y-99813901D01*
X179000000Y-99840495D01*
X178973406Y-99813901D01*
X178723306Y-99646790D01*
X178445410Y-99531681D01*
X178150396Y-99473000D01*
X177849604Y-99473000D01*
X177554590Y-99531681D01*
X177276694Y-99646790D01*
X177026594Y-99813901D01*
X177000000Y-99840495D01*
X176973406Y-99813901D01*
X176723306Y-99646790D01*
X176445410Y-99531681D01*
X176150396Y-99473000D01*
X175849604Y-99473000D01*
X175554590Y-99531681D01*
X175276694Y-99646790D01*
X175026594Y-99813901D01*
X175000000Y-99840495D01*
X174973406Y-99813901D01*
X174723306Y-99646790D01*
X174445410Y-99531681D01*
X174150396Y-99473000D01*
X173849604Y-99473000D01*
X173554590Y-99531681D01*
X173276694Y-99646790D01*
X173026594Y-99813901D01*
X173000000Y-99840495D01*
X172973406Y-99813901D01*
X172723306Y-99646790D01*
X172445410Y-99531681D01*
X172150396Y-99473000D01*
X171849792Y-99473000D01*
X172218443Y-98582998D01*
X172427000Y-97534513D01*
X172427000Y-96465487D01*
X172218443Y-95417002D01*
X171809345Y-94429352D01*
X171215426Y-93540489D01*
X170459511Y-92784574D01*
X169570648Y-92190655D01*
X168582998Y-91781557D01*
X167534513Y-91573000D01*
X166465487Y-91573000D01*
X165417002Y-91781557D01*
X164429352Y-92190655D01*
X163820378Y-92597558D01*
X163686099Y-92396594D01*
X163659505Y-92370000D01*
X163686099Y-92343406D01*
X163853210Y-92093306D01*
X163968319Y-91815410D01*
X164027000Y-91520396D01*
X164027000Y-91219604D01*
X163968319Y-90924590D01*
X163853210Y-90646694D01*
X163686099Y-90396594D01*
X163659505Y-90370000D01*
X163686099Y-90343406D01*
X163853210Y-90093306D01*
X163968319Y-89815410D01*
X164027000Y-89520396D01*
X164027000Y-89219604D01*
X163968319Y-88924590D01*
X163853210Y-88646694D01*
X163686099Y-88396594D01*
X163659505Y-88370000D01*
X163686099Y-88343406D01*
X163853210Y-88093306D01*
X163968319Y-87815410D01*
X164027000Y-87520396D01*
X164027000Y-87219604D01*
X163968319Y-86924590D01*
X163853210Y-86646694D01*
X163711761Y-86435000D01*
X163853210Y-86223306D01*
X163968319Y-85945410D01*
X164027000Y-85650396D01*
X164027000Y-85349604D01*
X163968319Y-85054590D01*
X163853210Y-84776694D01*
X163686099Y-84526594D01*
X163473406Y-84313901D01*
X163223306Y-84146790D01*
X162945410Y-84031681D01*
X162650396Y-83973000D01*
X162349604Y-83973000D01*
X162152000Y-84012305D01*
X162152000Y-82599604D01*
X166223000Y-82599604D01*
X166223000Y-82900396D01*
X166281681Y-83195410D01*
X166396790Y-83473306D01*
X166563901Y-83723406D01*
X166776594Y-83936099D01*
X167026694Y-84103210D01*
X167304590Y-84218319D01*
X167599604Y-84277000D01*
X167900396Y-84277000D01*
X168195410Y-84218319D01*
X168473306Y-84103210D01*
X168723406Y-83936099D01*
X168936099Y-83723406D01*
X169103210Y-83473306D01*
X169218319Y-83195410D01*
X169277000Y-82900396D01*
X169277000Y-82599604D01*
X169218319Y-82304590D01*
X169103210Y-82026694D01*
X168936099Y-81776594D01*
X168723406Y-81563901D01*
X168473306Y-81396790D01*
X168195410Y-81281681D01*
X167900396Y-81223000D01*
X167599604Y-81223000D01*
X167304590Y-81281681D01*
X167026694Y-81396790D01*
X166776594Y-81563901D01*
X166563901Y-81776594D01*
X166396790Y-82026694D01*
X166281681Y-82304590D01*
X166223000Y-82599604D01*
X162152000Y-82599604D01*
X162152000Y-80349604D01*
X180473000Y-80349604D01*
X180473000Y-80650396D01*
X180531681Y-80945410D01*
X180646790Y-81223306D01*
X180813901Y-81473406D01*
X181026594Y-81686099D01*
X181276694Y-81853210D01*
X181554590Y-81968319D01*
X181849604Y-82027000D01*
X182150396Y-82027000D01*
X182445410Y-81968319D01*
X182723306Y-81853210D01*
X182973406Y-81686099D01*
X183186099Y-81473406D01*
X183353210Y-81223306D01*
X183468319Y-80945410D01*
X183527000Y-80650396D01*
X183527000Y-80349604D01*
X183468319Y-80054590D01*
X183353210Y-79776694D01*
X183186099Y-79526594D01*
X182973406Y-79313901D01*
X182723306Y-79146790D01*
X182445410Y-79031681D01*
X182150396Y-78973000D01*
X181849604Y-78973000D01*
X181554590Y-79031681D01*
X181276694Y-79146790D01*
X181026594Y-79313901D01*
X180813901Y-79526594D01*
X180646790Y-79776694D01*
X180531681Y-80054590D01*
X180473000Y-80349604D01*
X162152000Y-80349604D01*
X162152000Y-74099604D01*
X166223000Y-74099604D01*
X166223000Y-74400396D01*
X166281681Y-74695410D01*
X166396790Y-74973306D01*
X166563901Y-75223406D01*
X166776594Y-75436099D01*
X167026694Y-75603210D01*
X167304590Y-75718319D01*
X167599604Y-75777000D01*
X167900396Y-75777000D01*
X168195410Y-75718319D01*
X168473306Y-75603210D01*
X168723406Y-75436099D01*
X168936099Y-75223406D01*
X169103210Y-74973306D01*
X169218319Y-74695410D01*
X169277000Y-74400396D01*
X169277000Y-74349604D01*
X174473000Y-74349604D01*
X174473000Y-74650396D01*
X174531681Y-74945410D01*
X174646790Y-75223306D01*
X174813901Y-75473406D01*
X174985069Y-75644574D01*
X174896790Y-75776694D01*
X174781681Y-76054590D01*
X174723000Y-76349604D01*
X174723000Y-76650396D01*
X174781681Y-76945410D01*
X174896790Y-77223306D01*
X175063901Y-77473406D01*
X175276594Y-77686099D01*
X175526694Y-77853210D01*
X175804590Y-77968319D01*
X176099604Y-78027000D01*
X176400396Y-78027000D01*
X176695410Y-77968319D01*
X176973306Y-77853210D01*
X177223406Y-77686099D01*
X177436099Y-77473406D01*
X177603210Y-77223306D01*
X177718319Y-76945410D01*
X177777000Y-76650396D01*
X177777000Y-76349604D01*
X177718319Y-76054590D01*
X177603210Y-75776694D01*
X177436099Y-75526594D01*
X177264931Y-75355426D01*
X177353210Y-75223306D01*
X177415876Y-75072017D01*
X180598090Y-75072017D01*
X180639078Y-75344133D01*
X180732364Y-75603023D01*
X180794344Y-75718980D01*
X181034435Y-75785960D01*
X181820395Y-75000000D01*
X181034435Y-74214040D01*
X180794344Y-74281020D01*
X180677244Y-74530048D01*
X180610977Y-74797135D01*
X180598090Y-75072017D01*
X177415876Y-75072017D01*
X177468319Y-74945410D01*
X177527000Y-74650396D01*
X177527000Y-74349604D01*
X177468319Y-74054590D01*
X177353210Y-73776694D01*
X177186099Y-73526594D01*
X176973406Y-73313901D01*
X176723306Y-73146790D01*
X176445410Y-73031681D01*
X176150396Y-72973000D01*
X175849604Y-72973000D01*
X175554590Y-73031681D01*
X175276694Y-73146790D01*
X175026594Y-73313901D01*
X174813901Y-73526594D01*
X174646790Y-73776694D01*
X174531681Y-74054590D01*
X174473000Y-74349604D01*
X169277000Y-74349604D01*
X169277000Y-74099604D01*
X169218319Y-73804590D01*
X169103210Y-73526694D01*
X168936099Y-73276594D01*
X168723406Y-73063901D01*
X168473306Y-72896790D01*
X168195410Y-72781681D01*
X167900396Y-72723000D01*
X167599604Y-72723000D01*
X167304590Y-72781681D01*
X167026694Y-72896790D01*
X166776594Y-73063901D01*
X166563901Y-73276594D01*
X166396790Y-73526694D01*
X166281681Y-73804590D01*
X166223000Y-74099604D01*
X162152000Y-74099604D01*
X162152000Y-71269892D01*
X162276694Y-71353210D01*
X162554590Y-71468319D01*
X162849604Y-71527000D01*
X163150396Y-71527000D01*
X163445410Y-71468319D01*
X163723306Y-71353210D01*
X163728702Y-71349604D01*
X177973000Y-71349604D01*
X177973000Y-71650396D01*
X178031681Y-71945410D01*
X178146790Y-72223306D01*
X178313901Y-72473406D01*
X178526594Y-72686099D01*
X178776694Y-72853210D01*
X179054590Y-72968319D01*
X179349604Y-73027000D01*
X179650396Y-73027000D01*
X179945410Y-72968319D01*
X180223306Y-72853210D01*
X180473406Y-72686099D01*
X180686099Y-72473406D01*
X180853210Y-72223306D01*
X180968319Y-71945410D01*
X181027000Y-71650396D01*
X181027000Y-71349604D01*
X180968319Y-71054590D01*
X180853210Y-70776694D01*
X180686099Y-70526594D01*
X180473406Y-70313901D01*
X180223306Y-70146790D01*
X179945410Y-70031681D01*
X179650396Y-69973000D01*
X179349604Y-69973000D01*
X179054590Y-70031681D01*
X178776694Y-70146790D01*
X178526594Y-70313901D01*
X178313901Y-70526594D01*
X178146790Y-70776694D01*
X178031681Y-71054590D01*
X177973000Y-71349604D01*
X163728702Y-71349604D01*
X163973406Y-71186099D01*
X164186099Y-70973406D01*
X164353210Y-70723306D01*
X164468319Y-70445410D01*
X164527000Y-70150396D01*
X164527000Y-69849604D01*
X164468319Y-69554590D01*
X164353210Y-69276694D01*
X164186099Y-69026594D01*
X164159505Y-69000000D01*
X164186099Y-68973406D01*
X164353210Y-68723306D01*
X164468319Y-68445410D01*
X164527000Y-68150396D01*
X164527000Y-67849604D01*
X164468319Y-67554590D01*
X164353210Y-67276694D01*
X164186099Y-67026594D01*
X164159505Y-67000000D01*
X164186099Y-66973406D01*
X164353210Y-66723306D01*
X164468319Y-66445410D01*
X164527000Y-66150396D01*
X164527000Y-65849604D01*
X164468319Y-65554590D01*
X164353210Y-65276694D01*
X164186099Y-65026594D01*
X164159505Y-65000000D01*
X164186099Y-64973406D01*
X164353210Y-64723306D01*
X164468319Y-64445410D01*
X164487375Y-64349604D01*
X170473000Y-64349604D01*
X170473000Y-64650396D01*
X170531681Y-64945410D01*
X170646790Y-65223306D01*
X170813901Y-65473406D01*
X171026594Y-65686099D01*
X171276694Y-65853210D01*
X171554590Y-65968319D01*
X171849604Y-66027000D01*
X172150396Y-66027000D01*
X172445410Y-65968319D01*
X172723306Y-65853210D01*
X172973406Y-65686099D01*
X173186099Y-65473406D01*
X173353210Y-65223306D01*
X173468319Y-64945410D01*
X173527000Y-64650396D01*
X173527000Y-64349604D01*
X173468319Y-64054590D01*
X173353210Y-63776694D01*
X173186099Y-63526594D01*
X172973406Y-63313901D01*
X172723306Y-63146790D01*
X172445410Y-63031681D01*
X172150396Y-62973000D01*
X171849604Y-62973000D01*
X171554590Y-63031681D01*
X171276694Y-63146790D01*
X171026594Y-63313901D01*
X170813901Y-63526594D01*
X170646790Y-63776694D01*
X170531681Y-64054590D01*
X170473000Y-64349604D01*
X164487375Y-64349604D01*
X164527000Y-64150396D01*
X164527000Y-63849604D01*
X164468319Y-63554590D01*
X164353210Y-63276694D01*
X164186099Y-63026594D01*
X164159505Y-63000000D01*
X164186099Y-62973406D01*
X164353210Y-62723306D01*
X164468319Y-62445410D01*
X164527000Y-62150396D01*
X164527000Y-61849604D01*
X164468319Y-61554590D01*
X164353210Y-61276694D01*
X164186099Y-61026594D01*
X164159505Y-61000000D01*
X164186099Y-60973406D01*
X164336967Y-60747615D01*
X164429352Y-60809345D01*
X165417002Y-61218443D01*
X166465487Y-61427000D01*
X167534513Y-61427000D01*
X168582998Y-61218443D01*
X169570648Y-60809345D01*
X170459511Y-60215426D01*
X171215426Y-59459511D01*
X171809345Y-58570648D01*
X172218443Y-57582998D01*
X172427000Y-56534513D01*
X172427000Y-55465487D01*
X172218443Y-54417002D01*
X171809345Y-53429352D01*
X171215426Y-52540489D01*
X171193386Y-52518449D01*
X171445410Y-52468319D01*
X171723306Y-52353210D01*
X171973406Y-52186099D01*
X172000000Y-52159505D01*
X172026594Y-52186099D01*
X172228666Y-52321119D01*
X172223000Y-52349604D01*
X172223000Y-52650396D01*
X172281681Y-52945410D01*
X172396790Y-53223306D01*
X172563901Y-53473406D01*
X172776594Y-53686099D01*
X173026694Y-53853210D01*
X173304590Y-53968319D01*
X173599604Y-54027000D01*
X173900396Y-54027000D01*
X174195410Y-53968319D01*
X174473306Y-53853210D01*
X174723406Y-53686099D01*
X174936099Y-53473406D01*
X175103210Y-53223306D01*
X175218319Y-52945410D01*
X175277000Y-52650396D01*
X175277000Y-52349604D01*
X175218319Y-52054590D01*
X175103210Y-51776694D01*
X174936099Y-51526594D01*
X174723406Y-51313901D01*
X174521334Y-51178881D01*
X174526681Y-51152000D01*
X175373000Y-51152000D01*
X175373000Y-58250000D01*
M02*
