G04 #@! TF.GenerationSoftware,KiCad,Pcbnew,5.1.6-c6e7f7d~87~ubuntu18.04.1*
G04 #@! TF.CreationDate,2021-01-11T12:45:55+00:00*
G04 #@! TF.ProjectId,vary_resistance,76617279-5f72-4657-9369-7374616e6365,rev?*
G04 #@! TF.SameCoordinates,Original*
G04 #@! TF.FileFunction,Soldermask,Bot*
G04 #@! TF.FilePolarity,Negative*
%FSLAX46Y46*%
G04 Gerber Fmt 4.6, Leading zero omitted, Abs format (unit mm)*
G04 Created by KiCad (PCBNEW 5.1.6-c6e7f7d~87~ubuntu18.04.1) date 2021-01-11 12:45:55*
%MOMM*%
%LPD*%
G01*
G04 APERTURE LIST*
%ADD10C,0.100000*%
G04 APERTURE END LIST*
D10*
G36*
X194548156Y-92672794D02*
G01*
X195269140Y-92816206D01*
X196060972Y-93144193D01*
X196773601Y-93620357D01*
X197379643Y-94226399D01*
X197855807Y-94939028D01*
X198183794Y-95730860D01*
X198351000Y-96571464D01*
X198351000Y-97428536D01*
X198183794Y-98269140D01*
X197855807Y-99060972D01*
X197379643Y-99773601D01*
X196773601Y-100379643D01*
X196060972Y-100855807D01*
X195269140Y-101183794D01*
X194548156Y-101327206D01*
X194428537Y-101351000D01*
X193571463Y-101351000D01*
X193451844Y-101327206D01*
X192730860Y-101183794D01*
X191939028Y-100855807D01*
X191226399Y-100379643D01*
X190620357Y-99773601D01*
X190144193Y-99060972D01*
X189816206Y-98269140D01*
X189649000Y-97428536D01*
X189649000Y-96571464D01*
X189816206Y-95730860D01*
X190144193Y-94939028D01*
X190620357Y-94226399D01*
X191226399Y-93620357D01*
X191939028Y-93144193D01*
X192730860Y-92816206D01*
X193451844Y-92672794D01*
X193571463Y-92649000D01*
X194428537Y-92649000D01*
X194548156Y-92672794D01*
G37*
G36*
X167548156Y-92672794D02*
G01*
X168269140Y-92816206D01*
X169060972Y-93144193D01*
X169773601Y-93620357D01*
X170379643Y-94226399D01*
X170855807Y-94939028D01*
X171183794Y-95730860D01*
X171351000Y-96571464D01*
X171351000Y-97428536D01*
X171183794Y-98269140D01*
X170855807Y-99060972D01*
X170379643Y-99773601D01*
X169773601Y-100379643D01*
X169060972Y-100855807D01*
X168269140Y-101183794D01*
X167548156Y-101327206D01*
X167428537Y-101351000D01*
X166571463Y-101351000D01*
X166451844Y-101327206D01*
X165730860Y-101183794D01*
X164939028Y-100855807D01*
X164226399Y-100379643D01*
X163620357Y-99773601D01*
X163144193Y-99060972D01*
X162816206Y-98269140D01*
X162649000Y-97428536D01*
X162649000Y-96571464D01*
X162816206Y-95730860D01*
X163144193Y-94939028D01*
X163620357Y-94226399D01*
X164226399Y-93620357D01*
X164939028Y-93144193D01*
X165730860Y-92816206D01*
X166451844Y-92672794D01*
X166571463Y-92649000D01*
X167428537Y-92649000D01*
X167548156Y-92672794D01*
G37*
G36*
X199591000Y-90051000D02*
G01*
X194409000Y-90051000D01*
X194409000Y-88449000D01*
X199591000Y-88449000D01*
X199591000Y-90051000D01*
G37*
G36*
X184777142Y-84218242D02*
G01*
X184925101Y-84279529D01*
X185058255Y-84368499D01*
X185171501Y-84481745D01*
X185260471Y-84614899D01*
X185321758Y-84762858D01*
X185353000Y-84919925D01*
X185353000Y-85080075D01*
X185321758Y-85237142D01*
X185260471Y-85385101D01*
X185171501Y-85518255D01*
X185058255Y-85631501D01*
X184925101Y-85720471D01*
X184777142Y-85781758D01*
X184620075Y-85813000D01*
X184459925Y-85813000D01*
X184302858Y-85781758D01*
X184154899Y-85720471D01*
X184021745Y-85631501D01*
X183908499Y-85518255D01*
X183819529Y-85385101D01*
X183758242Y-85237142D01*
X183727000Y-85080075D01*
X183727000Y-84919925D01*
X183758242Y-84762858D01*
X183819529Y-84614899D01*
X183908499Y-84481745D01*
X184021745Y-84368499D01*
X184154899Y-84279529D01*
X184302858Y-84218242D01*
X184459925Y-84187000D01*
X184620075Y-84187000D01*
X184777142Y-84218242D01*
G37*
G36*
X179697142Y-84218242D02*
G01*
X179845101Y-84279529D01*
X179978255Y-84368499D01*
X180091501Y-84481745D01*
X180180471Y-84614899D01*
X180241758Y-84762858D01*
X180273000Y-84919925D01*
X180273000Y-85080075D01*
X180241758Y-85237142D01*
X180180471Y-85385101D01*
X180091501Y-85518255D01*
X179978255Y-85631501D01*
X179845101Y-85720471D01*
X179697142Y-85781758D01*
X179540075Y-85813000D01*
X179379925Y-85813000D01*
X179222858Y-85781758D01*
X179074899Y-85720471D01*
X178941745Y-85631501D01*
X178828499Y-85518255D01*
X178739529Y-85385101D01*
X178678242Y-85237142D01*
X178647000Y-85080075D01*
X178647000Y-84919925D01*
X178678242Y-84762858D01*
X178739529Y-84614899D01*
X178828499Y-84481745D01*
X178941745Y-84368499D01*
X179074899Y-84279529D01*
X179222858Y-84218242D01*
X179379925Y-84187000D01*
X179540075Y-84187000D01*
X179697142Y-84218242D01*
G37*
G36*
X182237142Y-84218242D02*
G01*
X182385101Y-84279529D01*
X182518255Y-84368499D01*
X182631501Y-84481745D01*
X182720471Y-84614899D01*
X182781758Y-84762858D01*
X182813000Y-84919925D01*
X182813000Y-85080075D01*
X182781758Y-85237142D01*
X182720471Y-85385101D01*
X182631501Y-85518255D01*
X182518255Y-85631501D01*
X182385101Y-85720471D01*
X182237142Y-85781758D01*
X182080075Y-85813000D01*
X181919925Y-85813000D01*
X181762858Y-85781758D01*
X181614899Y-85720471D01*
X181481745Y-85631501D01*
X181368499Y-85518255D01*
X181279529Y-85385101D01*
X181218242Y-85237142D01*
X181187000Y-85080075D01*
X181187000Y-84919925D01*
X181218242Y-84762858D01*
X181279529Y-84614899D01*
X181368499Y-84481745D01*
X181481745Y-84368499D01*
X181614899Y-84279529D01*
X181762858Y-84218242D01*
X181919925Y-84187000D01*
X182080075Y-84187000D01*
X182237142Y-84218242D01*
G37*
G36*
X166591000Y-83551000D02*
G01*
X161409000Y-83551000D01*
X161409000Y-81949000D01*
X166591000Y-81949000D01*
X166591000Y-83551000D01*
G37*
G36*
X199591000Y-81551000D02*
G01*
X194409000Y-81551000D01*
X194409000Y-79949000D01*
X199591000Y-79949000D01*
X199591000Y-81551000D01*
G37*
G36*
X184777142Y-74218242D02*
G01*
X184925101Y-74279529D01*
X185058255Y-74368499D01*
X185171501Y-74481745D01*
X185260471Y-74614899D01*
X185321758Y-74762858D01*
X185353000Y-74919925D01*
X185353000Y-75080075D01*
X185321758Y-75237142D01*
X185260471Y-75385101D01*
X185171501Y-75518255D01*
X185058255Y-75631501D01*
X184925101Y-75720471D01*
X184777142Y-75781758D01*
X184620075Y-75813000D01*
X184459925Y-75813000D01*
X184302858Y-75781758D01*
X184154899Y-75720471D01*
X184021745Y-75631501D01*
X183908499Y-75518255D01*
X183819529Y-75385101D01*
X183758242Y-75237142D01*
X183727000Y-75080075D01*
X183727000Y-74919925D01*
X183758242Y-74762858D01*
X183819529Y-74614899D01*
X183908499Y-74481745D01*
X184021745Y-74368499D01*
X184154899Y-74279529D01*
X184302858Y-74218242D01*
X184459925Y-74187000D01*
X184620075Y-74187000D01*
X184777142Y-74218242D01*
G37*
G36*
X182237142Y-74218242D02*
G01*
X182385101Y-74279529D01*
X182518255Y-74368499D01*
X182631501Y-74481745D01*
X182720471Y-74614899D01*
X182781758Y-74762858D01*
X182813000Y-74919925D01*
X182813000Y-75080075D01*
X182781758Y-75237142D01*
X182720471Y-75385101D01*
X182631501Y-75518255D01*
X182518255Y-75631501D01*
X182385101Y-75720471D01*
X182237142Y-75781758D01*
X182080075Y-75813000D01*
X181919925Y-75813000D01*
X181762858Y-75781758D01*
X181614899Y-75720471D01*
X181481745Y-75631501D01*
X181368499Y-75518255D01*
X181279529Y-75385101D01*
X181218242Y-75237142D01*
X181187000Y-75080075D01*
X181187000Y-74919925D01*
X181218242Y-74762858D01*
X181279529Y-74614899D01*
X181368499Y-74481745D01*
X181481745Y-74368499D01*
X181614899Y-74279529D01*
X181762858Y-74218242D01*
X181919925Y-74187000D01*
X182080075Y-74187000D01*
X182237142Y-74218242D01*
G37*
G36*
X190323512Y-73603927D02*
G01*
X190472812Y-73633624D01*
X190636784Y-73701544D01*
X190784354Y-73800147D01*
X190909853Y-73925646D01*
X191008456Y-74073216D01*
X191076376Y-74237188D01*
X191111000Y-74411259D01*
X191111000Y-74588741D01*
X191076376Y-74762812D01*
X191008456Y-74926784D01*
X190909853Y-75074354D01*
X190784354Y-75199853D01*
X190636784Y-75298456D01*
X190472812Y-75366376D01*
X190323512Y-75396073D01*
X190298742Y-75401000D01*
X190121258Y-75401000D01*
X190096488Y-75396073D01*
X189947188Y-75366376D01*
X189783216Y-75298456D01*
X189635646Y-75199853D01*
X189510147Y-75074354D01*
X189411544Y-74926784D01*
X189343624Y-74762812D01*
X189309000Y-74588741D01*
X189309000Y-74411259D01*
X189343624Y-74237188D01*
X189411544Y-74073216D01*
X189510147Y-73925646D01*
X189635646Y-73800147D01*
X189783216Y-73701544D01*
X189947188Y-73633624D01*
X190096488Y-73603927D01*
X190121258Y-73599000D01*
X190298742Y-73599000D01*
X190323512Y-73603927D01*
G37*
G36*
X193651000Y-75401000D02*
G01*
X191849000Y-75401000D01*
X191849000Y-73599000D01*
X193651000Y-73599000D01*
X193651000Y-75401000D01*
G37*
G36*
X166591000Y-75051000D02*
G01*
X161409000Y-75051000D01*
X161409000Y-73449000D01*
X166591000Y-73449000D01*
X166591000Y-75051000D01*
G37*
G36*
X194548156Y-51672794D02*
G01*
X195269140Y-51816206D01*
X196060972Y-52144193D01*
X196773601Y-52620357D01*
X197379643Y-53226399D01*
X197855807Y-53939028D01*
X198183794Y-54730860D01*
X198351000Y-55571464D01*
X198351000Y-56428536D01*
X198183794Y-57269140D01*
X197855807Y-58060972D01*
X197379643Y-58773601D01*
X196773601Y-59379643D01*
X196060972Y-59855807D01*
X195269140Y-60183794D01*
X194548156Y-60327206D01*
X194428537Y-60351000D01*
X193571463Y-60351000D01*
X193451844Y-60327206D01*
X192730860Y-60183794D01*
X191939028Y-59855807D01*
X191226399Y-59379643D01*
X190620357Y-58773601D01*
X190144193Y-58060972D01*
X189816206Y-57269140D01*
X189649000Y-56428536D01*
X189649000Y-55571464D01*
X189816206Y-54730860D01*
X190144193Y-53939028D01*
X190620357Y-53226399D01*
X191226399Y-52620357D01*
X191939028Y-52144193D01*
X192730860Y-51816206D01*
X193451844Y-51672794D01*
X193571463Y-51649000D01*
X194428537Y-51649000D01*
X194548156Y-51672794D01*
G37*
G36*
X167548156Y-51672794D02*
G01*
X168269140Y-51816206D01*
X169060972Y-52144193D01*
X169773601Y-52620357D01*
X170379643Y-53226399D01*
X170855807Y-53939028D01*
X171183794Y-54730860D01*
X171351000Y-55571464D01*
X171351000Y-56428536D01*
X171183794Y-57269140D01*
X170855807Y-58060972D01*
X170379643Y-58773601D01*
X169773601Y-59379643D01*
X169060972Y-59855807D01*
X168269140Y-60183794D01*
X167548156Y-60327206D01*
X167428537Y-60351000D01*
X166571463Y-60351000D01*
X166451844Y-60327206D01*
X165730860Y-60183794D01*
X164939028Y-59855807D01*
X164226399Y-59379643D01*
X163620357Y-58773601D01*
X163144193Y-58060972D01*
X162816206Y-57269140D01*
X162649000Y-56428536D01*
X162649000Y-55571464D01*
X162816206Y-54730860D01*
X163144193Y-53939028D01*
X163620357Y-53226399D01*
X164226399Y-52620357D01*
X164939028Y-52144193D01*
X165730860Y-51816206D01*
X166451844Y-51672794D01*
X166571463Y-51649000D01*
X167428537Y-51649000D01*
X167548156Y-51672794D01*
G37*
G36*
X185051000Y-55091000D02*
G01*
X183449000Y-55091000D01*
X183449000Y-49909000D01*
X185051000Y-49909000D01*
X185051000Y-55091000D01*
G37*
G36*
X176551000Y-55091000D02*
G01*
X174949000Y-55091000D01*
X174949000Y-49909000D01*
X176551000Y-49909000D01*
X176551000Y-55091000D01*
G37*
M02*
