G04 #@! TF.GenerationSoftware,KiCad,Pcbnew,5.1.6-c6e7f7d~87~ubuntu18.04.1*
G04 #@! TF.CreationDate,2021-01-11T12:45:55+00:00*
G04 #@! TF.ProjectId,vary_resistance,76617279-5f72-4657-9369-7374616e6365,rev?*
G04 #@! TF.SameCoordinates,Original*
G04 #@! TF.FileFunction,Copper,L4,Bot*
G04 #@! TF.FilePolarity,Positive*
%FSLAX46Y46*%
G04 Gerber Fmt 4.6, Leading zero omitted, Abs format (unit mm)*
G04 Created by KiCad (PCBNEW 5.1.6-c6e7f7d~87~ubuntu18.04.1) date 2021-01-11 12:45:55*
%MOMM*%
%LPD*%
G01*
G04 APERTURE LIST*
G04 #@! TA.AperFunction,ComponentPad*
%ADD10C,0.900000*%
G04 #@! TD*
G04 #@! TA.AperFunction,ComponentPad*
%ADD11C,8.600000*%
G04 #@! TD*
G04 #@! TA.AperFunction,ComponentPad*
%ADD12O,1.700000X1.700000*%
G04 #@! TD*
G04 #@! TA.AperFunction,ComponentPad*
%ADD13R,1.700000X1.700000*%
G04 #@! TD*
G04 #@! TA.AperFunction,ComponentPad*
%ADD14C,1.524000*%
G04 #@! TD*
G04 #@! TA.AperFunction,SMDPad,CuDef*
%ADD15R,5.080000X1.500000*%
G04 #@! TD*
G04 #@! TA.AperFunction,SMDPad,CuDef*
%ADD16R,1.500000X5.080000*%
G04 #@! TD*
G04 #@! TA.AperFunction,ViaPad*
%ADD17C,0.800000*%
G04 #@! TD*
G04 #@! TA.AperFunction,Conductor*
%ADD18C,0.450000*%
G04 #@! TD*
G04 #@! TA.AperFunction,Conductor*
%ADD19C,0.025400*%
G04 #@! TD*
G04 APERTURE END LIST*
D10*
X169280419Y-94719581D03*
X167000000Y-93775000D03*
X164719581Y-94719581D03*
X163775000Y-97000000D03*
X164719581Y-99280419D03*
X167000000Y-100225000D03*
X169280419Y-99280419D03*
X170225000Y-97000000D03*
D11*
X167000000Y-97000000D03*
D10*
X196280419Y-94719581D03*
X194000000Y-93775000D03*
X191719581Y-94719581D03*
X190775000Y-97000000D03*
X191719581Y-99280419D03*
X194000000Y-100225000D03*
X196280419Y-99280419D03*
X197225000Y-97000000D03*
D11*
X194000000Y-97000000D03*
D12*
X190210000Y-74500000D03*
D13*
X192750000Y-74500000D03*
D14*
X184540000Y-75000000D03*
X182000000Y-75000000D03*
X184540000Y-85000000D03*
X182000000Y-85000000D03*
X179460000Y-85000000D03*
D15*
X164000000Y-82750000D03*
X164000000Y-74250000D03*
X197000000Y-80750000D03*
X197000000Y-89250000D03*
D16*
X175750000Y-52500000D03*
X184250000Y-52500000D03*
D10*
X169280419Y-53719581D03*
X167000000Y-52775000D03*
X164719581Y-53719581D03*
X163775000Y-56000000D03*
X164719581Y-58280419D03*
X167000000Y-59225000D03*
X169280419Y-58280419D03*
X170225000Y-56000000D03*
D11*
X167000000Y-56000000D03*
D10*
X196280419Y-53719581D03*
X194000000Y-52775000D03*
X191719581Y-53719581D03*
X190775000Y-56000000D03*
X191719581Y-58280419D03*
X194000000Y-59225000D03*
X196280419Y-58280419D03*
X197225000Y-56000000D03*
D11*
X194000000Y-56000000D03*
D17*
X180000000Y-101000000D03*
X176000000Y-101000000D03*
X174000000Y-101000000D03*
X178000000Y-101000000D03*
X172000000Y-101000000D03*
X184000000Y-101000000D03*
X182000000Y-101000000D03*
X186000000Y-101000000D03*
X188000000Y-101000000D03*
X162500000Y-91370000D03*
X162500000Y-95370000D03*
X162500000Y-93370000D03*
X162500000Y-85500000D03*
X162500000Y-89370000D03*
X162500000Y-87370000D03*
X199000000Y-75000000D03*
X199000000Y-77000000D03*
X199000000Y-79000000D03*
X199000000Y-73000000D03*
X199000000Y-61000000D03*
X199000000Y-59000000D03*
X190000000Y-51000000D03*
X171000000Y-51000000D03*
X173000000Y-51000000D03*
X167000000Y-51000000D03*
X169000000Y-51000000D03*
X163000000Y-60000000D03*
X163000000Y-62000000D03*
X163000000Y-64000000D03*
X163000000Y-66000000D03*
X163000000Y-70000000D03*
X163000000Y-68000000D03*
X192000000Y-51000000D03*
X199000000Y-81000000D03*
X199000000Y-91000000D03*
X188000000Y-51000000D03*
X186000000Y-51000000D03*
X199000000Y-71000000D03*
X199000000Y-69000000D03*
X199000000Y-67000000D03*
X199000000Y-65000000D03*
X199000000Y-63000000D03*
X172000000Y-64500000D03*
X167750000Y-74250000D03*
X167750000Y-82750000D03*
X176000000Y-74500000D03*
X176250000Y-76500000D03*
X179500000Y-71500000D03*
X182000000Y-80500000D03*
X193500000Y-80750000D03*
X193500000Y-89250000D03*
X192250000Y-78250000D03*
X173750000Y-52500000D03*
X189750000Y-91250000D03*
X190750000Y-91250000D03*
X199000000Y-92750000D03*
X167500000Y-77000000D03*
X167500000Y-78500000D03*
X167500000Y-80000000D03*
D18*
X164000000Y-74250000D02*
X167750000Y-74250000D01*
X167750000Y-82750000D02*
X164000000Y-82750000D01*
X193500000Y-80750000D02*
X197000000Y-80750000D01*
X197000000Y-89250000D02*
X193500000Y-89250000D01*
X173750000Y-52500000D02*
X175074990Y-52500000D01*
D19*
G36*
X167924574Y-74250000D02*
G01*
X167465023Y-74514949D01*
X167456805Y-74509164D01*
X167454282Y-74507786D01*
X167431305Y-74498436D01*
X167429773Y-74497923D01*
X167398664Y-74489673D01*
X167397686Y-74489455D01*
X167358448Y-74482305D01*
X167357780Y-74482201D01*
X167310411Y-74476151D01*
X167309930Y-74476099D01*
X167254430Y-74471149D01*
X167254069Y-74471122D01*
X167190439Y-74467272D01*
X167190158Y-74467258D01*
X167118398Y-74464508D01*
X167118174Y-74464502D01*
X167038283Y-74462852D01*
X167038100Y-74462849D01*
X166962700Y-74462378D01*
X166962700Y-74037622D01*
X167038100Y-74037150D01*
X167038283Y-74037147D01*
X167118174Y-74035497D01*
X167118398Y-74035491D01*
X167190158Y-74032741D01*
X167190439Y-74032727D01*
X167254069Y-74028877D01*
X167254430Y-74028850D01*
X167309930Y-74023900D01*
X167310411Y-74023848D01*
X167357780Y-74017798D01*
X167358448Y-74017694D01*
X167397686Y-74010544D01*
X167398664Y-74010326D01*
X167429773Y-74002076D01*
X167431305Y-74001563D01*
X167454282Y-73992213D01*
X167456804Y-73990836D01*
X167465023Y-73985051D01*
X167924574Y-74250000D01*
G37*
X167924574Y-74250000D02*
X167465023Y-74514949D01*
X167456805Y-74509164D01*
X167454282Y-74507786D01*
X167431305Y-74498436D01*
X167429773Y-74497923D01*
X167398664Y-74489673D01*
X167397686Y-74489455D01*
X167358448Y-74482305D01*
X167357780Y-74482201D01*
X167310411Y-74476151D01*
X167309930Y-74476099D01*
X167254430Y-74471149D01*
X167254069Y-74471122D01*
X167190439Y-74467272D01*
X167190158Y-74467258D01*
X167118398Y-74464508D01*
X167118174Y-74464502D01*
X167038283Y-74462852D01*
X167038100Y-74462849D01*
X166962700Y-74462378D01*
X166962700Y-74037622D01*
X167038100Y-74037150D01*
X167038283Y-74037147D01*
X167118174Y-74035497D01*
X167118398Y-74035491D01*
X167190158Y-74032741D01*
X167190439Y-74032727D01*
X167254069Y-74028877D01*
X167254430Y-74028850D01*
X167309930Y-74023900D01*
X167310411Y-74023848D01*
X167357780Y-74017798D01*
X167358448Y-74017694D01*
X167397686Y-74010544D01*
X167398664Y-74010326D01*
X167429773Y-74002076D01*
X167431305Y-74001563D01*
X167454282Y-73992213D01*
X167456804Y-73990836D01*
X167465023Y-73985051D01*
X167924574Y-74250000D01*
G36*
X164589629Y-73791389D02*
G01*
X164590709Y-73792270D01*
X164660809Y-73843270D01*
X164661912Y-73843987D01*
X164739537Y-73888987D01*
X164740618Y-73889547D01*
X164825769Y-73928547D01*
X164826797Y-73928964D01*
X164919474Y-73961964D01*
X164920430Y-73962263D01*
X165020632Y-73989263D01*
X165021506Y-73989465D01*
X165129233Y-74010465D01*
X165130024Y-74010594D01*
X165245278Y-74025594D01*
X165245989Y-74025666D01*
X165368767Y-74034666D01*
X165369403Y-74034697D01*
X165487300Y-74037411D01*
X165487300Y-74462589D01*
X165369403Y-74465303D01*
X165368767Y-74465334D01*
X165245989Y-74474334D01*
X165245278Y-74474406D01*
X165130024Y-74489406D01*
X165129233Y-74489535D01*
X165021506Y-74510535D01*
X165020632Y-74510737D01*
X164920430Y-74537737D01*
X164919474Y-74538036D01*
X164826797Y-74571036D01*
X164825769Y-74571453D01*
X164740618Y-74610453D01*
X164739537Y-74611013D01*
X164661912Y-74656013D01*
X164660809Y-74656730D01*
X164590709Y-74707730D01*
X164589629Y-74708611D01*
X164533913Y-74759364D01*
X163650426Y-74250000D01*
X164533913Y-73740636D01*
X164589629Y-73791389D01*
G37*
X164589629Y-73791389D02*
X164590709Y-73792270D01*
X164660809Y-73843270D01*
X164661912Y-73843987D01*
X164739537Y-73888987D01*
X164740618Y-73889547D01*
X164825769Y-73928547D01*
X164826797Y-73928964D01*
X164919474Y-73961964D01*
X164920430Y-73962263D01*
X165020632Y-73989263D01*
X165021506Y-73989465D01*
X165129233Y-74010465D01*
X165130024Y-74010594D01*
X165245278Y-74025594D01*
X165245989Y-74025666D01*
X165368767Y-74034666D01*
X165369403Y-74034697D01*
X165487300Y-74037411D01*
X165487300Y-74462589D01*
X165369403Y-74465303D01*
X165368767Y-74465334D01*
X165245989Y-74474334D01*
X165245278Y-74474406D01*
X165130024Y-74489406D01*
X165129233Y-74489535D01*
X165021506Y-74510535D01*
X165020632Y-74510737D01*
X164920430Y-74537737D01*
X164919474Y-74538036D01*
X164826797Y-74571036D01*
X164825769Y-74571453D01*
X164740618Y-74610453D01*
X164739537Y-74611013D01*
X164661912Y-74656013D01*
X164660809Y-74656730D01*
X164590709Y-74707730D01*
X164589629Y-74708611D01*
X164533913Y-74759364D01*
X163650426Y-74250000D01*
X164533913Y-73740636D01*
X164589629Y-73791389D01*
G36*
X167924574Y-82750000D02*
G01*
X167465023Y-83014949D01*
X167456805Y-83009164D01*
X167454282Y-83007786D01*
X167431305Y-82998436D01*
X167429773Y-82997923D01*
X167398664Y-82989673D01*
X167397686Y-82989455D01*
X167358448Y-82982305D01*
X167357780Y-82982201D01*
X167310411Y-82976151D01*
X167309930Y-82976099D01*
X167254430Y-82971149D01*
X167254069Y-82971122D01*
X167190439Y-82967272D01*
X167190158Y-82967258D01*
X167118398Y-82964508D01*
X167118174Y-82964502D01*
X167038283Y-82962852D01*
X167038100Y-82962849D01*
X166962700Y-82962378D01*
X166962700Y-82537622D01*
X167038100Y-82537150D01*
X167038283Y-82537147D01*
X167118174Y-82535497D01*
X167118398Y-82535491D01*
X167190158Y-82532741D01*
X167190439Y-82532727D01*
X167254069Y-82528877D01*
X167254430Y-82528850D01*
X167309930Y-82523900D01*
X167310411Y-82523848D01*
X167357780Y-82517798D01*
X167358448Y-82517694D01*
X167397686Y-82510544D01*
X167398664Y-82510326D01*
X167429773Y-82502076D01*
X167431305Y-82501563D01*
X167454282Y-82492213D01*
X167456804Y-82490836D01*
X167465023Y-82485051D01*
X167924574Y-82750000D01*
G37*
X167924574Y-82750000D02*
X167465023Y-83014949D01*
X167456805Y-83009164D01*
X167454282Y-83007786D01*
X167431305Y-82998436D01*
X167429773Y-82997923D01*
X167398664Y-82989673D01*
X167397686Y-82989455D01*
X167358448Y-82982305D01*
X167357780Y-82982201D01*
X167310411Y-82976151D01*
X167309930Y-82976099D01*
X167254430Y-82971149D01*
X167254069Y-82971122D01*
X167190439Y-82967272D01*
X167190158Y-82967258D01*
X167118398Y-82964508D01*
X167118174Y-82964502D01*
X167038283Y-82962852D01*
X167038100Y-82962849D01*
X166962700Y-82962378D01*
X166962700Y-82537622D01*
X167038100Y-82537150D01*
X167038283Y-82537147D01*
X167118174Y-82535497D01*
X167118398Y-82535491D01*
X167190158Y-82532741D01*
X167190439Y-82532727D01*
X167254069Y-82528877D01*
X167254430Y-82528850D01*
X167309930Y-82523900D01*
X167310411Y-82523848D01*
X167357780Y-82517798D01*
X167358448Y-82517694D01*
X167397686Y-82510544D01*
X167398664Y-82510326D01*
X167429773Y-82502076D01*
X167431305Y-82501563D01*
X167454282Y-82492213D01*
X167456804Y-82490836D01*
X167465023Y-82485051D01*
X167924574Y-82750000D01*
G36*
X164589629Y-82291389D02*
G01*
X164590709Y-82292270D01*
X164660809Y-82343270D01*
X164661912Y-82343987D01*
X164739537Y-82388987D01*
X164740618Y-82389547D01*
X164825769Y-82428547D01*
X164826797Y-82428964D01*
X164919474Y-82461964D01*
X164920430Y-82462263D01*
X165020632Y-82489263D01*
X165021506Y-82489465D01*
X165129233Y-82510465D01*
X165130024Y-82510594D01*
X165245278Y-82525594D01*
X165245989Y-82525666D01*
X165368767Y-82534666D01*
X165369403Y-82534697D01*
X165487300Y-82537411D01*
X165487300Y-82962589D01*
X165369403Y-82965303D01*
X165368767Y-82965334D01*
X165245989Y-82974334D01*
X165245278Y-82974406D01*
X165130024Y-82989406D01*
X165129233Y-82989535D01*
X165021506Y-83010535D01*
X165020632Y-83010737D01*
X164920430Y-83037737D01*
X164919474Y-83038036D01*
X164826797Y-83071036D01*
X164825769Y-83071453D01*
X164740618Y-83110453D01*
X164739537Y-83111013D01*
X164661912Y-83156013D01*
X164660809Y-83156730D01*
X164590709Y-83207730D01*
X164589629Y-83208611D01*
X164533913Y-83259364D01*
X163650426Y-82750000D01*
X164533913Y-82240636D01*
X164589629Y-82291389D01*
G37*
X164589629Y-82291389D02*
X164590709Y-82292270D01*
X164660809Y-82343270D01*
X164661912Y-82343987D01*
X164739537Y-82388987D01*
X164740618Y-82389547D01*
X164825769Y-82428547D01*
X164826797Y-82428964D01*
X164919474Y-82461964D01*
X164920430Y-82462263D01*
X165020632Y-82489263D01*
X165021506Y-82489465D01*
X165129233Y-82510465D01*
X165130024Y-82510594D01*
X165245278Y-82525594D01*
X165245989Y-82525666D01*
X165368767Y-82534666D01*
X165369403Y-82534697D01*
X165487300Y-82537411D01*
X165487300Y-82962589D01*
X165369403Y-82965303D01*
X165368767Y-82965334D01*
X165245989Y-82974334D01*
X165245278Y-82974406D01*
X165130024Y-82989406D01*
X165129233Y-82989535D01*
X165021506Y-83010535D01*
X165020632Y-83010737D01*
X164920430Y-83037737D01*
X164919474Y-83038036D01*
X164826797Y-83071036D01*
X164825769Y-83071453D01*
X164740618Y-83110453D01*
X164739537Y-83111013D01*
X164661912Y-83156013D01*
X164660809Y-83156730D01*
X164590709Y-83207730D01*
X164589629Y-83208611D01*
X164533913Y-83259364D01*
X163650426Y-82750000D01*
X164533913Y-82240636D01*
X164589629Y-82291389D01*
G36*
X193793194Y-80490835D02*
G01*
X193795717Y-80492213D01*
X193818694Y-80501563D01*
X193820226Y-80502076D01*
X193851335Y-80510326D01*
X193852313Y-80510544D01*
X193891551Y-80517694D01*
X193892219Y-80517798D01*
X193939588Y-80523848D01*
X193940069Y-80523900D01*
X193995569Y-80528850D01*
X193995930Y-80528877D01*
X194059560Y-80532727D01*
X194059841Y-80532741D01*
X194131601Y-80535491D01*
X194131825Y-80535497D01*
X194211716Y-80537147D01*
X194211899Y-80537150D01*
X194287300Y-80537622D01*
X194287300Y-80962378D01*
X194211899Y-80962849D01*
X194211716Y-80962852D01*
X194131825Y-80964502D01*
X194131601Y-80964508D01*
X194059841Y-80967258D01*
X194059560Y-80967272D01*
X193995930Y-80971122D01*
X193995569Y-80971149D01*
X193940069Y-80976099D01*
X193939588Y-80976151D01*
X193892219Y-80982201D01*
X193891551Y-80982305D01*
X193852313Y-80989455D01*
X193851335Y-80989673D01*
X193820226Y-80997923D01*
X193818694Y-80998436D01*
X193795717Y-81007786D01*
X193793194Y-81009164D01*
X193784976Y-81014949D01*
X193325426Y-80750000D01*
X193784977Y-80485051D01*
X193793194Y-80490835D01*
G37*
X193793194Y-80490835D02*
X193795717Y-80492213D01*
X193818694Y-80501563D01*
X193820226Y-80502076D01*
X193851335Y-80510326D01*
X193852313Y-80510544D01*
X193891551Y-80517694D01*
X193892219Y-80517798D01*
X193939588Y-80523848D01*
X193940069Y-80523900D01*
X193995569Y-80528850D01*
X193995930Y-80528877D01*
X194059560Y-80532727D01*
X194059841Y-80532741D01*
X194131601Y-80535491D01*
X194131825Y-80535497D01*
X194211716Y-80537147D01*
X194211899Y-80537150D01*
X194287300Y-80537622D01*
X194287300Y-80962378D01*
X194211899Y-80962849D01*
X194211716Y-80962852D01*
X194131825Y-80964502D01*
X194131601Y-80964508D01*
X194059841Y-80967258D01*
X194059560Y-80967272D01*
X193995930Y-80971122D01*
X193995569Y-80971149D01*
X193940069Y-80976099D01*
X193939588Y-80976151D01*
X193892219Y-80982201D01*
X193891551Y-80982305D01*
X193852313Y-80989455D01*
X193851335Y-80989673D01*
X193820226Y-80997923D01*
X193818694Y-80998436D01*
X193795717Y-81007786D01*
X193793194Y-81009164D01*
X193784976Y-81014949D01*
X193325426Y-80750000D01*
X193784977Y-80485051D01*
X193793194Y-80490835D01*
G36*
X197349574Y-80750000D02*
G01*
X196466087Y-81259364D01*
X196410370Y-81208611D01*
X196409290Y-81207730D01*
X196339190Y-81156730D01*
X196338087Y-81156013D01*
X196260462Y-81111013D01*
X196259381Y-81110453D01*
X196174230Y-81071453D01*
X196173202Y-81071036D01*
X196080525Y-81038036D01*
X196079569Y-81037737D01*
X195979367Y-81010737D01*
X195978493Y-81010535D01*
X195870766Y-80989535D01*
X195869975Y-80989406D01*
X195754721Y-80974406D01*
X195754010Y-80974334D01*
X195631232Y-80965334D01*
X195630596Y-80965303D01*
X195512700Y-80962589D01*
X195512700Y-80537411D01*
X195630596Y-80534697D01*
X195631232Y-80534666D01*
X195754010Y-80525666D01*
X195754721Y-80525594D01*
X195869975Y-80510594D01*
X195870766Y-80510465D01*
X195978493Y-80489465D01*
X195979367Y-80489263D01*
X196079569Y-80462263D01*
X196080525Y-80461964D01*
X196173202Y-80428964D01*
X196174230Y-80428547D01*
X196259381Y-80389547D01*
X196260462Y-80388987D01*
X196338087Y-80343987D01*
X196339190Y-80343270D01*
X196409290Y-80292270D01*
X196410370Y-80291389D01*
X196466087Y-80240636D01*
X197349574Y-80750000D01*
G37*
X197349574Y-80750000D02*
X196466087Y-81259364D01*
X196410370Y-81208611D01*
X196409290Y-81207730D01*
X196339190Y-81156730D01*
X196338087Y-81156013D01*
X196260462Y-81111013D01*
X196259381Y-81110453D01*
X196174230Y-81071453D01*
X196173202Y-81071036D01*
X196080525Y-81038036D01*
X196079569Y-81037737D01*
X195979367Y-81010737D01*
X195978493Y-81010535D01*
X195870766Y-80989535D01*
X195869975Y-80989406D01*
X195754721Y-80974406D01*
X195754010Y-80974334D01*
X195631232Y-80965334D01*
X195630596Y-80965303D01*
X195512700Y-80962589D01*
X195512700Y-80537411D01*
X195630596Y-80534697D01*
X195631232Y-80534666D01*
X195754010Y-80525666D01*
X195754721Y-80525594D01*
X195869975Y-80510594D01*
X195870766Y-80510465D01*
X195978493Y-80489465D01*
X195979367Y-80489263D01*
X196079569Y-80462263D01*
X196080525Y-80461964D01*
X196173202Y-80428964D01*
X196174230Y-80428547D01*
X196259381Y-80389547D01*
X196260462Y-80388987D01*
X196338087Y-80343987D01*
X196339190Y-80343270D01*
X196409290Y-80292270D01*
X196410370Y-80291389D01*
X196466087Y-80240636D01*
X197349574Y-80750000D01*
G36*
X193793194Y-88990835D02*
G01*
X193795717Y-88992213D01*
X193818694Y-89001563D01*
X193820226Y-89002076D01*
X193851335Y-89010326D01*
X193852313Y-89010544D01*
X193891551Y-89017694D01*
X193892219Y-89017798D01*
X193939588Y-89023848D01*
X193940069Y-89023900D01*
X193995569Y-89028850D01*
X193995930Y-89028877D01*
X194059560Y-89032727D01*
X194059841Y-89032741D01*
X194131601Y-89035491D01*
X194131825Y-89035497D01*
X194211716Y-89037147D01*
X194211899Y-89037150D01*
X194287300Y-89037622D01*
X194287300Y-89462378D01*
X194211899Y-89462849D01*
X194211716Y-89462852D01*
X194131825Y-89464502D01*
X194131601Y-89464508D01*
X194059841Y-89467258D01*
X194059560Y-89467272D01*
X193995930Y-89471122D01*
X193995569Y-89471149D01*
X193940069Y-89476099D01*
X193939588Y-89476151D01*
X193892219Y-89482201D01*
X193891551Y-89482305D01*
X193852313Y-89489455D01*
X193851335Y-89489673D01*
X193820226Y-89497923D01*
X193818694Y-89498436D01*
X193795717Y-89507786D01*
X193793194Y-89509164D01*
X193784976Y-89514949D01*
X193325426Y-89250000D01*
X193784977Y-88985051D01*
X193793194Y-88990835D01*
G37*
X193793194Y-88990835D02*
X193795717Y-88992213D01*
X193818694Y-89001563D01*
X193820226Y-89002076D01*
X193851335Y-89010326D01*
X193852313Y-89010544D01*
X193891551Y-89017694D01*
X193892219Y-89017798D01*
X193939588Y-89023848D01*
X193940069Y-89023900D01*
X193995569Y-89028850D01*
X193995930Y-89028877D01*
X194059560Y-89032727D01*
X194059841Y-89032741D01*
X194131601Y-89035491D01*
X194131825Y-89035497D01*
X194211716Y-89037147D01*
X194211899Y-89037150D01*
X194287300Y-89037622D01*
X194287300Y-89462378D01*
X194211899Y-89462849D01*
X194211716Y-89462852D01*
X194131825Y-89464502D01*
X194131601Y-89464508D01*
X194059841Y-89467258D01*
X194059560Y-89467272D01*
X193995930Y-89471122D01*
X193995569Y-89471149D01*
X193940069Y-89476099D01*
X193939588Y-89476151D01*
X193892219Y-89482201D01*
X193891551Y-89482305D01*
X193852313Y-89489455D01*
X193851335Y-89489673D01*
X193820226Y-89497923D01*
X193818694Y-89498436D01*
X193795717Y-89507786D01*
X193793194Y-89509164D01*
X193784976Y-89514949D01*
X193325426Y-89250000D01*
X193784977Y-88985051D01*
X193793194Y-88990835D01*
G36*
X197349574Y-89250000D02*
G01*
X196466087Y-89759364D01*
X196410370Y-89708611D01*
X196409290Y-89707730D01*
X196339190Y-89656730D01*
X196338087Y-89656013D01*
X196260462Y-89611013D01*
X196259381Y-89610453D01*
X196174230Y-89571453D01*
X196173202Y-89571036D01*
X196080525Y-89538036D01*
X196079569Y-89537737D01*
X195979367Y-89510737D01*
X195978493Y-89510535D01*
X195870766Y-89489535D01*
X195869975Y-89489406D01*
X195754721Y-89474406D01*
X195754010Y-89474334D01*
X195631232Y-89465334D01*
X195630596Y-89465303D01*
X195512700Y-89462589D01*
X195512700Y-89037411D01*
X195630596Y-89034697D01*
X195631232Y-89034666D01*
X195754010Y-89025666D01*
X195754721Y-89025594D01*
X195869975Y-89010594D01*
X195870766Y-89010465D01*
X195978493Y-88989465D01*
X195979367Y-88989263D01*
X196079569Y-88962263D01*
X196080525Y-88961964D01*
X196173202Y-88928964D01*
X196174230Y-88928547D01*
X196259381Y-88889547D01*
X196260462Y-88888987D01*
X196338087Y-88843987D01*
X196339190Y-88843270D01*
X196409290Y-88792270D01*
X196410370Y-88791389D01*
X196466087Y-88740636D01*
X197349574Y-89250000D01*
G37*
X197349574Y-89250000D02*
X196466087Y-89759364D01*
X196410370Y-89708611D01*
X196409290Y-89707730D01*
X196339190Y-89656730D01*
X196338087Y-89656013D01*
X196260462Y-89611013D01*
X196259381Y-89610453D01*
X196174230Y-89571453D01*
X196173202Y-89571036D01*
X196080525Y-89538036D01*
X196079569Y-89537737D01*
X195979367Y-89510737D01*
X195978493Y-89510535D01*
X195870766Y-89489535D01*
X195869975Y-89489406D01*
X195754721Y-89474406D01*
X195754010Y-89474334D01*
X195631232Y-89465334D01*
X195630596Y-89465303D01*
X195512700Y-89462589D01*
X195512700Y-89037411D01*
X195630596Y-89034697D01*
X195631232Y-89034666D01*
X195754010Y-89025666D01*
X195754721Y-89025594D01*
X195869975Y-89010594D01*
X195870766Y-89010465D01*
X195978493Y-88989465D01*
X195979367Y-88989263D01*
X196079569Y-88962263D01*
X196080525Y-88961964D01*
X196173202Y-88928964D01*
X196174230Y-88928547D01*
X196259381Y-88889547D01*
X196260462Y-88888987D01*
X196338087Y-88843987D01*
X196339190Y-88843270D01*
X196409290Y-88792270D01*
X196410370Y-88791389D01*
X196466087Y-88740636D01*
X197349574Y-89250000D01*
G36*
X174043194Y-52240835D02*
G01*
X174045717Y-52242213D01*
X174068694Y-52251563D01*
X174070226Y-52252076D01*
X174101335Y-52260326D01*
X174102313Y-52260544D01*
X174141551Y-52267694D01*
X174142219Y-52267798D01*
X174189588Y-52273848D01*
X174190069Y-52273900D01*
X174245569Y-52278850D01*
X174245930Y-52278877D01*
X174309560Y-52282727D01*
X174309841Y-52282741D01*
X174381601Y-52285491D01*
X174381825Y-52285497D01*
X174461716Y-52287147D01*
X174461899Y-52287150D01*
X174537300Y-52287622D01*
X174537300Y-52712378D01*
X174461899Y-52712849D01*
X174461716Y-52712852D01*
X174381825Y-52714502D01*
X174381601Y-52714508D01*
X174309841Y-52717258D01*
X174309560Y-52717272D01*
X174245930Y-52721122D01*
X174245569Y-52721149D01*
X174190069Y-52726099D01*
X174189588Y-52726151D01*
X174142219Y-52732201D01*
X174141551Y-52732305D01*
X174102313Y-52739455D01*
X174101335Y-52739673D01*
X174070226Y-52747923D01*
X174068694Y-52748436D01*
X174045717Y-52757786D01*
X174043194Y-52759164D01*
X174034976Y-52764949D01*
X173575426Y-52500000D01*
X174034977Y-52235051D01*
X174043194Y-52240835D01*
G37*
X174043194Y-52240835D02*
X174045717Y-52242213D01*
X174068694Y-52251563D01*
X174070226Y-52252076D01*
X174101335Y-52260326D01*
X174102313Y-52260544D01*
X174141551Y-52267694D01*
X174142219Y-52267798D01*
X174189588Y-52273848D01*
X174190069Y-52273900D01*
X174245569Y-52278850D01*
X174245930Y-52278877D01*
X174309560Y-52282727D01*
X174309841Y-52282741D01*
X174381601Y-52285491D01*
X174381825Y-52285497D01*
X174461716Y-52287147D01*
X174461899Y-52287150D01*
X174537300Y-52287622D01*
X174537300Y-52712378D01*
X174461899Y-52712849D01*
X174461716Y-52712852D01*
X174381825Y-52714502D01*
X174381601Y-52714508D01*
X174309841Y-52717258D01*
X174309560Y-52717272D01*
X174245930Y-52721122D01*
X174245569Y-52721149D01*
X174190069Y-52726099D01*
X174189588Y-52726151D01*
X174142219Y-52732201D01*
X174141551Y-52732305D01*
X174102313Y-52739455D01*
X174101335Y-52739673D01*
X174070226Y-52747923D01*
X174068694Y-52748436D01*
X174045717Y-52757786D01*
X174043194Y-52759164D01*
X174034976Y-52764949D01*
X173575426Y-52500000D01*
X174034977Y-52235051D01*
X174043194Y-52240835D01*
M02*
