M48
; DRILL file {KiCad 5.1.6-c6e7f7d~87~ubuntu18.04.1} date Mon Jan 11 12:45:57 2021
; FORMAT={-:-/ absolute / inch / decimal}
; #@! TF.CreationDate,2021-01-11T12:45:57+00:00
; #@! TF.GenerationSoftware,Kicad,Pcbnew,5.1.6-c6e7f7d~87~ubuntu18.04.1
; #@! TF.FileFunction,Plated,1,4,PTH
FMAT,2
INCH
T1C0.0157
T2C0.0236
T3C0.0394
T4C0.0400
T5C0.1693
%
G90
G05
T1
X6.3976Y-3.3661
X6.3976Y-3.4398
X6.3976Y-3.5185
X6.3976Y-3.5972
X6.3976Y-3.676
X6.3976Y-3.7547
X6.4173Y-2.3622
X6.4173Y-2.4409
X6.4173Y-2.5197
X6.4173Y-2.5984
X6.4173Y-2.6772
X6.4173Y-2.7559
X6.5748Y-2.0079
X6.5945Y-3.0315
X6.5945Y-3.0906
X6.5945Y-3.1496
X6.6043Y-2.9232
X6.6043Y-3.2579
X6.6535Y-2.0079
X6.7323Y-2.0079
X6.7717Y-2.5394
X6.7717Y-3.9764
X6.811Y-2.0079
X6.8406Y-2.0669
X6.8504Y-3.9764
X6.9291Y-2.9331
X6.9291Y-3.9764
X6.939Y-3.0118
X7.0079Y-3.9764
X7.0669Y-2.815
X7.0866Y-3.9764
X7.1654Y-3.1693
X7.1654Y-3.9764
X7.2441Y-3.9764
X7.3228Y-2.0079
X7.3228Y-3.9764
X7.4016Y-2.0079
X7.4016Y-3.9764
X7.4705Y-3.5925
X7.4803Y-2.0079
X7.5098Y-3.5925
X7.5591Y-2.0079
X7.5689Y-3.0807
X7.6181Y-3.1791
X7.6181Y-3.5138
X7.8346Y-2.3228
X7.8346Y-2.4016
X7.8346Y-2.4803
X7.8346Y-2.5591
X7.8346Y-2.6378
X7.8346Y-2.7165
X7.8346Y-2.7953
X7.8346Y-2.874
X7.8346Y-2.9528
X7.8346Y-3.0315
X7.8346Y-3.1102
X7.8346Y-3.189
X7.8346Y-3.5827
X7.8346Y-3.6516
T2
X6.4478Y-3.8189
X6.485Y-3.7291
X6.485Y-3.9087
X6.5748Y-3.6919
X6.5748Y-3.9459
X6.6646Y-3.7291
X6.6646Y-3.9087
X6.7018Y-3.8189
X7.5108Y-3.8189
X7.548Y-3.7291
X7.548Y-3.9087
X7.6378Y-3.6919
X7.6378Y-3.9459
X7.7276Y-3.7291
X7.7276Y-3.9087
X7.7648Y-3.8189
X6.4478Y-2.2047
X6.485Y-2.1149
X6.485Y-2.2945
X6.5748Y-2.0778
X6.5748Y-2.3317
X6.6646Y-2.1149
X6.6646Y-2.2945
X6.7018Y-2.2047
X7.5108Y-2.2047
X7.548Y-2.1149
X7.548Y-2.2945
X7.6378Y-2.0778
X7.6378Y-2.3317
X7.7276Y-2.1149
X7.7276Y-2.2945
X7.7648Y-2.2047
T3
X7.4886Y-2.9331
X7.5886Y-2.9331
T4
X7.0654Y-3.3465
X7.1654Y-2.9528
X7.1654Y-3.3465
X7.2654Y-2.9528
X7.2654Y-3.3465
T5
X6.5748Y-2.2047
X6.5748Y-3.8189
X7.6378Y-3.8189
X7.6378Y-2.2047
T0
M30
