G04 #@! TF.GenerationSoftware,KiCad,Pcbnew,5.1.6-c6e7f7d~87~ubuntu18.04.1*
G04 #@! TF.CreationDate,2021-01-11T12:45:55+00:00*
G04 #@! TF.ProjectId,vary_resistance,76617279-5f72-4657-9369-7374616e6365,rev?*
G04 #@! TF.SameCoordinates,Original*
G04 #@! TF.FileFunction,Copper,L1,Top*
G04 #@! TF.FilePolarity,Positive*
%FSLAX46Y46*%
G04 Gerber Fmt 4.6, Leading zero omitted, Abs format (unit mm)*
G04 Created by KiCad (PCBNEW 5.1.6-c6e7f7d~87~ubuntu18.04.1) date 2021-01-11 12:45:55*
%MOMM*%
%LPD*%
G01*
G04 APERTURE LIST*
G04 #@! TA.AperFunction,ComponentPad*
%ADD10C,0.900000*%
G04 #@! TD*
G04 #@! TA.AperFunction,ComponentPad*
%ADD11C,8.600000*%
G04 #@! TD*
G04 #@! TA.AperFunction,SMDPad,CuDef*
%ADD12R,4.000000X4.000000*%
G04 #@! TD*
G04 #@! TA.AperFunction,ComponentPad*
%ADD13O,1.700000X1.700000*%
G04 #@! TD*
G04 #@! TA.AperFunction,ComponentPad*
%ADD14R,1.700000X1.700000*%
G04 #@! TD*
G04 #@! TA.AperFunction,ComponentPad*
%ADD15C,1.524000*%
G04 #@! TD*
G04 #@! TA.AperFunction,SMDPad,CuDef*
%ADD16R,1.300000X1.300000*%
G04 #@! TD*
G04 #@! TA.AperFunction,SMDPad,CuDef*
%ADD17R,2.000000X1.300000*%
G04 #@! TD*
G04 #@! TA.AperFunction,SMDPad,CuDef*
%ADD18R,5.080000X1.500000*%
G04 #@! TD*
G04 #@! TA.AperFunction,SMDPad,CuDef*
%ADD19R,1.500000X5.080000*%
G04 #@! TD*
G04 #@! TA.AperFunction,ViaPad*
%ADD20C,0.800000*%
G04 #@! TD*
G04 #@! TA.AperFunction,Conductor*
%ADD21C,0.450000*%
G04 #@! TD*
G04 #@! TA.AperFunction,Conductor*
%ADD22C,0.250000*%
G04 #@! TD*
G04 #@! TA.AperFunction,Conductor*
%ADD23C,0.350000*%
G04 #@! TD*
G04 #@! TA.AperFunction,Conductor*
%ADD24C,0.254000*%
G04 #@! TD*
G04 #@! TA.AperFunction,Conductor*
%ADD25C,0.025400*%
G04 #@! TD*
G04 APERTURE END LIST*
D10*
X169280419Y-94719581D03*
X167000000Y-93775000D03*
X164719581Y-94719581D03*
X163775000Y-97000000D03*
X164719581Y-99280419D03*
X167000000Y-100225000D03*
X169280419Y-99280419D03*
X170225000Y-97000000D03*
D11*
X167000000Y-97000000D03*
D10*
X196280419Y-94719581D03*
X194000000Y-93775000D03*
X191719581Y-94719581D03*
X190775000Y-97000000D03*
X191719581Y-99280419D03*
X194000000Y-100225000D03*
X196280419Y-99280419D03*
X197225000Y-97000000D03*
D11*
X194000000Y-97000000D03*
D12*
X172000000Y-82250000D03*
G04 #@! TA.AperFunction,SMDPad,CuDef*
G36*
G01*
X190700001Y-88300000D02*
X189799999Y-88300000D01*
G75*
G02*
X189550000Y-88050001I0J249999D01*
G01*
X189550000Y-87399999D01*
G75*
G02*
X189799999Y-87150000I249999J0D01*
G01*
X190700001Y-87150000D01*
G75*
G02*
X190950000Y-87399999I0J-249999D01*
G01*
X190950000Y-88050001D01*
G75*
G02*
X190700001Y-88300000I-249999J0D01*
G01*
G37*
G04 #@! TD.AperFunction*
G04 #@! TA.AperFunction,SMDPad,CuDef*
G36*
G01*
X190700001Y-90350000D02*
X189799999Y-90350000D01*
G75*
G02*
X189550000Y-90100001I0J249999D01*
G01*
X189550000Y-89449999D01*
G75*
G02*
X189799999Y-89200000I249999J0D01*
G01*
X190700001Y-89200000D01*
G75*
G02*
X190950000Y-89449999I0J-249999D01*
G01*
X190950000Y-90100001D01*
G75*
G02*
X190700001Y-90350000I-249999J0D01*
G01*
G37*
G04 #@! TD.AperFunction*
D13*
X190210000Y-74500000D03*
D14*
X192750000Y-74500000D03*
D12*
X172000000Y-68000000D03*
D15*
X184540000Y-75000000D03*
X182000000Y-75000000D03*
X184540000Y-85000000D03*
X182000000Y-85000000D03*
X179460000Y-85000000D03*
G04 #@! TA.AperFunction,SMDPad,CuDef*
G36*
G01*
X182172500Y-71810000D02*
X181827500Y-71810000D01*
G75*
G02*
X181680000Y-71662500I0J147500D01*
G01*
X181680000Y-71367500D01*
G75*
G02*
X181827500Y-71220000I147500J0D01*
G01*
X182172500Y-71220000D01*
G75*
G02*
X182320000Y-71367500I0J-147500D01*
G01*
X182320000Y-71662500D01*
G75*
G02*
X182172500Y-71810000I-147500J0D01*
G01*
G37*
G04 #@! TD.AperFunction*
G04 #@! TA.AperFunction,SMDPad,CuDef*
G36*
G01*
X182172500Y-72780000D02*
X181827500Y-72780000D01*
G75*
G02*
X181680000Y-72632500I0J147500D01*
G01*
X181680000Y-72337500D01*
G75*
G02*
X181827500Y-72190000I147500J0D01*
G01*
X182172500Y-72190000D01*
G75*
G02*
X182320000Y-72337500I0J-147500D01*
G01*
X182320000Y-72632500D01*
G75*
G02*
X182172500Y-72780000I-147500J0D01*
G01*
G37*
G04 #@! TD.AperFunction*
G04 #@! TA.AperFunction,SMDPad,CuDef*
G36*
G01*
X180672500Y-71810000D02*
X180327500Y-71810000D01*
G75*
G02*
X180180000Y-71662500I0J147500D01*
G01*
X180180000Y-71367500D01*
G75*
G02*
X180327500Y-71220000I147500J0D01*
G01*
X180672500Y-71220000D01*
G75*
G02*
X180820000Y-71367500I0J-147500D01*
G01*
X180820000Y-71662500D01*
G75*
G02*
X180672500Y-71810000I-147500J0D01*
G01*
G37*
G04 #@! TD.AperFunction*
G04 #@! TA.AperFunction,SMDPad,CuDef*
G36*
G01*
X180672500Y-72780000D02*
X180327500Y-72780000D01*
G75*
G02*
X180180000Y-72632500I0J147500D01*
G01*
X180180000Y-72337500D01*
G75*
G02*
X180327500Y-72190000I147500J0D01*
G01*
X180672500Y-72190000D01*
G75*
G02*
X180820000Y-72337500I0J-147500D01*
G01*
X180820000Y-72632500D01*
G75*
G02*
X180672500Y-72780000I-147500J0D01*
G01*
G37*
G04 #@! TD.AperFunction*
G04 #@! TA.AperFunction,SMDPad,CuDef*
G36*
G01*
X177775000Y-74262500D02*
X177775000Y-74737500D01*
G75*
G02*
X177537500Y-74975000I-237500J0D01*
G01*
X176962500Y-74975000D01*
G75*
G02*
X176725000Y-74737500I0J237500D01*
G01*
X176725000Y-74262500D01*
G75*
G02*
X176962500Y-74025000I237500J0D01*
G01*
X177537500Y-74025000D01*
G75*
G02*
X177775000Y-74262500I0J-237500D01*
G01*
G37*
G04 #@! TD.AperFunction*
G04 #@! TA.AperFunction,SMDPad,CuDef*
G36*
G01*
X179525000Y-74262500D02*
X179525000Y-74737500D01*
G75*
G02*
X179287500Y-74975000I-237500J0D01*
G01*
X178712500Y-74975000D01*
G75*
G02*
X178475000Y-74737500I0J237500D01*
G01*
X178475000Y-74262500D01*
G75*
G02*
X178712500Y-74025000I237500J0D01*
G01*
X179287500Y-74025000D01*
G75*
G02*
X179525000Y-74262500I0J-237500D01*
G01*
G37*
G04 #@! TD.AperFunction*
G04 #@! TA.AperFunction,SMDPad,CuDef*
G36*
G01*
X181762500Y-78725000D02*
X182237500Y-78725000D01*
G75*
G02*
X182475000Y-78962500I0J-237500D01*
G01*
X182475000Y-79537500D01*
G75*
G02*
X182237500Y-79775000I-237500J0D01*
G01*
X181762500Y-79775000D01*
G75*
G02*
X181525000Y-79537500I0J237500D01*
G01*
X181525000Y-78962500D01*
G75*
G02*
X181762500Y-78725000I237500J0D01*
G01*
G37*
G04 #@! TD.AperFunction*
G04 #@! TA.AperFunction,SMDPad,CuDef*
G36*
G01*
X181762500Y-76975000D02*
X182237500Y-76975000D01*
G75*
G02*
X182475000Y-77212500I0J-237500D01*
G01*
X182475000Y-77787500D01*
G75*
G02*
X182237500Y-78025000I-237500J0D01*
G01*
X181762500Y-78025000D01*
G75*
G02*
X181525000Y-77787500I0J237500D01*
G01*
X181525000Y-77212500D01*
G75*
G02*
X181762500Y-76975000I237500J0D01*
G01*
G37*
G04 #@! TD.AperFunction*
G04 #@! TA.AperFunction,SMDPad,CuDef*
G36*
G01*
X178275000Y-76262500D02*
X178275000Y-76737500D01*
G75*
G02*
X178037500Y-76975000I-237500J0D01*
G01*
X177462500Y-76975000D01*
G75*
G02*
X177225000Y-76737500I0J237500D01*
G01*
X177225000Y-76262500D01*
G75*
G02*
X177462500Y-76025000I237500J0D01*
G01*
X178037500Y-76025000D01*
G75*
G02*
X178275000Y-76262500I0J-237500D01*
G01*
G37*
G04 #@! TD.AperFunction*
G04 #@! TA.AperFunction,SMDPad,CuDef*
G36*
G01*
X180025000Y-76262500D02*
X180025000Y-76737500D01*
G75*
G02*
X179787500Y-76975000I-237500J0D01*
G01*
X179212500Y-76975000D01*
G75*
G02*
X178975000Y-76737500I0J237500D01*
G01*
X178975000Y-76262500D01*
G75*
G02*
X179212500Y-76025000I237500J0D01*
G01*
X179787500Y-76025000D01*
G75*
G02*
X180025000Y-76262500I0J-237500D01*
G01*
G37*
G04 #@! TD.AperFunction*
D16*
X189100000Y-79500000D03*
D17*
X190250000Y-85000000D03*
D16*
X191400000Y-79500000D03*
D18*
X164000000Y-78500000D03*
X164000000Y-82750000D03*
X164000000Y-74250000D03*
X197000000Y-85000000D03*
X197000000Y-80750000D03*
X197000000Y-89250000D03*
D19*
X180000000Y-52500000D03*
X175750000Y-52500000D03*
X184250000Y-52500000D03*
D10*
X169280419Y-53719581D03*
X167000000Y-52775000D03*
X164719581Y-53719581D03*
X163775000Y-56000000D03*
X164719581Y-58280419D03*
X167000000Y-59225000D03*
X169280419Y-58280419D03*
X170225000Y-56000000D03*
D11*
X167000000Y-56000000D03*
D10*
X196280419Y-53719581D03*
X194000000Y-52775000D03*
X191719581Y-53719581D03*
X190775000Y-56000000D03*
X191719581Y-58280419D03*
X194000000Y-59225000D03*
X196280419Y-58280419D03*
X197225000Y-56000000D03*
D11*
X194000000Y-56000000D03*
D20*
X180000000Y-101000000D03*
X176000000Y-101000000D03*
X174000000Y-101000000D03*
X178000000Y-101000000D03*
X172000000Y-101000000D03*
X184000000Y-101000000D03*
X182000000Y-101000000D03*
X186000000Y-101000000D03*
X188000000Y-101000000D03*
X162500000Y-91370000D03*
X162500000Y-95370000D03*
X162500000Y-93370000D03*
X162500000Y-85500000D03*
X162500000Y-89370000D03*
X162500000Y-87370000D03*
X199000000Y-75000000D03*
X199000000Y-77000000D03*
X199000000Y-79000000D03*
X199000000Y-73000000D03*
X199000000Y-61000000D03*
X199000000Y-59000000D03*
X190000000Y-51000000D03*
X171000000Y-51000000D03*
X173000000Y-51000000D03*
X167000000Y-51000000D03*
X169000000Y-51000000D03*
X163000000Y-60000000D03*
X163000000Y-62000000D03*
X163000000Y-64000000D03*
X163000000Y-66000000D03*
X163000000Y-70000000D03*
X163000000Y-68000000D03*
X192000000Y-51000000D03*
X199000000Y-81000000D03*
X199000000Y-91000000D03*
X188000000Y-51000000D03*
X186000000Y-51000000D03*
X199000000Y-71000000D03*
X199000000Y-69000000D03*
X199000000Y-67000000D03*
X199000000Y-65000000D03*
X199000000Y-63000000D03*
X172000000Y-64500000D03*
X167750000Y-74250000D03*
X167750000Y-82750000D03*
X176000000Y-74500000D03*
X176250000Y-76500000D03*
X179500000Y-71500000D03*
X182000000Y-80500000D03*
X193500000Y-80750000D03*
X193500000Y-89250000D03*
X192250000Y-78250000D03*
X173750000Y-52500000D03*
X189750000Y-91250000D03*
X190750000Y-91250000D03*
X199000000Y-92750000D03*
X167500000Y-77000000D03*
X167500000Y-78500000D03*
X167500000Y-80000000D03*
D21*
X172000000Y-68000000D02*
X172000000Y-64500000D01*
X167750000Y-74250000D02*
X164000000Y-74250000D01*
X164000000Y-82750000D02*
X167750000Y-82750000D01*
X177250000Y-74500000D02*
X176000000Y-74500000D01*
X177750000Y-76500000D02*
X176250000Y-76500000D01*
X182000000Y-71515000D02*
X180500000Y-71515000D01*
X180500000Y-71515000D02*
X179515000Y-71515000D01*
X179515000Y-71515000D02*
X179500000Y-71500000D01*
X182000000Y-79250000D02*
X182000000Y-80500000D01*
X197000000Y-80750000D02*
X193500000Y-80750000D01*
X193500000Y-89250000D02*
X197000000Y-89250000D01*
X191400000Y-79500000D02*
X191400000Y-79100000D01*
X191400000Y-79100000D02*
X192250000Y-78250000D01*
X185750000Y-51000000D02*
X184250000Y-52500000D01*
X186000000Y-51000000D02*
X185750000Y-51000000D01*
X175750000Y-52500000D02*
X173750000Y-52500000D01*
X190250000Y-89775000D02*
X190250000Y-90750000D01*
X190250000Y-90750000D02*
X189750000Y-91250000D01*
X190250000Y-90750000D02*
X190750000Y-91250000D01*
D22*
X182000000Y-77500000D02*
X182000000Y-75000000D01*
X180500000Y-73500000D02*
X180500000Y-72485000D01*
X182000000Y-75000000D02*
X180500000Y-73500000D01*
X179500000Y-75000000D02*
X179000000Y-74500000D01*
X182000000Y-75000000D02*
X179500000Y-75000000D01*
X180500000Y-76500000D02*
X179500000Y-76500000D01*
X182000000Y-75000000D02*
X180500000Y-76500000D01*
X164000000Y-78500000D02*
X167500000Y-78500000D01*
X164000000Y-78500000D02*
X166000000Y-78500000D01*
X166000000Y-78500000D02*
X167500000Y-77000000D01*
X166000000Y-78500000D02*
X167500000Y-80000000D01*
X182000000Y-72485000D02*
X182000000Y-75000000D01*
X172000000Y-82250000D02*
X172000000Y-79250000D01*
X171250000Y-78500000D02*
X167500000Y-78500000D01*
X172000000Y-79250000D02*
X171250000Y-78500000D01*
D23*
X183832893Y-65082893D02*
X183914600Y-65168713D01*
X180707106Y-61957106D02*
X183832893Y-65082893D01*
X180625398Y-61871285D02*
X180707106Y-61957106D01*
X180548000Y-61781559D02*
X180625398Y-61871285D01*
X180475098Y-61688144D02*
X180548000Y-61781559D01*
X180406868Y-61591264D02*
X180475098Y-61688144D01*
X180343473Y-61491153D02*
X180406868Y-61591264D01*
X180285067Y-61388051D02*
X180343473Y-61491153D01*
X180231790Y-61282208D02*
X180285067Y-61388051D01*
X180183770Y-61173878D02*
X180231790Y-61282208D01*
X180141125Y-61063323D02*
X180183770Y-61173878D01*
X180103955Y-60950808D02*
X180141125Y-61063323D01*
X180072350Y-60836605D02*
X180103955Y-60950808D01*
X180046388Y-60720989D02*
X180072350Y-60836605D01*
X180026130Y-60604238D02*
X180046388Y-60720989D01*
X180011625Y-60486634D02*
X180026130Y-60604238D01*
X180002908Y-60368459D02*
X180011625Y-60486634D01*
X180000000Y-60250000D02*
X180002908Y-60368459D01*
X180000000Y-60250000D02*
X180000000Y-52500000D01*
X184540000Y-66790000D02*
X184540000Y-75000000D01*
X184537091Y-66671540D02*
X184540000Y-66790000D01*
X184528374Y-66553365D02*
X184537091Y-66671540D01*
X184513869Y-66435761D02*
X184528374Y-66553365D01*
X184493611Y-66319010D02*
X184513869Y-66435761D01*
X184467648Y-66203393D02*
X184493611Y-66319010D01*
X184436044Y-66089190D02*
X184467648Y-66203393D01*
X184398874Y-65976675D02*
X184436044Y-66089190D01*
X184356228Y-65866120D02*
X184398874Y-65976675D01*
X184308209Y-65757790D02*
X184356228Y-65866120D01*
X184254932Y-65651947D02*
X184308209Y-65757790D01*
X184196526Y-65548846D02*
X184254932Y-65651947D01*
X184133131Y-65448734D02*
X184196526Y-65548846D01*
X184064900Y-65351854D02*
X184133131Y-65448734D01*
X183991998Y-65258438D02*
X184064900Y-65351854D01*
X183914600Y-65168713D02*
X183991998Y-65258438D01*
X197000000Y-85000000D02*
X184540000Y-85000000D01*
X190250000Y-74540000D02*
X190210000Y-74500000D01*
X190250000Y-85000000D02*
X190250000Y-74540000D01*
X190250000Y-85000000D02*
X190250000Y-87725000D01*
D24*
G36*
X162899606Y-58191706D02*
G01*
X163373000Y-58900192D01*
X163373000Y-71873000D01*
X162627000Y-71873000D01*
X162627000Y-58127000D01*
X162872804Y-58127000D01*
X162899606Y-58191706D01*
G37*
X162899606Y-58191706D02*
X163373000Y-58900192D01*
X163373000Y-71873000D01*
X162627000Y-71873000D01*
X162627000Y-58127000D01*
X162872804Y-58127000D01*
X162899606Y-58191706D01*
G36*
X174363854Y-51373000D02*
G01*
X166627000Y-51373000D01*
X166627000Y-50627000D01*
X174362837Y-50627000D01*
X174363854Y-51373000D01*
G37*
X174363854Y-51373000D02*
X166627000Y-51373000D01*
X166627000Y-50627000D01*
X174362837Y-50627000D01*
X174363854Y-51373000D01*
G36*
X193251610Y-51431216D02*
G01*
X192650354Y-51550813D01*
X192353415Y-51673809D01*
X192089803Y-51410197D01*
X192070557Y-51394403D01*
X192048601Y-51382667D01*
X192024776Y-51375440D01*
X192000000Y-51373000D01*
X186134749Y-51373000D01*
X186264074Y-50891524D01*
X186267345Y-50875079D01*
X186268144Y-50850196D01*
X186264074Y-50825634D01*
X186255290Y-50802339D01*
X186242130Y-50781205D01*
X186225100Y-50763044D01*
X186204854Y-50748555D01*
X186182171Y-50738294D01*
X186157921Y-50732655D01*
X186133038Y-50731856D01*
X186108476Y-50735926D01*
X185636842Y-50862608D01*
X185637163Y-50627000D01*
X192447394Y-50627000D01*
X193251610Y-51431216D01*
G37*
X193251610Y-51431216D02*
X192650354Y-51550813D01*
X192353415Y-51673809D01*
X192089803Y-51410197D01*
X192070557Y-51394403D01*
X192048601Y-51382667D01*
X192024776Y-51375440D01*
X192000000Y-51373000D01*
X186134749Y-51373000D01*
X186264074Y-50891524D01*
X186267345Y-50875079D01*
X186268144Y-50850196D01*
X186264074Y-50825634D01*
X186255290Y-50802339D01*
X186242130Y-50781205D01*
X186225100Y-50763044D01*
X186204854Y-50748555D01*
X186182171Y-50738294D01*
X186157921Y-50732655D01*
X186133038Y-50731856D01*
X186108476Y-50735926D01*
X185636842Y-50862608D01*
X185637163Y-50627000D01*
X192447394Y-50627000D01*
X193251610Y-51431216D01*
G36*
X199373005Y-57552611D02*
G01*
X199375246Y-79362153D01*
X198624755Y-79363175D01*
X198627000Y-58000013D01*
X198624562Y-57975237D01*
X198617338Y-57951412D01*
X198605604Y-57929454D01*
X198589803Y-57910197D01*
X198326191Y-57646585D01*
X198449187Y-57349646D01*
X198568784Y-56748390D01*
X199373005Y-57552611D01*
G37*
X199373005Y-57552611D02*
X199375246Y-79362153D01*
X198624755Y-79363175D01*
X198627000Y-58000013D01*
X198624562Y-57975237D01*
X198617338Y-57951412D01*
X198605604Y-57929454D01*
X198589803Y-57910197D01*
X198326191Y-57646585D01*
X198449187Y-57349646D01*
X198568784Y-56748390D01*
X199373005Y-57552611D01*
G36*
X199373000Y-90637844D02*
G01*
X199373000Y-94253000D01*
X198627000Y-94253000D01*
X198627000Y-90636828D01*
X199373000Y-90637844D01*
G37*
X199373000Y-90637844D02*
X199373000Y-94253000D01*
X198627000Y-94253000D01*
X198627000Y-90636828D01*
X199373000Y-90637844D01*
G36*
X162873000Y-94872527D02*
G01*
X162550813Y-95650354D01*
X162407070Y-96373000D01*
X162127000Y-96373000D01*
X162127000Y-84137163D01*
X162873000Y-84136146D01*
X162873000Y-94872527D01*
G37*
X162873000Y-94872527D02*
X162550813Y-95650354D01*
X162407070Y-96373000D01*
X162127000Y-96373000D01*
X162127000Y-84137163D01*
X162873000Y-84136146D01*
X162873000Y-94872527D01*
G36*
X189873000Y-101373000D02*
G01*
X170627000Y-101373000D01*
X170627000Y-100627000D01*
X189873000Y-100627000D01*
X189873000Y-101373000D01*
G37*
X189873000Y-101373000D02*
X170627000Y-101373000D01*
X170627000Y-100627000D01*
X189873000Y-100627000D01*
X189873000Y-101373000D01*
D25*
G36*
X172264949Y-64784976D02*
G01*
X172259164Y-64793194D01*
X172257786Y-64795717D01*
X172248436Y-64818694D01*
X172247923Y-64820226D01*
X172239673Y-64851335D01*
X172239455Y-64852313D01*
X172232305Y-64891551D01*
X172232201Y-64892219D01*
X172226151Y-64939588D01*
X172226099Y-64940069D01*
X172221149Y-64995569D01*
X172221122Y-64995930D01*
X172217272Y-65059560D01*
X172217258Y-65059841D01*
X172214508Y-65131601D01*
X172214502Y-65131825D01*
X172212852Y-65211716D01*
X172212849Y-65211899D01*
X172212378Y-65287300D01*
X171787622Y-65287300D01*
X171787150Y-65211899D01*
X171787147Y-65211716D01*
X171785497Y-65131825D01*
X171785491Y-65131601D01*
X171782741Y-65059841D01*
X171782727Y-65059560D01*
X171778877Y-64995930D01*
X171778850Y-64995569D01*
X171773900Y-64940069D01*
X171773848Y-64939588D01*
X171767798Y-64892219D01*
X171767694Y-64891551D01*
X171760544Y-64852313D01*
X171760326Y-64851335D01*
X171752076Y-64820226D01*
X171751563Y-64818694D01*
X171742213Y-64795717D01*
X171740835Y-64793194D01*
X171735051Y-64784977D01*
X172000000Y-64325426D01*
X172264949Y-64784976D01*
G37*
X172264949Y-64784976D02*
X172259164Y-64793194D01*
X172257786Y-64795717D01*
X172248436Y-64818694D01*
X172247923Y-64820226D01*
X172239673Y-64851335D01*
X172239455Y-64852313D01*
X172232305Y-64891551D01*
X172232201Y-64892219D01*
X172226151Y-64939588D01*
X172226099Y-64940069D01*
X172221149Y-64995569D01*
X172221122Y-64995930D01*
X172217272Y-65059560D01*
X172217258Y-65059841D01*
X172214508Y-65131601D01*
X172214502Y-65131825D01*
X172212852Y-65211716D01*
X172212849Y-65211899D01*
X172212378Y-65287300D01*
X171787622Y-65287300D01*
X171787150Y-65211899D01*
X171787147Y-65211716D01*
X171785497Y-65131825D01*
X171785491Y-65131601D01*
X171782741Y-65059841D01*
X171782727Y-65059560D01*
X171778877Y-64995930D01*
X171778850Y-64995569D01*
X171773900Y-64940069D01*
X171773848Y-64939588D01*
X171767798Y-64892219D01*
X171767694Y-64891551D01*
X171760544Y-64852313D01*
X171760326Y-64851335D01*
X171752076Y-64820226D01*
X171751563Y-64818694D01*
X171742213Y-64795717D01*
X171740835Y-64793194D01*
X171735051Y-64784977D01*
X172000000Y-64325426D01*
X172264949Y-64784976D01*
G36*
X167924574Y-74250000D02*
G01*
X167465023Y-74514949D01*
X167456805Y-74509164D01*
X167454282Y-74507786D01*
X167431305Y-74498436D01*
X167429773Y-74497923D01*
X167398664Y-74489673D01*
X167397686Y-74489455D01*
X167358448Y-74482305D01*
X167357780Y-74482201D01*
X167310411Y-74476151D01*
X167309930Y-74476099D01*
X167254430Y-74471149D01*
X167254069Y-74471122D01*
X167190439Y-74467272D01*
X167190158Y-74467258D01*
X167118398Y-74464508D01*
X167118174Y-74464502D01*
X167038283Y-74462852D01*
X167038100Y-74462849D01*
X166962700Y-74462378D01*
X166962700Y-74037622D01*
X167038100Y-74037150D01*
X167038283Y-74037147D01*
X167118174Y-74035497D01*
X167118398Y-74035491D01*
X167190158Y-74032741D01*
X167190439Y-74032727D01*
X167254069Y-74028877D01*
X167254430Y-74028850D01*
X167309930Y-74023900D01*
X167310411Y-74023848D01*
X167357780Y-74017798D01*
X167358448Y-74017694D01*
X167397686Y-74010544D01*
X167398664Y-74010326D01*
X167429773Y-74002076D01*
X167431305Y-74001563D01*
X167454282Y-73992213D01*
X167456804Y-73990836D01*
X167465023Y-73985051D01*
X167924574Y-74250000D01*
G37*
X167924574Y-74250000D02*
X167465023Y-74514949D01*
X167456805Y-74509164D01*
X167454282Y-74507786D01*
X167431305Y-74498436D01*
X167429773Y-74497923D01*
X167398664Y-74489673D01*
X167397686Y-74489455D01*
X167358448Y-74482305D01*
X167357780Y-74482201D01*
X167310411Y-74476151D01*
X167309930Y-74476099D01*
X167254430Y-74471149D01*
X167254069Y-74471122D01*
X167190439Y-74467272D01*
X167190158Y-74467258D01*
X167118398Y-74464508D01*
X167118174Y-74464502D01*
X167038283Y-74462852D01*
X167038100Y-74462849D01*
X166962700Y-74462378D01*
X166962700Y-74037622D01*
X167038100Y-74037150D01*
X167038283Y-74037147D01*
X167118174Y-74035497D01*
X167118398Y-74035491D01*
X167190158Y-74032741D01*
X167190439Y-74032727D01*
X167254069Y-74028877D01*
X167254430Y-74028850D01*
X167309930Y-74023900D01*
X167310411Y-74023848D01*
X167357780Y-74017798D01*
X167358448Y-74017694D01*
X167397686Y-74010544D01*
X167398664Y-74010326D01*
X167429773Y-74002076D01*
X167431305Y-74001563D01*
X167454282Y-73992213D01*
X167456804Y-73990836D01*
X167465023Y-73985051D01*
X167924574Y-74250000D01*
G36*
X164589629Y-73791389D02*
G01*
X164590709Y-73792270D01*
X164660809Y-73843270D01*
X164661912Y-73843987D01*
X164739537Y-73888987D01*
X164740618Y-73889547D01*
X164825769Y-73928547D01*
X164826797Y-73928964D01*
X164919474Y-73961964D01*
X164920430Y-73962263D01*
X165020632Y-73989263D01*
X165021506Y-73989465D01*
X165129233Y-74010465D01*
X165130024Y-74010594D01*
X165245278Y-74025594D01*
X165245989Y-74025666D01*
X165368767Y-74034666D01*
X165369403Y-74034697D01*
X165487300Y-74037411D01*
X165487300Y-74462589D01*
X165369403Y-74465303D01*
X165368767Y-74465334D01*
X165245989Y-74474334D01*
X165245278Y-74474406D01*
X165130024Y-74489406D01*
X165129233Y-74489535D01*
X165021506Y-74510535D01*
X165020632Y-74510737D01*
X164920430Y-74537737D01*
X164919474Y-74538036D01*
X164826797Y-74571036D01*
X164825769Y-74571453D01*
X164740618Y-74610453D01*
X164739537Y-74611013D01*
X164661912Y-74656013D01*
X164660809Y-74656730D01*
X164590709Y-74707730D01*
X164589629Y-74708611D01*
X164533913Y-74759364D01*
X163650426Y-74250000D01*
X164533913Y-73740636D01*
X164589629Y-73791389D01*
G37*
X164589629Y-73791389D02*
X164590709Y-73792270D01*
X164660809Y-73843270D01*
X164661912Y-73843987D01*
X164739537Y-73888987D01*
X164740618Y-73889547D01*
X164825769Y-73928547D01*
X164826797Y-73928964D01*
X164919474Y-73961964D01*
X164920430Y-73962263D01*
X165020632Y-73989263D01*
X165021506Y-73989465D01*
X165129233Y-74010465D01*
X165130024Y-74010594D01*
X165245278Y-74025594D01*
X165245989Y-74025666D01*
X165368767Y-74034666D01*
X165369403Y-74034697D01*
X165487300Y-74037411D01*
X165487300Y-74462589D01*
X165369403Y-74465303D01*
X165368767Y-74465334D01*
X165245989Y-74474334D01*
X165245278Y-74474406D01*
X165130024Y-74489406D01*
X165129233Y-74489535D01*
X165021506Y-74510535D01*
X165020632Y-74510737D01*
X164920430Y-74537737D01*
X164919474Y-74538036D01*
X164826797Y-74571036D01*
X164825769Y-74571453D01*
X164740618Y-74610453D01*
X164739537Y-74611013D01*
X164661912Y-74656013D01*
X164660809Y-74656730D01*
X164590709Y-74707730D01*
X164589629Y-74708611D01*
X164533913Y-74759364D01*
X163650426Y-74250000D01*
X164533913Y-73740636D01*
X164589629Y-73791389D01*
G36*
X167924574Y-82750000D02*
G01*
X167465023Y-83014949D01*
X167456805Y-83009164D01*
X167454282Y-83007786D01*
X167431305Y-82998436D01*
X167429773Y-82997923D01*
X167398664Y-82989673D01*
X167397686Y-82989455D01*
X167358448Y-82982305D01*
X167357780Y-82982201D01*
X167310411Y-82976151D01*
X167309930Y-82976099D01*
X167254430Y-82971149D01*
X167254069Y-82971122D01*
X167190439Y-82967272D01*
X167190158Y-82967258D01*
X167118398Y-82964508D01*
X167118174Y-82964502D01*
X167038283Y-82962852D01*
X167038100Y-82962849D01*
X166962700Y-82962378D01*
X166962700Y-82537622D01*
X167038100Y-82537150D01*
X167038283Y-82537147D01*
X167118174Y-82535497D01*
X167118398Y-82535491D01*
X167190158Y-82532741D01*
X167190439Y-82532727D01*
X167254069Y-82528877D01*
X167254430Y-82528850D01*
X167309930Y-82523900D01*
X167310411Y-82523848D01*
X167357780Y-82517798D01*
X167358448Y-82517694D01*
X167397686Y-82510544D01*
X167398664Y-82510326D01*
X167429773Y-82502076D01*
X167431305Y-82501563D01*
X167454282Y-82492213D01*
X167456804Y-82490836D01*
X167465023Y-82485051D01*
X167924574Y-82750000D01*
G37*
X167924574Y-82750000D02*
X167465023Y-83014949D01*
X167456805Y-83009164D01*
X167454282Y-83007786D01*
X167431305Y-82998436D01*
X167429773Y-82997923D01*
X167398664Y-82989673D01*
X167397686Y-82989455D01*
X167358448Y-82982305D01*
X167357780Y-82982201D01*
X167310411Y-82976151D01*
X167309930Y-82976099D01*
X167254430Y-82971149D01*
X167254069Y-82971122D01*
X167190439Y-82967272D01*
X167190158Y-82967258D01*
X167118398Y-82964508D01*
X167118174Y-82964502D01*
X167038283Y-82962852D01*
X167038100Y-82962849D01*
X166962700Y-82962378D01*
X166962700Y-82537622D01*
X167038100Y-82537150D01*
X167038283Y-82537147D01*
X167118174Y-82535497D01*
X167118398Y-82535491D01*
X167190158Y-82532741D01*
X167190439Y-82532727D01*
X167254069Y-82528877D01*
X167254430Y-82528850D01*
X167309930Y-82523900D01*
X167310411Y-82523848D01*
X167357780Y-82517798D01*
X167358448Y-82517694D01*
X167397686Y-82510544D01*
X167398664Y-82510326D01*
X167429773Y-82502076D01*
X167431305Y-82501563D01*
X167454282Y-82492213D01*
X167456804Y-82490836D01*
X167465023Y-82485051D01*
X167924574Y-82750000D01*
G36*
X164589629Y-82291389D02*
G01*
X164590709Y-82292270D01*
X164660809Y-82343270D01*
X164661912Y-82343987D01*
X164739537Y-82388987D01*
X164740618Y-82389547D01*
X164825769Y-82428547D01*
X164826797Y-82428964D01*
X164919474Y-82461964D01*
X164920430Y-82462263D01*
X165020632Y-82489263D01*
X165021506Y-82489465D01*
X165129233Y-82510465D01*
X165130024Y-82510594D01*
X165245278Y-82525594D01*
X165245989Y-82525666D01*
X165368767Y-82534666D01*
X165369403Y-82534697D01*
X165487300Y-82537411D01*
X165487300Y-82962589D01*
X165369403Y-82965303D01*
X165368767Y-82965334D01*
X165245989Y-82974334D01*
X165245278Y-82974406D01*
X165130024Y-82989406D01*
X165129233Y-82989535D01*
X165021506Y-83010535D01*
X165020632Y-83010737D01*
X164920430Y-83037737D01*
X164919474Y-83038036D01*
X164826797Y-83071036D01*
X164825769Y-83071453D01*
X164740618Y-83110453D01*
X164739537Y-83111013D01*
X164661912Y-83156013D01*
X164660809Y-83156730D01*
X164590709Y-83207730D01*
X164589629Y-83208611D01*
X164533913Y-83259364D01*
X163650426Y-82750000D01*
X164533913Y-82240636D01*
X164589629Y-82291389D01*
G37*
X164589629Y-82291389D02*
X164590709Y-82292270D01*
X164660809Y-82343270D01*
X164661912Y-82343987D01*
X164739537Y-82388987D01*
X164740618Y-82389547D01*
X164825769Y-82428547D01*
X164826797Y-82428964D01*
X164919474Y-82461964D01*
X164920430Y-82462263D01*
X165020632Y-82489263D01*
X165021506Y-82489465D01*
X165129233Y-82510465D01*
X165130024Y-82510594D01*
X165245278Y-82525594D01*
X165245989Y-82525666D01*
X165368767Y-82534666D01*
X165369403Y-82534697D01*
X165487300Y-82537411D01*
X165487300Y-82962589D01*
X165369403Y-82965303D01*
X165368767Y-82965334D01*
X165245989Y-82974334D01*
X165245278Y-82974406D01*
X165130024Y-82989406D01*
X165129233Y-82989535D01*
X165021506Y-83010535D01*
X165020632Y-83010737D01*
X164920430Y-83037737D01*
X164919474Y-83038036D01*
X164826797Y-83071036D01*
X164825769Y-83071453D01*
X164740618Y-83110453D01*
X164739537Y-83111013D01*
X164661912Y-83156013D01*
X164660809Y-83156730D01*
X164590709Y-83207730D01*
X164589629Y-83208611D01*
X164533913Y-83259364D01*
X163650426Y-82750000D01*
X164533913Y-82240636D01*
X164589629Y-82291389D01*
G36*
X176293194Y-74240835D02*
G01*
X176295717Y-74242213D01*
X176318694Y-74251563D01*
X176320226Y-74252076D01*
X176351335Y-74260326D01*
X176352313Y-74260544D01*
X176391551Y-74267694D01*
X176392219Y-74267798D01*
X176439588Y-74273848D01*
X176440069Y-74273900D01*
X176495569Y-74278850D01*
X176495930Y-74278877D01*
X176559560Y-74282727D01*
X176559841Y-74282741D01*
X176631601Y-74285491D01*
X176631825Y-74285497D01*
X176711716Y-74287147D01*
X176711899Y-74287150D01*
X176787300Y-74287622D01*
X176787300Y-74712378D01*
X176711899Y-74712849D01*
X176711716Y-74712852D01*
X176631825Y-74714502D01*
X176631601Y-74714508D01*
X176559841Y-74717258D01*
X176559560Y-74717272D01*
X176495930Y-74721122D01*
X176495569Y-74721149D01*
X176440069Y-74726099D01*
X176439588Y-74726151D01*
X176392219Y-74732201D01*
X176391551Y-74732305D01*
X176352313Y-74739455D01*
X176351335Y-74739673D01*
X176320226Y-74747923D01*
X176318694Y-74748436D01*
X176295717Y-74757786D01*
X176293194Y-74759164D01*
X176284976Y-74764949D01*
X175825426Y-74500000D01*
X176284977Y-74235051D01*
X176293194Y-74240835D01*
G37*
X176293194Y-74240835D02*
X176295717Y-74242213D01*
X176318694Y-74251563D01*
X176320226Y-74252076D01*
X176351335Y-74260326D01*
X176352313Y-74260544D01*
X176391551Y-74267694D01*
X176392219Y-74267798D01*
X176439588Y-74273848D01*
X176440069Y-74273900D01*
X176495569Y-74278850D01*
X176495930Y-74278877D01*
X176559560Y-74282727D01*
X176559841Y-74282741D01*
X176631601Y-74285491D01*
X176631825Y-74285497D01*
X176711716Y-74287147D01*
X176711899Y-74287150D01*
X176787300Y-74287622D01*
X176787300Y-74712378D01*
X176711899Y-74712849D01*
X176711716Y-74712852D01*
X176631825Y-74714502D01*
X176631601Y-74714508D01*
X176559841Y-74717258D01*
X176559560Y-74717272D01*
X176495930Y-74721122D01*
X176495569Y-74721149D01*
X176440069Y-74726099D01*
X176439588Y-74726151D01*
X176392219Y-74732201D01*
X176391551Y-74732305D01*
X176352313Y-74739455D01*
X176351335Y-74739673D01*
X176320226Y-74747923D01*
X176318694Y-74748436D01*
X176295717Y-74757786D01*
X176293194Y-74759164D01*
X176284976Y-74764949D01*
X175825426Y-74500000D01*
X176284977Y-74235051D01*
X176293194Y-74240835D01*
G36*
X177462074Y-74500000D02*
G01*
X176912021Y-74817127D01*
X176893729Y-74802227D01*
X176891850Y-74800958D01*
X176858774Y-74782683D01*
X176857273Y-74781977D01*
X176816197Y-74765852D01*
X176815034Y-74765460D01*
X176765957Y-74751485D01*
X176765055Y-74751263D01*
X176707977Y-74739438D01*
X176707269Y-74739312D01*
X176642191Y-74729637D01*
X176641624Y-74729566D01*
X176568544Y-74722041D01*
X176568083Y-74722002D01*
X176487003Y-74716627D01*
X176486622Y-74716607D01*
X176397540Y-74713382D01*
X176397221Y-74713375D01*
X176312700Y-74712440D01*
X176312700Y-74287560D01*
X176397222Y-74286624D01*
X176397540Y-74286617D01*
X176486622Y-74283392D01*
X176487003Y-74283372D01*
X176568083Y-74277997D01*
X176568544Y-74277958D01*
X176641624Y-74270433D01*
X176642191Y-74270362D01*
X176707269Y-74260687D01*
X176707977Y-74260561D01*
X176765055Y-74248736D01*
X176765957Y-74248514D01*
X176815034Y-74234539D01*
X176816197Y-74234147D01*
X176857273Y-74218022D01*
X176858774Y-74217316D01*
X176891850Y-74199041D01*
X176893729Y-74197772D01*
X176912021Y-74182872D01*
X177462074Y-74500000D01*
G37*
X177462074Y-74500000D02*
X176912021Y-74817127D01*
X176893729Y-74802227D01*
X176891850Y-74800958D01*
X176858774Y-74782683D01*
X176857273Y-74781977D01*
X176816197Y-74765852D01*
X176815034Y-74765460D01*
X176765957Y-74751485D01*
X176765055Y-74751263D01*
X176707977Y-74739438D01*
X176707269Y-74739312D01*
X176642191Y-74729637D01*
X176641624Y-74729566D01*
X176568544Y-74722041D01*
X176568083Y-74722002D01*
X176487003Y-74716627D01*
X176486622Y-74716607D01*
X176397540Y-74713382D01*
X176397221Y-74713375D01*
X176312700Y-74712440D01*
X176312700Y-74287560D01*
X176397222Y-74286624D01*
X176397540Y-74286617D01*
X176486622Y-74283392D01*
X176487003Y-74283372D01*
X176568083Y-74277997D01*
X176568544Y-74277958D01*
X176641624Y-74270433D01*
X176642191Y-74270362D01*
X176707269Y-74260687D01*
X176707977Y-74260561D01*
X176765055Y-74248736D01*
X176765957Y-74248514D01*
X176815034Y-74234539D01*
X176816197Y-74234147D01*
X176857273Y-74218022D01*
X176858774Y-74217316D01*
X176891850Y-74199041D01*
X176893729Y-74197772D01*
X176912021Y-74182872D01*
X177462074Y-74500000D01*
G36*
X176543194Y-76240835D02*
G01*
X176545717Y-76242213D01*
X176568694Y-76251563D01*
X176570226Y-76252076D01*
X176601335Y-76260326D01*
X176602313Y-76260544D01*
X176641551Y-76267694D01*
X176642219Y-76267798D01*
X176689588Y-76273848D01*
X176690069Y-76273900D01*
X176745569Y-76278850D01*
X176745930Y-76278877D01*
X176809560Y-76282727D01*
X176809841Y-76282741D01*
X176881601Y-76285491D01*
X176881825Y-76285497D01*
X176961716Y-76287147D01*
X176961899Y-76287150D01*
X177037300Y-76287622D01*
X177037300Y-76712378D01*
X176961899Y-76712849D01*
X176961716Y-76712852D01*
X176881825Y-76714502D01*
X176881601Y-76714508D01*
X176809841Y-76717258D01*
X176809560Y-76717272D01*
X176745930Y-76721122D01*
X176745569Y-76721149D01*
X176690069Y-76726099D01*
X176689588Y-76726151D01*
X176642219Y-76732201D01*
X176641551Y-76732305D01*
X176602313Y-76739455D01*
X176601335Y-76739673D01*
X176570226Y-76747923D01*
X176568694Y-76748436D01*
X176545717Y-76757786D01*
X176543194Y-76759164D01*
X176534976Y-76764949D01*
X176075426Y-76500000D01*
X176534977Y-76235051D01*
X176543194Y-76240835D01*
G37*
X176543194Y-76240835D02*
X176545717Y-76242213D01*
X176568694Y-76251563D01*
X176570226Y-76252076D01*
X176601335Y-76260326D01*
X176602313Y-76260544D01*
X176641551Y-76267694D01*
X176642219Y-76267798D01*
X176689588Y-76273848D01*
X176690069Y-76273900D01*
X176745569Y-76278850D01*
X176745930Y-76278877D01*
X176809560Y-76282727D01*
X176809841Y-76282741D01*
X176881601Y-76285491D01*
X176881825Y-76285497D01*
X176961716Y-76287147D01*
X176961899Y-76287150D01*
X177037300Y-76287622D01*
X177037300Y-76712378D01*
X176961899Y-76712849D01*
X176961716Y-76712852D01*
X176881825Y-76714502D01*
X176881601Y-76714508D01*
X176809841Y-76717258D01*
X176809560Y-76717272D01*
X176745930Y-76721122D01*
X176745569Y-76721149D01*
X176690069Y-76726099D01*
X176689588Y-76726151D01*
X176642219Y-76732201D01*
X176641551Y-76732305D01*
X176602313Y-76739455D01*
X176601335Y-76739673D01*
X176570226Y-76747923D01*
X176568694Y-76748436D01*
X176545717Y-76757786D01*
X176543194Y-76759164D01*
X176534976Y-76764949D01*
X176075426Y-76500000D01*
X176534977Y-76235051D01*
X176543194Y-76240835D01*
G36*
X177962074Y-76500000D02*
G01*
X177412021Y-76817127D01*
X177393729Y-76802227D01*
X177391850Y-76800958D01*
X177358774Y-76782683D01*
X177357273Y-76781977D01*
X177316197Y-76765852D01*
X177315034Y-76765460D01*
X177265957Y-76751485D01*
X177265055Y-76751263D01*
X177207977Y-76739438D01*
X177207269Y-76739312D01*
X177142191Y-76729637D01*
X177141624Y-76729566D01*
X177068544Y-76722041D01*
X177068083Y-76722002D01*
X176987003Y-76716627D01*
X176986622Y-76716607D01*
X176897540Y-76713382D01*
X176897221Y-76713375D01*
X176812700Y-76712440D01*
X176812700Y-76287560D01*
X176897222Y-76286624D01*
X176897540Y-76286617D01*
X176986622Y-76283392D01*
X176987003Y-76283372D01*
X177068083Y-76277997D01*
X177068544Y-76277958D01*
X177141624Y-76270433D01*
X177142191Y-76270362D01*
X177207269Y-76260687D01*
X177207977Y-76260561D01*
X177265055Y-76248736D01*
X177265957Y-76248514D01*
X177315034Y-76234539D01*
X177316197Y-76234147D01*
X177357273Y-76218022D01*
X177358774Y-76217316D01*
X177391850Y-76199041D01*
X177393729Y-76197772D01*
X177412021Y-76182872D01*
X177962074Y-76500000D01*
G37*
X177962074Y-76500000D02*
X177412021Y-76817127D01*
X177393729Y-76802227D01*
X177391850Y-76800958D01*
X177358774Y-76782683D01*
X177357273Y-76781977D01*
X177316197Y-76765852D01*
X177315034Y-76765460D01*
X177265957Y-76751485D01*
X177265055Y-76751263D01*
X177207977Y-76739438D01*
X177207269Y-76739312D01*
X177142191Y-76729637D01*
X177141624Y-76729566D01*
X177068544Y-76722041D01*
X177068083Y-76722002D01*
X176987003Y-76716627D01*
X176986622Y-76716607D01*
X176897540Y-76713382D01*
X176897221Y-76713375D01*
X176812700Y-76712440D01*
X176812700Y-76287560D01*
X176897222Y-76286624D01*
X176897540Y-76286617D01*
X176986622Y-76283392D01*
X176987003Y-76283372D01*
X177068083Y-76277997D01*
X177068544Y-76277958D01*
X177141624Y-76270433D01*
X177142191Y-76270362D01*
X177207269Y-76260687D01*
X177207977Y-76260561D01*
X177265055Y-76248736D01*
X177265957Y-76248514D01*
X177315034Y-76234539D01*
X177316197Y-76234147D01*
X177357273Y-76218022D01*
X177358774Y-76217316D01*
X177391850Y-76199041D01*
X177393729Y-76197772D01*
X177412021Y-76182872D01*
X177962074Y-76500000D01*
G36*
X181477551Y-71309483D02*
G01*
X181477637Y-71309491D01*
X181539584Y-71315226D01*
X181539692Y-71315235D01*
X181594778Y-71319860D01*
X181594918Y-71319871D01*
X181643143Y-71323386D01*
X181643329Y-71323399D01*
X181684692Y-71325804D01*
X181684953Y-71325816D01*
X181719455Y-71327111D01*
X181719846Y-71327120D01*
X181747487Y-71327305D01*
X181748137Y-71327292D01*
X181768917Y-71326367D01*
X181770189Y-71326246D01*
X181784107Y-71324211D01*
X181787439Y-71323245D01*
X181788589Y-71322733D01*
X182122074Y-71515000D01*
X181788589Y-71707267D01*
X181787439Y-71706755D01*
X181784107Y-71705789D01*
X181770189Y-71703754D01*
X181768917Y-71703633D01*
X181748137Y-71702708D01*
X181747487Y-71702695D01*
X181719846Y-71702880D01*
X181719455Y-71702889D01*
X181684953Y-71704184D01*
X181684692Y-71704196D01*
X181643329Y-71706601D01*
X181643143Y-71706614D01*
X181594918Y-71710129D01*
X181594778Y-71710140D01*
X181539692Y-71714765D01*
X181539584Y-71714774D01*
X181477637Y-71720509D01*
X181477551Y-71720517D01*
X181422700Y-71725974D01*
X181422700Y-71304026D01*
X181477551Y-71309483D01*
G37*
X181477551Y-71309483D02*
X181477637Y-71309491D01*
X181539584Y-71315226D01*
X181539692Y-71315235D01*
X181594778Y-71319860D01*
X181594918Y-71319871D01*
X181643143Y-71323386D01*
X181643329Y-71323399D01*
X181684692Y-71325804D01*
X181684953Y-71325816D01*
X181719455Y-71327111D01*
X181719846Y-71327120D01*
X181747487Y-71327305D01*
X181748137Y-71327292D01*
X181768917Y-71326367D01*
X181770189Y-71326246D01*
X181784107Y-71324211D01*
X181787439Y-71323245D01*
X181788589Y-71322733D01*
X182122074Y-71515000D01*
X181788589Y-71707267D01*
X181787439Y-71706755D01*
X181784107Y-71705789D01*
X181770189Y-71703754D01*
X181768917Y-71703633D01*
X181748137Y-71702708D01*
X181747487Y-71702695D01*
X181719846Y-71702880D01*
X181719455Y-71702889D01*
X181684953Y-71704184D01*
X181684692Y-71704196D01*
X181643329Y-71706601D01*
X181643143Y-71706614D01*
X181594918Y-71710129D01*
X181594778Y-71710140D01*
X181539692Y-71714765D01*
X181539584Y-71714774D01*
X181477637Y-71720509D01*
X181477551Y-71720517D01*
X181422700Y-71725974D01*
X181422700Y-71304026D01*
X181477551Y-71309483D01*
G36*
X181077300Y-71725974D02*
G01*
X181022448Y-71720517D01*
X181022362Y-71720509D01*
X180960415Y-71714774D01*
X180960307Y-71714765D01*
X180905221Y-71710140D01*
X180905081Y-71710129D01*
X180856856Y-71706614D01*
X180856670Y-71706601D01*
X180815307Y-71704196D01*
X180815046Y-71704184D01*
X180780544Y-71702889D01*
X180780153Y-71702880D01*
X180752512Y-71702695D01*
X180751862Y-71702708D01*
X180731082Y-71703633D01*
X180729810Y-71703754D01*
X180715892Y-71705789D01*
X180712559Y-71706755D01*
X180711411Y-71707267D01*
X180377926Y-71515000D01*
X180711411Y-71322733D01*
X180712559Y-71323245D01*
X180715892Y-71324211D01*
X180729810Y-71326246D01*
X180731082Y-71326367D01*
X180751862Y-71327292D01*
X180752512Y-71327305D01*
X180780153Y-71327120D01*
X180780544Y-71327111D01*
X180815046Y-71325816D01*
X180815307Y-71325804D01*
X180856670Y-71323399D01*
X180856856Y-71323386D01*
X180905081Y-71319871D01*
X180905221Y-71319860D01*
X180960307Y-71315235D01*
X180960415Y-71315226D01*
X181022362Y-71309491D01*
X181022448Y-71309483D01*
X181077300Y-71304026D01*
X181077300Y-71725974D01*
G37*
X181077300Y-71725974D02*
X181022448Y-71720517D01*
X181022362Y-71720509D01*
X180960415Y-71714774D01*
X180960307Y-71714765D01*
X180905221Y-71710140D01*
X180905081Y-71710129D01*
X180856856Y-71706614D01*
X180856670Y-71706601D01*
X180815307Y-71704196D01*
X180815046Y-71704184D01*
X180780544Y-71702889D01*
X180780153Y-71702880D01*
X180752512Y-71702695D01*
X180751862Y-71702708D01*
X180731082Y-71703633D01*
X180729810Y-71703754D01*
X180715892Y-71705789D01*
X180712559Y-71706755D01*
X180711411Y-71707267D01*
X180377926Y-71515000D01*
X180711411Y-71322733D01*
X180712559Y-71323245D01*
X180715892Y-71324211D01*
X180729810Y-71326246D01*
X180731082Y-71326367D01*
X180751862Y-71327292D01*
X180752512Y-71327305D01*
X180780153Y-71327120D01*
X180780544Y-71327111D01*
X180815046Y-71325816D01*
X180815307Y-71325804D01*
X180856670Y-71323399D01*
X180856856Y-71323386D01*
X180905081Y-71319871D01*
X180905221Y-71319860D01*
X180960307Y-71315235D01*
X180960415Y-71315226D01*
X181022362Y-71309491D01*
X181022448Y-71309483D01*
X181077300Y-71304026D01*
X181077300Y-71725974D01*
G36*
X179793324Y-71240971D02*
G01*
X179795753Y-71242316D01*
X179819180Y-71252116D01*
X179820628Y-71252622D01*
X179852487Y-71261622D01*
X179853407Y-71261845D01*
X179893695Y-71270045D01*
X179894321Y-71270156D01*
X179943040Y-71277556D01*
X179943490Y-71277616D01*
X180000640Y-71284216D01*
X180000978Y-71284251D01*
X180066558Y-71290051D01*
X180066821Y-71290071D01*
X180140831Y-71295071D01*
X180141041Y-71295084D01*
X180223482Y-71299284D01*
X180223653Y-71299291D01*
X180302300Y-71302234D01*
X180302300Y-71726973D01*
X180224449Y-71725003D01*
X180224267Y-71725000D01*
X180141826Y-71724100D01*
X180141601Y-71724099D01*
X180067591Y-71724599D01*
X180067309Y-71724604D01*
X180001729Y-71726504D01*
X180001365Y-71726520D01*
X179944215Y-71729820D01*
X179943727Y-71729858D01*
X179895008Y-71734558D01*
X179894327Y-71734642D01*
X179854039Y-71740742D01*
X179853030Y-71740937D01*
X179821171Y-71748437D01*
X179819571Y-71748927D01*
X179796144Y-71757827D01*
X179793464Y-71759231D01*
X179785065Y-71765000D01*
X179325426Y-71500000D01*
X179784961Y-71235060D01*
X179793324Y-71240971D01*
G37*
X179793324Y-71240971D02*
X179795753Y-71242316D01*
X179819180Y-71252116D01*
X179820628Y-71252622D01*
X179852487Y-71261622D01*
X179853407Y-71261845D01*
X179893695Y-71270045D01*
X179894321Y-71270156D01*
X179943040Y-71277556D01*
X179943490Y-71277616D01*
X180000640Y-71284216D01*
X180000978Y-71284251D01*
X180066558Y-71290051D01*
X180066821Y-71290071D01*
X180140831Y-71295071D01*
X180141041Y-71295084D01*
X180223482Y-71299284D01*
X180223653Y-71299291D01*
X180302300Y-71302234D01*
X180302300Y-71726973D01*
X180224449Y-71725003D01*
X180224267Y-71725000D01*
X180141826Y-71724100D01*
X180141601Y-71724099D01*
X180067591Y-71724599D01*
X180067309Y-71724604D01*
X180001729Y-71726504D01*
X180001365Y-71726520D01*
X179944215Y-71729820D01*
X179943727Y-71729858D01*
X179895008Y-71734558D01*
X179894327Y-71734642D01*
X179854039Y-71740742D01*
X179853030Y-71740937D01*
X179821171Y-71748437D01*
X179819571Y-71748927D01*
X179796144Y-71757827D01*
X179793464Y-71759231D01*
X179785065Y-71765000D01*
X179325426Y-71500000D01*
X179784961Y-71235060D01*
X179793324Y-71240971D01*
G36*
X179977551Y-71309483D02*
G01*
X179977637Y-71309491D01*
X180039584Y-71315226D01*
X180039692Y-71315235D01*
X180094778Y-71319860D01*
X180094918Y-71319871D01*
X180143143Y-71323386D01*
X180143329Y-71323399D01*
X180184692Y-71325804D01*
X180184953Y-71325816D01*
X180219455Y-71327111D01*
X180219846Y-71327120D01*
X180247487Y-71327305D01*
X180248137Y-71327292D01*
X180268917Y-71326367D01*
X180270189Y-71326246D01*
X180284107Y-71324211D01*
X180287439Y-71323245D01*
X180288589Y-71322733D01*
X180622074Y-71515000D01*
X180288589Y-71707267D01*
X180287439Y-71706755D01*
X180284107Y-71705789D01*
X180270189Y-71703754D01*
X180268917Y-71703633D01*
X180248137Y-71702708D01*
X180247487Y-71702695D01*
X180219846Y-71702880D01*
X180219455Y-71702889D01*
X180184953Y-71704184D01*
X180184692Y-71704196D01*
X180143329Y-71706601D01*
X180143143Y-71706614D01*
X180094918Y-71710129D01*
X180094778Y-71710140D01*
X180039692Y-71714765D01*
X180039584Y-71714774D01*
X179977637Y-71720509D01*
X179977551Y-71720517D01*
X179922700Y-71725974D01*
X179922700Y-71304026D01*
X179977551Y-71309483D01*
G37*
X179977551Y-71309483D02*
X179977637Y-71309491D01*
X180039584Y-71315226D01*
X180039692Y-71315235D01*
X180094778Y-71319860D01*
X180094918Y-71319871D01*
X180143143Y-71323386D01*
X180143329Y-71323399D01*
X180184692Y-71325804D01*
X180184953Y-71325816D01*
X180219455Y-71327111D01*
X180219846Y-71327120D01*
X180247487Y-71327305D01*
X180248137Y-71327292D01*
X180268917Y-71326367D01*
X180270189Y-71326246D01*
X180284107Y-71324211D01*
X180287439Y-71323245D01*
X180288589Y-71322733D01*
X180622074Y-71515000D01*
X180288589Y-71707267D01*
X180287439Y-71706755D01*
X180284107Y-71705789D01*
X180270189Y-71703754D01*
X180268917Y-71703633D01*
X180248137Y-71702708D01*
X180247487Y-71702695D01*
X180219846Y-71702880D01*
X180219455Y-71702889D01*
X180184953Y-71704184D01*
X180184692Y-71704196D01*
X180143329Y-71706601D01*
X180143143Y-71706614D01*
X180094918Y-71710129D01*
X180094778Y-71710140D01*
X180039692Y-71714765D01*
X180039584Y-71714774D01*
X179977637Y-71720509D01*
X179977551Y-71720517D01*
X179922700Y-71725974D01*
X179922700Y-71304026D01*
X179977551Y-71309483D01*
G36*
X182212849Y-79788100D02*
G01*
X182212852Y-79788283D01*
X182214502Y-79868174D01*
X182214508Y-79868398D01*
X182217258Y-79940158D01*
X182217272Y-79940439D01*
X182221122Y-80004069D01*
X182221149Y-80004430D01*
X182226099Y-80059930D01*
X182226151Y-80060411D01*
X182232201Y-80107780D01*
X182232305Y-80108448D01*
X182239455Y-80147686D01*
X182239673Y-80148664D01*
X182247923Y-80179773D01*
X182248436Y-80181305D01*
X182257786Y-80204282D01*
X182259164Y-80206805D01*
X182264949Y-80215023D01*
X182000000Y-80674574D01*
X181735051Y-80215023D01*
X181740836Y-80206804D01*
X181742213Y-80204282D01*
X181751563Y-80181305D01*
X181752076Y-80179773D01*
X181760326Y-80148664D01*
X181760544Y-80147686D01*
X181767694Y-80108448D01*
X181767798Y-80107780D01*
X181773848Y-80060411D01*
X181773900Y-80059930D01*
X181778850Y-80004430D01*
X181778877Y-80004069D01*
X181782727Y-79940439D01*
X181782741Y-79940158D01*
X181785491Y-79868398D01*
X181785497Y-79868174D01*
X181787147Y-79788283D01*
X181787150Y-79788100D01*
X181787622Y-79712700D01*
X182212378Y-79712700D01*
X182212849Y-79788100D01*
G37*
X182212849Y-79788100D02*
X182212852Y-79788283D01*
X182214502Y-79868174D01*
X182214508Y-79868398D01*
X182217258Y-79940158D01*
X182217272Y-79940439D01*
X182221122Y-80004069D01*
X182221149Y-80004430D01*
X182226099Y-80059930D01*
X182226151Y-80060411D01*
X182232201Y-80107780D01*
X182232305Y-80108448D01*
X182239455Y-80147686D01*
X182239673Y-80148664D01*
X182247923Y-80179773D01*
X182248436Y-80181305D01*
X182257786Y-80204282D01*
X182259164Y-80206805D01*
X182264949Y-80215023D01*
X182000000Y-80674574D01*
X181735051Y-80215023D01*
X181740836Y-80206804D01*
X181742213Y-80204282D01*
X181751563Y-80181305D01*
X181752076Y-80179773D01*
X181760326Y-80148664D01*
X181760544Y-80147686D01*
X181767694Y-80108448D01*
X181767798Y-80107780D01*
X181773848Y-80060411D01*
X181773900Y-80059930D01*
X181778850Y-80004430D01*
X181778877Y-80004069D01*
X181782727Y-79940439D01*
X181782741Y-79940158D01*
X181785491Y-79868398D01*
X181785497Y-79868174D01*
X181787147Y-79788283D01*
X181787150Y-79788100D01*
X181787622Y-79712700D01*
X182212378Y-79712700D01*
X182212849Y-79788100D01*
G36*
X182317128Y-79587980D02*
G01*
X182302228Y-79606270D01*
X182300958Y-79608149D01*
X182282683Y-79641225D01*
X182281977Y-79642726D01*
X182265852Y-79683802D01*
X182265460Y-79684965D01*
X182251485Y-79734042D01*
X182251263Y-79734944D01*
X182239438Y-79792022D01*
X182239312Y-79792730D01*
X182229637Y-79857808D01*
X182229566Y-79858375D01*
X182222041Y-79931455D01*
X182222002Y-79931916D01*
X182216627Y-80012996D01*
X182216607Y-80013377D01*
X182213382Y-80102459D01*
X182213375Y-80102778D01*
X182212440Y-80187300D01*
X181787560Y-80187300D01*
X181786624Y-80102777D01*
X181786617Y-80102459D01*
X181783392Y-80013377D01*
X181783372Y-80012996D01*
X181777997Y-79931916D01*
X181777958Y-79931455D01*
X181770433Y-79858375D01*
X181770362Y-79857808D01*
X181760687Y-79792730D01*
X181760561Y-79792022D01*
X181748736Y-79734944D01*
X181748514Y-79734042D01*
X181734539Y-79684965D01*
X181734147Y-79683802D01*
X181718022Y-79642726D01*
X181717316Y-79641225D01*
X181699041Y-79608149D01*
X181697772Y-79606270D01*
X181682873Y-79587979D01*
X182000000Y-79037926D01*
X182317128Y-79587980D01*
G37*
X182317128Y-79587980D02*
X182302228Y-79606270D01*
X182300958Y-79608149D01*
X182282683Y-79641225D01*
X182281977Y-79642726D01*
X182265852Y-79683802D01*
X182265460Y-79684965D01*
X182251485Y-79734042D01*
X182251263Y-79734944D01*
X182239438Y-79792022D01*
X182239312Y-79792730D01*
X182229637Y-79857808D01*
X182229566Y-79858375D01*
X182222041Y-79931455D01*
X182222002Y-79931916D01*
X182216627Y-80012996D01*
X182216607Y-80013377D01*
X182213382Y-80102459D01*
X182213375Y-80102778D01*
X182212440Y-80187300D01*
X181787560Y-80187300D01*
X181786624Y-80102777D01*
X181786617Y-80102459D01*
X181783392Y-80013377D01*
X181783372Y-80012996D01*
X181777997Y-79931916D01*
X181777958Y-79931455D01*
X181770433Y-79858375D01*
X181770362Y-79857808D01*
X181760687Y-79792730D01*
X181760561Y-79792022D01*
X181748736Y-79734944D01*
X181748514Y-79734042D01*
X181734539Y-79684965D01*
X181734147Y-79683802D01*
X181718022Y-79642726D01*
X181717316Y-79641225D01*
X181699041Y-79608149D01*
X181697772Y-79606270D01*
X181682873Y-79587979D01*
X182000000Y-79037926D01*
X182317128Y-79587980D01*
G36*
X193793194Y-80490835D02*
G01*
X193795717Y-80492213D01*
X193818694Y-80501563D01*
X193820226Y-80502076D01*
X193851335Y-80510326D01*
X193852313Y-80510544D01*
X193891551Y-80517694D01*
X193892219Y-80517798D01*
X193939588Y-80523848D01*
X193940069Y-80523900D01*
X193995569Y-80528850D01*
X193995930Y-80528877D01*
X194059560Y-80532727D01*
X194059841Y-80532741D01*
X194131601Y-80535491D01*
X194131825Y-80535497D01*
X194211716Y-80537147D01*
X194211899Y-80537150D01*
X194287300Y-80537622D01*
X194287300Y-80962378D01*
X194211899Y-80962849D01*
X194211716Y-80962852D01*
X194131825Y-80964502D01*
X194131601Y-80964508D01*
X194059841Y-80967258D01*
X194059560Y-80967272D01*
X193995930Y-80971122D01*
X193995569Y-80971149D01*
X193940069Y-80976099D01*
X193939588Y-80976151D01*
X193892219Y-80982201D01*
X193891551Y-80982305D01*
X193852313Y-80989455D01*
X193851335Y-80989673D01*
X193820226Y-80997923D01*
X193818694Y-80998436D01*
X193795717Y-81007786D01*
X193793194Y-81009164D01*
X193784976Y-81014949D01*
X193325426Y-80750000D01*
X193784977Y-80485051D01*
X193793194Y-80490835D01*
G37*
X193793194Y-80490835D02*
X193795717Y-80492213D01*
X193818694Y-80501563D01*
X193820226Y-80502076D01*
X193851335Y-80510326D01*
X193852313Y-80510544D01*
X193891551Y-80517694D01*
X193892219Y-80517798D01*
X193939588Y-80523848D01*
X193940069Y-80523900D01*
X193995569Y-80528850D01*
X193995930Y-80528877D01*
X194059560Y-80532727D01*
X194059841Y-80532741D01*
X194131601Y-80535491D01*
X194131825Y-80535497D01*
X194211716Y-80537147D01*
X194211899Y-80537150D01*
X194287300Y-80537622D01*
X194287300Y-80962378D01*
X194211899Y-80962849D01*
X194211716Y-80962852D01*
X194131825Y-80964502D01*
X194131601Y-80964508D01*
X194059841Y-80967258D01*
X194059560Y-80967272D01*
X193995930Y-80971122D01*
X193995569Y-80971149D01*
X193940069Y-80976099D01*
X193939588Y-80976151D01*
X193892219Y-80982201D01*
X193891551Y-80982305D01*
X193852313Y-80989455D01*
X193851335Y-80989673D01*
X193820226Y-80997923D01*
X193818694Y-80998436D01*
X193795717Y-81007786D01*
X193793194Y-81009164D01*
X193784976Y-81014949D01*
X193325426Y-80750000D01*
X193784977Y-80485051D01*
X193793194Y-80490835D01*
G36*
X197349574Y-80750000D02*
G01*
X196466087Y-81259364D01*
X196410370Y-81208611D01*
X196409290Y-81207730D01*
X196339190Y-81156730D01*
X196338087Y-81156013D01*
X196260462Y-81111013D01*
X196259381Y-81110453D01*
X196174230Y-81071453D01*
X196173202Y-81071036D01*
X196080525Y-81038036D01*
X196079569Y-81037737D01*
X195979367Y-81010737D01*
X195978493Y-81010535D01*
X195870766Y-80989535D01*
X195869975Y-80989406D01*
X195754721Y-80974406D01*
X195754010Y-80974334D01*
X195631232Y-80965334D01*
X195630596Y-80965303D01*
X195512700Y-80962589D01*
X195512700Y-80537411D01*
X195630596Y-80534697D01*
X195631232Y-80534666D01*
X195754010Y-80525666D01*
X195754721Y-80525594D01*
X195869975Y-80510594D01*
X195870766Y-80510465D01*
X195978493Y-80489465D01*
X195979367Y-80489263D01*
X196079569Y-80462263D01*
X196080525Y-80461964D01*
X196173202Y-80428964D01*
X196174230Y-80428547D01*
X196259381Y-80389547D01*
X196260462Y-80388987D01*
X196338087Y-80343987D01*
X196339190Y-80343270D01*
X196409290Y-80292270D01*
X196410370Y-80291389D01*
X196466087Y-80240636D01*
X197349574Y-80750000D01*
G37*
X197349574Y-80750000D02*
X196466087Y-81259364D01*
X196410370Y-81208611D01*
X196409290Y-81207730D01*
X196339190Y-81156730D01*
X196338087Y-81156013D01*
X196260462Y-81111013D01*
X196259381Y-81110453D01*
X196174230Y-81071453D01*
X196173202Y-81071036D01*
X196080525Y-81038036D01*
X196079569Y-81037737D01*
X195979367Y-81010737D01*
X195978493Y-81010535D01*
X195870766Y-80989535D01*
X195869975Y-80989406D01*
X195754721Y-80974406D01*
X195754010Y-80974334D01*
X195631232Y-80965334D01*
X195630596Y-80965303D01*
X195512700Y-80962589D01*
X195512700Y-80537411D01*
X195630596Y-80534697D01*
X195631232Y-80534666D01*
X195754010Y-80525666D01*
X195754721Y-80525594D01*
X195869975Y-80510594D01*
X195870766Y-80510465D01*
X195978493Y-80489465D01*
X195979367Y-80489263D01*
X196079569Y-80462263D01*
X196080525Y-80461964D01*
X196173202Y-80428964D01*
X196174230Y-80428547D01*
X196259381Y-80389547D01*
X196260462Y-80388987D01*
X196338087Y-80343987D01*
X196339190Y-80343270D01*
X196409290Y-80292270D01*
X196410370Y-80291389D01*
X196466087Y-80240636D01*
X197349574Y-80750000D01*
G36*
X193793194Y-88990835D02*
G01*
X193795717Y-88992213D01*
X193818694Y-89001563D01*
X193820226Y-89002076D01*
X193851335Y-89010326D01*
X193852313Y-89010544D01*
X193891551Y-89017694D01*
X193892219Y-89017798D01*
X193939588Y-89023848D01*
X193940069Y-89023900D01*
X193995569Y-89028850D01*
X193995930Y-89028877D01*
X194059560Y-89032727D01*
X194059841Y-89032741D01*
X194131601Y-89035491D01*
X194131825Y-89035497D01*
X194211716Y-89037147D01*
X194211899Y-89037150D01*
X194287300Y-89037622D01*
X194287300Y-89462378D01*
X194211899Y-89462849D01*
X194211716Y-89462852D01*
X194131825Y-89464502D01*
X194131601Y-89464508D01*
X194059841Y-89467258D01*
X194059560Y-89467272D01*
X193995930Y-89471122D01*
X193995569Y-89471149D01*
X193940069Y-89476099D01*
X193939588Y-89476151D01*
X193892219Y-89482201D01*
X193891551Y-89482305D01*
X193852313Y-89489455D01*
X193851335Y-89489673D01*
X193820226Y-89497923D01*
X193818694Y-89498436D01*
X193795717Y-89507786D01*
X193793194Y-89509164D01*
X193784976Y-89514949D01*
X193325426Y-89250000D01*
X193784977Y-88985051D01*
X193793194Y-88990835D01*
G37*
X193793194Y-88990835D02*
X193795717Y-88992213D01*
X193818694Y-89001563D01*
X193820226Y-89002076D01*
X193851335Y-89010326D01*
X193852313Y-89010544D01*
X193891551Y-89017694D01*
X193892219Y-89017798D01*
X193939588Y-89023848D01*
X193940069Y-89023900D01*
X193995569Y-89028850D01*
X193995930Y-89028877D01*
X194059560Y-89032727D01*
X194059841Y-89032741D01*
X194131601Y-89035491D01*
X194131825Y-89035497D01*
X194211716Y-89037147D01*
X194211899Y-89037150D01*
X194287300Y-89037622D01*
X194287300Y-89462378D01*
X194211899Y-89462849D01*
X194211716Y-89462852D01*
X194131825Y-89464502D01*
X194131601Y-89464508D01*
X194059841Y-89467258D01*
X194059560Y-89467272D01*
X193995930Y-89471122D01*
X193995569Y-89471149D01*
X193940069Y-89476099D01*
X193939588Y-89476151D01*
X193892219Y-89482201D01*
X193891551Y-89482305D01*
X193852313Y-89489455D01*
X193851335Y-89489673D01*
X193820226Y-89497923D01*
X193818694Y-89498436D01*
X193795717Y-89507786D01*
X193793194Y-89509164D01*
X193784976Y-89514949D01*
X193325426Y-89250000D01*
X193784977Y-88985051D01*
X193793194Y-88990835D01*
G36*
X197349574Y-89250000D02*
G01*
X196466087Y-89759364D01*
X196410370Y-89708611D01*
X196409290Y-89707730D01*
X196339190Y-89656730D01*
X196338087Y-89656013D01*
X196260462Y-89611013D01*
X196259381Y-89610453D01*
X196174230Y-89571453D01*
X196173202Y-89571036D01*
X196080525Y-89538036D01*
X196079569Y-89537737D01*
X195979367Y-89510737D01*
X195978493Y-89510535D01*
X195870766Y-89489535D01*
X195869975Y-89489406D01*
X195754721Y-89474406D01*
X195754010Y-89474334D01*
X195631232Y-89465334D01*
X195630596Y-89465303D01*
X195512700Y-89462589D01*
X195512700Y-89037411D01*
X195630596Y-89034697D01*
X195631232Y-89034666D01*
X195754010Y-89025666D01*
X195754721Y-89025594D01*
X195869975Y-89010594D01*
X195870766Y-89010465D01*
X195978493Y-88989465D01*
X195979367Y-88989263D01*
X196079569Y-88962263D01*
X196080525Y-88961964D01*
X196173202Y-88928964D01*
X196174230Y-88928547D01*
X196259381Y-88889547D01*
X196260462Y-88888987D01*
X196338087Y-88843987D01*
X196339190Y-88843270D01*
X196409290Y-88792270D01*
X196410370Y-88791389D01*
X196466087Y-88740636D01*
X197349574Y-89250000D01*
G37*
X197349574Y-89250000D02*
X196466087Y-89759364D01*
X196410370Y-89708611D01*
X196409290Y-89707730D01*
X196339190Y-89656730D01*
X196338087Y-89656013D01*
X196260462Y-89611013D01*
X196259381Y-89610453D01*
X196174230Y-89571453D01*
X196173202Y-89571036D01*
X196080525Y-89538036D01*
X196079569Y-89537737D01*
X195979367Y-89510737D01*
X195978493Y-89510535D01*
X195870766Y-89489535D01*
X195869975Y-89489406D01*
X195754721Y-89474406D01*
X195754010Y-89474334D01*
X195631232Y-89465334D01*
X195630596Y-89465303D01*
X195512700Y-89462589D01*
X195512700Y-89037411D01*
X195630596Y-89034697D01*
X195631232Y-89034666D01*
X195754010Y-89025666D01*
X195754721Y-89025594D01*
X195869975Y-89010594D01*
X195870766Y-89010465D01*
X195978493Y-88989465D01*
X195979367Y-88989263D01*
X196079569Y-88962263D01*
X196080525Y-88961964D01*
X196173202Y-88928964D01*
X196174230Y-88928547D01*
X196259381Y-88889547D01*
X196260462Y-88888987D01*
X196338087Y-88843987D01*
X196339190Y-88843270D01*
X196409290Y-88792270D01*
X196410370Y-88791389D01*
X196466087Y-88740636D01*
X197349574Y-89250000D01*
G36*
X192235838Y-78638855D02*
G01*
X192225937Y-78640576D01*
X192223179Y-78641385D01*
X192200320Y-78651021D01*
X192198875Y-78651742D01*
X192171044Y-78667906D01*
X192170197Y-78668443D01*
X192137395Y-78691133D01*
X192136850Y-78691532D01*
X192099078Y-78720749D01*
X192098701Y-78721052D01*
X192055956Y-78756796D01*
X192055681Y-78757033D01*
X192007966Y-78799304D01*
X192007758Y-78799492D01*
X191955071Y-78848289D01*
X191954908Y-78848443D01*
X191897250Y-78903768D01*
X191897119Y-78903896D01*
X191843470Y-78956880D01*
X191543120Y-78656530D01*
X191596103Y-78602880D01*
X191596231Y-78602749D01*
X191651556Y-78545091D01*
X191651710Y-78544928D01*
X191700507Y-78492241D01*
X191700695Y-78492033D01*
X191742966Y-78444318D01*
X191743202Y-78444043D01*
X191778946Y-78401299D01*
X191779250Y-78400922D01*
X191808467Y-78363149D01*
X191808866Y-78362604D01*
X191831556Y-78329802D01*
X191832093Y-78328955D01*
X191848257Y-78301124D01*
X191848978Y-78299679D01*
X191858614Y-78276820D01*
X191859423Y-78274063D01*
X191861144Y-78264162D01*
X192373442Y-78126558D01*
X192235838Y-78638855D01*
G37*
X192235838Y-78638855D02*
X192225937Y-78640576D01*
X192223179Y-78641385D01*
X192200320Y-78651021D01*
X192198875Y-78651742D01*
X192171044Y-78667906D01*
X192170197Y-78668443D01*
X192137395Y-78691133D01*
X192136850Y-78691532D01*
X192099078Y-78720749D01*
X192098701Y-78721052D01*
X192055956Y-78756796D01*
X192055681Y-78757033D01*
X192007966Y-78799304D01*
X192007758Y-78799492D01*
X191955071Y-78848289D01*
X191954908Y-78848443D01*
X191897250Y-78903768D01*
X191897119Y-78903896D01*
X191843470Y-78956880D01*
X191543120Y-78656530D01*
X191596103Y-78602880D01*
X191596231Y-78602749D01*
X191651556Y-78545091D01*
X191651710Y-78544928D01*
X191700507Y-78492241D01*
X191700695Y-78492033D01*
X191742966Y-78444318D01*
X191743202Y-78444043D01*
X191778946Y-78401299D01*
X191779250Y-78400922D01*
X191808467Y-78363149D01*
X191808866Y-78362604D01*
X191831556Y-78329802D01*
X191832093Y-78328955D01*
X191848257Y-78301124D01*
X191848978Y-78299679D01*
X191858614Y-78276820D01*
X191859423Y-78274063D01*
X191861144Y-78264162D01*
X192373442Y-78126558D01*
X192235838Y-78638855D01*
G36*
X185985887Y-51388674D02*
G01*
X185973697Y-51390533D01*
X185971770Y-51390983D01*
X185941411Y-51400619D01*
X185940528Y-51400936D01*
X185900197Y-51417100D01*
X185899700Y-51417311D01*
X185849398Y-51440001D01*
X185849080Y-51440150D01*
X185788808Y-51469367D01*
X185788588Y-51469476D01*
X185718343Y-51505220D01*
X185718182Y-51505304D01*
X185637967Y-51547575D01*
X185637844Y-51547640D01*
X185547657Y-51596437D01*
X185547560Y-51596490D01*
X185447402Y-51651815D01*
X185447324Y-51651859D01*
X185345588Y-51708998D01*
X185045941Y-51409351D01*
X185140879Y-51354976D01*
X185141016Y-51354897D01*
X185238841Y-51297239D01*
X185239010Y-51297137D01*
X185325307Y-51244450D01*
X185325521Y-51244317D01*
X185400292Y-51196602D01*
X185400572Y-51196418D01*
X185463816Y-51153674D01*
X185464195Y-51153408D01*
X185515912Y-51115635D01*
X185516451Y-51115218D01*
X185556641Y-51082416D01*
X185557458Y-51081689D01*
X185586122Y-51053858D01*
X185587437Y-51052364D01*
X185604573Y-51029505D01*
X185605864Y-51027376D01*
X185606529Y-51025688D01*
X185610052Y-51014455D01*
X186123442Y-50876558D01*
X185985887Y-51388674D01*
G37*
X185985887Y-51388674D02*
X185973697Y-51390533D01*
X185971770Y-51390983D01*
X185941411Y-51400619D01*
X185940528Y-51400936D01*
X185900197Y-51417100D01*
X185899700Y-51417311D01*
X185849398Y-51440001D01*
X185849080Y-51440150D01*
X185788808Y-51469367D01*
X185788588Y-51469476D01*
X185718343Y-51505220D01*
X185718182Y-51505304D01*
X185637967Y-51547575D01*
X185637844Y-51547640D01*
X185547657Y-51596437D01*
X185547560Y-51596490D01*
X185447402Y-51651815D01*
X185447324Y-51651859D01*
X185345588Y-51708998D01*
X185045941Y-51409351D01*
X185140879Y-51354976D01*
X185141016Y-51354897D01*
X185238841Y-51297239D01*
X185239010Y-51297137D01*
X185325307Y-51244450D01*
X185325521Y-51244317D01*
X185400292Y-51196602D01*
X185400572Y-51196418D01*
X185463816Y-51153674D01*
X185464195Y-51153408D01*
X185515912Y-51115635D01*
X185516451Y-51115218D01*
X185556641Y-51082416D01*
X185557458Y-51081689D01*
X185586122Y-51053858D01*
X185587437Y-51052364D01*
X185604573Y-51029505D01*
X185605864Y-51027376D01*
X185606529Y-51025688D01*
X185610052Y-51014455D01*
X186123442Y-50876558D01*
X185985887Y-51388674D01*
G36*
X185452003Y-51598643D02*
G01*
X185370556Y-51683928D01*
X185370128Y-51684399D01*
X185289674Y-51777580D01*
X185289223Y-51778134D01*
X185218334Y-51870237D01*
X185217865Y-51870887D01*
X185156539Y-51961911D01*
X185156065Y-51962672D01*
X185104303Y-52052618D01*
X185103838Y-52053506D01*
X185061641Y-52142373D01*
X185061209Y-52143395D01*
X185028575Y-52231183D01*
X185028206Y-52232343D01*
X185005136Y-52319052D01*
X185004864Y-52320338D01*
X184991358Y-52405969D01*
X184991217Y-52407357D01*
X184987708Y-52482642D01*
X184002814Y-52747186D01*
X184267358Y-51762292D01*
X184342642Y-51758782D01*
X184344030Y-51758641D01*
X184429661Y-51745135D01*
X184430947Y-51744863D01*
X184517656Y-51721793D01*
X184518816Y-51721424D01*
X184606605Y-51688790D01*
X184607628Y-51688358D01*
X184696494Y-51646161D01*
X184697381Y-51645696D01*
X184787327Y-51593934D01*
X184788088Y-51593460D01*
X184879112Y-51532134D01*
X184879762Y-51531665D01*
X184971865Y-51460776D01*
X184972419Y-51460325D01*
X185065600Y-51379871D01*
X185066071Y-51379443D01*
X185151357Y-51297997D01*
X185452003Y-51598643D01*
G37*
X185452003Y-51598643D02*
X185370556Y-51683928D01*
X185370128Y-51684399D01*
X185289674Y-51777580D01*
X185289223Y-51778134D01*
X185218334Y-51870237D01*
X185217865Y-51870887D01*
X185156539Y-51961911D01*
X185156065Y-51962672D01*
X185104303Y-52052618D01*
X185103838Y-52053506D01*
X185061641Y-52142373D01*
X185061209Y-52143395D01*
X185028575Y-52231183D01*
X185028206Y-52232343D01*
X185005136Y-52319052D01*
X185004864Y-52320338D01*
X184991358Y-52405969D01*
X184991217Y-52407357D01*
X184987708Y-52482642D01*
X184002814Y-52747186D01*
X184267358Y-51762292D01*
X184342642Y-51758782D01*
X184344030Y-51758641D01*
X184429661Y-51745135D01*
X184430947Y-51744863D01*
X184517656Y-51721793D01*
X184518816Y-51721424D01*
X184606605Y-51688790D01*
X184607628Y-51688358D01*
X184696494Y-51646161D01*
X184697381Y-51645696D01*
X184787327Y-51593934D01*
X184788088Y-51593460D01*
X184879112Y-51532134D01*
X184879762Y-51531665D01*
X184971865Y-51460776D01*
X184972419Y-51460325D01*
X185065600Y-51379871D01*
X185066071Y-51379443D01*
X185151357Y-51297997D01*
X185452003Y-51598643D01*
G36*
X174043194Y-52240835D02*
G01*
X174045717Y-52242213D01*
X174068694Y-52251563D01*
X174070226Y-52252076D01*
X174101335Y-52260326D01*
X174102313Y-52260544D01*
X174141551Y-52267694D01*
X174142219Y-52267798D01*
X174189588Y-52273848D01*
X174190069Y-52273900D01*
X174245569Y-52278850D01*
X174245930Y-52278877D01*
X174309560Y-52282727D01*
X174309841Y-52282741D01*
X174381601Y-52285491D01*
X174381825Y-52285497D01*
X174461716Y-52287147D01*
X174461899Y-52287150D01*
X174537300Y-52287622D01*
X174537300Y-52712378D01*
X174461899Y-52712849D01*
X174461716Y-52712852D01*
X174381825Y-52714502D01*
X174381601Y-52714508D01*
X174309841Y-52717258D01*
X174309560Y-52717272D01*
X174245930Y-52721122D01*
X174245569Y-52721149D01*
X174190069Y-52726099D01*
X174189588Y-52726151D01*
X174142219Y-52732201D01*
X174141551Y-52732305D01*
X174102313Y-52739455D01*
X174101335Y-52739673D01*
X174070226Y-52747923D01*
X174068694Y-52748436D01*
X174045717Y-52757786D01*
X174043194Y-52759164D01*
X174034976Y-52764949D01*
X173575426Y-52500000D01*
X174034977Y-52235051D01*
X174043194Y-52240835D01*
G37*
X174043194Y-52240835D02*
X174045717Y-52242213D01*
X174068694Y-52251563D01*
X174070226Y-52252076D01*
X174101335Y-52260326D01*
X174102313Y-52260544D01*
X174141551Y-52267694D01*
X174142219Y-52267798D01*
X174189588Y-52273848D01*
X174190069Y-52273900D01*
X174245569Y-52278850D01*
X174245930Y-52278877D01*
X174309560Y-52282727D01*
X174309841Y-52282741D01*
X174381601Y-52285491D01*
X174381825Y-52285497D01*
X174461716Y-52287147D01*
X174461899Y-52287150D01*
X174537300Y-52287622D01*
X174537300Y-52712378D01*
X174461899Y-52712849D01*
X174461716Y-52712852D01*
X174381825Y-52714502D01*
X174381601Y-52714508D01*
X174309841Y-52717258D01*
X174309560Y-52717272D01*
X174245930Y-52721122D01*
X174245569Y-52721149D01*
X174190069Y-52726099D01*
X174189588Y-52726151D01*
X174142219Y-52732201D01*
X174141551Y-52732305D01*
X174102313Y-52739455D01*
X174101335Y-52739673D01*
X174070226Y-52747923D01*
X174068694Y-52748436D01*
X174045717Y-52757786D01*
X174043194Y-52759164D01*
X174034976Y-52764949D01*
X173575426Y-52500000D01*
X174034977Y-52235051D01*
X174043194Y-52240835D01*
G36*
X176099574Y-52500000D02*
G01*
X175216087Y-53009364D01*
X175160370Y-52958611D01*
X175159290Y-52957730D01*
X175089190Y-52906730D01*
X175088087Y-52906013D01*
X175010462Y-52861013D01*
X175009381Y-52860453D01*
X174924230Y-52821453D01*
X174923202Y-52821036D01*
X174830525Y-52788036D01*
X174829569Y-52787737D01*
X174729367Y-52760737D01*
X174728493Y-52760535D01*
X174620766Y-52739535D01*
X174619975Y-52739406D01*
X174504721Y-52724406D01*
X174504010Y-52724334D01*
X174381232Y-52715334D01*
X174380596Y-52715303D01*
X174262700Y-52712589D01*
X174262700Y-52287411D01*
X174380596Y-52284697D01*
X174381232Y-52284666D01*
X174504010Y-52275666D01*
X174504721Y-52275594D01*
X174619975Y-52260594D01*
X174620766Y-52260465D01*
X174728493Y-52239465D01*
X174729367Y-52239263D01*
X174829569Y-52212263D01*
X174830525Y-52211964D01*
X174923202Y-52178964D01*
X174924230Y-52178547D01*
X175009381Y-52139547D01*
X175010462Y-52138987D01*
X175088087Y-52093987D01*
X175089190Y-52093270D01*
X175159290Y-52042270D01*
X175160370Y-52041389D01*
X175216087Y-51990636D01*
X176099574Y-52500000D01*
G37*
X176099574Y-52500000D02*
X175216087Y-53009364D01*
X175160370Y-52958611D01*
X175159290Y-52957730D01*
X175089190Y-52906730D01*
X175088087Y-52906013D01*
X175010462Y-52861013D01*
X175009381Y-52860453D01*
X174924230Y-52821453D01*
X174923202Y-52821036D01*
X174830525Y-52788036D01*
X174829569Y-52787737D01*
X174729367Y-52760737D01*
X174728493Y-52760535D01*
X174620766Y-52739535D01*
X174619975Y-52739406D01*
X174504721Y-52724406D01*
X174504010Y-52724334D01*
X174381232Y-52715334D01*
X174380596Y-52715303D01*
X174262700Y-52712589D01*
X174262700Y-52287411D01*
X174380596Y-52284697D01*
X174381232Y-52284666D01*
X174504010Y-52275666D01*
X174504721Y-52275594D01*
X174619975Y-52260594D01*
X174620766Y-52260465D01*
X174728493Y-52239465D01*
X174729367Y-52239263D01*
X174829569Y-52212263D01*
X174830525Y-52211964D01*
X174923202Y-52178964D01*
X174924230Y-52178547D01*
X175009381Y-52139547D01*
X175010462Y-52138987D01*
X175088087Y-52093987D01*
X175089190Y-52093270D01*
X175159290Y-52042270D01*
X175160370Y-52041389D01*
X175216087Y-51990636D01*
X176099574Y-52500000D01*
G36*
X182517671Y-75542320D02*
G01*
X182446579Y-75617438D01*
X182445928Y-75618182D01*
X182376500Y-75704036D01*
X182375887Y-75704860D01*
X182314627Y-75794575D01*
X182314069Y-75795470D01*
X182260977Y-75889045D01*
X182260490Y-75889995D01*
X182215566Y-75987432D01*
X182215161Y-75988417D01*
X182178405Y-76089714D01*
X182178088Y-76090714D01*
X182149500Y-76195872D01*
X182149272Y-76196866D01*
X182128852Y-76305886D01*
X182128709Y-76306854D01*
X182116457Y-76419734D01*
X182116391Y-76420660D01*
X182112737Y-76525145D01*
X181887263Y-76525145D01*
X181883608Y-76420660D01*
X181883542Y-76419734D01*
X181871290Y-76306854D01*
X181871147Y-76305886D01*
X181850727Y-76196866D01*
X181850499Y-76195872D01*
X181821911Y-76090714D01*
X181821594Y-76089714D01*
X181784838Y-75988417D01*
X181784433Y-75987432D01*
X181739509Y-75889995D01*
X181739022Y-75889045D01*
X181685930Y-75795470D01*
X181685372Y-75794575D01*
X181624112Y-75704860D01*
X181623499Y-75704036D01*
X181554071Y-75618182D01*
X181553420Y-75617438D01*
X181482329Y-75542320D01*
X182000000Y-74644426D01*
X182517671Y-75542320D01*
G37*
X182517671Y-75542320D02*
X182446579Y-75617438D01*
X182445928Y-75618182D01*
X182376500Y-75704036D01*
X182375887Y-75704860D01*
X182314627Y-75794575D01*
X182314069Y-75795470D01*
X182260977Y-75889045D01*
X182260490Y-75889995D01*
X182215566Y-75987432D01*
X182215161Y-75988417D01*
X182178405Y-76089714D01*
X182178088Y-76090714D01*
X182149500Y-76195872D01*
X182149272Y-76196866D01*
X182128852Y-76305886D01*
X182128709Y-76306854D01*
X182116457Y-76419734D01*
X182116391Y-76420660D01*
X182112737Y-76525145D01*
X181887263Y-76525145D01*
X181883608Y-76420660D01*
X181883542Y-76419734D01*
X181871290Y-76306854D01*
X181871147Y-76305886D01*
X181850727Y-76196866D01*
X181850499Y-76195872D01*
X181821911Y-76090714D01*
X181821594Y-76089714D01*
X181784838Y-75988417D01*
X181784433Y-75987432D01*
X181739509Y-75889995D01*
X181739022Y-75889045D01*
X181685930Y-75795470D01*
X181685372Y-75794575D01*
X181624112Y-75704860D01*
X181623499Y-75704036D01*
X181554071Y-75618182D01*
X181553420Y-75617438D01*
X181482329Y-75542320D01*
X182000000Y-74644426D01*
X182517671Y-75542320D01*
G36*
X182114378Y-76629769D02*
G01*
X182114417Y-76630484D01*
X182120642Y-76705842D01*
X182120731Y-76706625D01*
X182131106Y-76777904D01*
X182131261Y-76778758D01*
X182145786Y-76845956D01*
X182146021Y-76846876D01*
X182164696Y-76909994D01*
X182165028Y-76910971D01*
X182187853Y-76970010D01*
X182188298Y-76971026D01*
X182215273Y-77025984D01*
X182215840Y-77027016D01*
X182246965Y-77077894D01*
X182247657Y-77078910D01*
X182282932Y-77125708D01*
X182283741Y-77126677D01*
X182316832Y-77162532D01*
X182000000Y-77712074D01*
X181683167Y-77162532D01*
X181716258Y-77126677D01*
X181717067Y-77125708D01*
X181752342Y-77078910D01*
X181753034Y-77077894D01*
X181784159Y-77027016D01*
X181784726Y-77025984D01*
X181811701Y-76971026D01*
X181812146Y-76970010D01*
X181834971Y-76910971D01*
X181835303Y-76909994D01*
X181853978Y-76846876D01*
X181854213Y-76845956D01*
X181868738Y-76778758D01*
X181868893Y-76777904D01*
X181879268Y-76706625D01*
X181879357Y-76705842D01*
X181885582Y-76630484D01*
X181885621Y-76629770D01*
X181887373Y-76562700D01*
X182112627Y-76562700D01*
X182114378Y-76629769D01*
G37*
X182114378Y-76629769D02*
X182114417Y-76630484D01*
X182120642Y-76705842D01*
X182120731Y-76706625D01*
X182131106Y-76777904D01*
X182131261Y-76778758D01*
X182145786Y-76845956D01*
X182146021Y-76846876D01*
X182164696Y-76909994D01*
X182165028Y-76910971D01*
X182187853Y-76970010D01*
X182188298Y-76971026D01*
X182215273Y-77025984D01*
X182215840Y-77027016D01*
X182246965Y-77077894D01*
X182247657Y-77078910D01*
X182282932Y-77125708D01*
X182283741Y-77126677D01*
X182316832Y-77162532D01*
X182000000Y-77712074D01*
X181683167Y-77162532D01*
X181716258Y-77126677D01*
X181717067Y-77125708D01*
X181752342Y-77078910D01*
X181753034Y-77077894D01*
X181784159Y-77027016D01*
X181784726Y-77025984D01*
X181811701Y-76971026D01*
X181812146Y-76970010D01*
X181834971Y-76910971D01*
X181835303Y-76909994D01*
X181853978Y-76846876D01*
X181854213Y-76845956D01*
X181868738Y-76778758D01*
X181868893Y-76777904D01*
X181879268Y-76706625D01*
X181879357Y-76705842D01*
X181885582Y-76630484D01*
X181885621Y-76629770D01*
X181887373Y-76562700D01*
X182112627Y-76562700D01*
X182114378Y-76629769D01*
G36*
X180691023Y-72694254D02*
G01*
X180681349Y-72705607D01*
X180680192Y-72707199D01*
X180666337Y-72729763D01*
X180665594Y-72731162D01*
X180653369Y-72758117D01*
X180652904Y-72759296D01*
X180642309Y-72790642D01*
X180642022Y-72791619D01*
X180633057Y-72827357D01*
X180632882Y-72828163D01*
X180625547Y-72868291D01*
X180625443Y-72868961D01*
X180619738Y-72913480D01*
X180619679Y-72914040D01*
X180615604Y-72962951D01*
X180615573Y-72963423D01*
X180613128Y-73016725D01*
X180613116Y-73017128D01*
X180612478Y-73062300D01*
X180387522Y-73062300D01*
X180386884Y-73017128D01*
X180386872Y-73016725D01*
X180384427Y-72963423D01*
X180384396Y-72962951D01*
X180380321Y-72914040D01*
X180380262Y-72913480D01*
X180374557Y-72868961D01*
X180374453Y-72868291D01*
X180367118Y-72828163D01*
X180366943Y-72827357D01*
X180357978Y-72791619D01*
X180357691Y-72790642D01*
X180347096Y-72759296D01*
X180346631Y-72758117D01*
X180334406Y-72731162D01*
X180333663Y-72729763D01*
X180319808Y-72707199D01*
X180318651Y-72705607D01*
X180308977Y-72694254D01*
X180500000Y-72362926D01*
X180691023Y-72694254D01*
G37*
X180691023Y-72694254D02*
X180681349Y-72705607D01*
X180680192Y-72707199D01*
X180666337Y-72729763D01*
X180665594Y-72731162D01*
X180653369Y-72758117D01*
X180652904Y-72759296D01*
X180642309Y-72790642D01*
X180642022Y-72791619D01*
X180633057Y-72827357D01*
X180632882Y-72828163D01*
X180625547Y-72868291D01*
X180625443Y-72868961D01*
X180619738Y-72913480D01*
X180619679Y-72914040D01*
X180615604Y-72962951D01*
X180615573Y-72963423D01*
X180613128Y-73016725D01*
X180613116Y-73017128D01*
X180612478Y-73062300D01*
X180387522Y-73062300D01*
X180386884Y-73017128D01*
X180386872Y-73016725D01*
X180384427Y-72963423D01*
X180384396Y-72962951D01*
X180380321Y-72914040D01*
X180380262Y-72913480D01*
X180374557Y-72868961D01*
X180374453Y-72868291D01*
X180367118Y-72828163D01*
X180366943Y-72827357D01*
X180357978Y-72791619D01*
X180357691Y-72790642D01*
X180347096Y-72759296D01*
X180346631Y-72758117D01*
X180334406Y-72731162D01*
X180333663Y-72729763D01*
X180319808Y-72707199D01*
X180318651Y-72705607D01*
X180308977Y-72694254D01*
X180500000Y-72362926D01*
X180691023Y-72694254D01*
G36*
X181077743Y-73913140D02*
G01*
X181078445Y-73913748D01*
X181166926Y-73984903D01*
X181167712Y-73985486D01*
X181259239Y-74048135D01*
X181260102Y-74048677D01*
X181354675Y-74102820D01*
X181355606Y-74103303D01*
X181453225Y-74148941D01*
X181454209Y-74149351D01*
X181554873Y-74186483D01*
X181555889Y-74186810D01*
X181659598Y-74215436D01*
X181660625Y-74215674D01*
X181767380Y-74235795D01*
X181768396Y-74235945D01*
X181878197Y-74247559D01*
X181879183Y-74247624D01*
X181982570Y-74250473D01*
X182251428Y-75251428D01*
X181250473Y-74982570D01*
X181247624Y-74879183D01*
X181247559Y-74878197D01*
X181235945Y-74768396D01*
X181235795Y-74767380D01*
X181215674Y-74660625D01*
X181215436Y-74659598D01*
X181186810Y-74555889D01*
X181186483Y-74554873D01*
X181149351Y-74454209D01*
X181148941Y-74453225D01*
X181103303Y-74355606D01*
X181102820Y-74354675D01*
X181048677Y-74260102D01*
X181048135Y-74259239D01*
X180985486Y-74167712D01*
X180984903Y-74166926D01*
X180913748Y-74078445D01*
X180913140Y-74077743D01*
X180841843Y-74001276D01*
X181001276Y-73841843D01*
X181077743Y-73913140D01*
G37*
X181077743Y-73913140D02*
X181078445Y-73913748D01*
X181166926Y-73984903D01*
X181167712Y-73985486D01*
X181259239Y-74048135D01*
X181260102Y-74048677D01*
X181354675Y-74102820D01*
X181355606Y-74103303D01*
X181453225Y-74148941D01*
X181454209Y-74149351D01*
X181554873Y-74186483D01*
X181555889Y-74186810D01*
X181659598Y-74215436D01*
X181660625Y-74215674D01*
X181767380Y-74235795D01*
X181768396Y-74235945D01*
X181878197Y-74247559D01*
X181879183Y-74247624D01*
X181982570Y-74250473D01*
X182251428Y-75251428D01*
X181250473Y-74982570D01*
X181247624Y-74879183D01*
X181247559Y-74878197D01*
X181235945Y-74768396D01*
X181235795Y-74767380D01*
X181215674Y-74660625D01*
X181215436Y-74659598D01*
X181186810Y-74555889D01*
X181186483Y-74554873D01*
X181149351Y-74454209D01*
X181148941Y-74453225D01*
X181103303Y-74355606D01*
X181102820Y-74354675D01*
X181048677Y-74260102D01*
X181048135Y-74259239D01*
X180985486Y-74167712D01*
X180984903Y-74166926D01*
X180913748Y-74078445D01*
X180913140Y-74077743D01*
X180841843Y-74001276D01*
X181001276Y-73841843D01*
X181077743Y-73913140D01*
G36*
X182355574Y-75000000D02*
G01*
X181457680Y-75517671D01*
X181382561Y-75446579D01*
X181381817Y-75445928D01*
X181295963Y-75376500D01*
X181295139Y-75375887D01*
X181205424Y-75314627D01*
X181204529Y-75314069D01*
X181110954Y-75260977D01*
X181110004Y-75260490D01*
X181012567Y-75215566D01*
X181011582Y-75215161D01*
X180910285Y-75178405D01*
X180909285Y-75178088D01*
X180804127Y-75149500D01*
X180803133Y-75149272D01*
X180694114Y-75128852D01*
X180693146Y-75128709D01*
X180580265Y-75116457D01*
X180579339Y-75116391D01*
X180474855Y-75112737D01*
X180474855Y-74887263D01*
X180579339Y-74883608D01*
X180580265Y-74883542D01*
X180693146Y-74871290D01*
X180694114Y-74871147D01*
X180803133Y-74850727D01*
X180804127Y-74850499D01*
X180909285Y-74821911D01*
X180910285Y-74821594D01*
X181011582Y-74784838D01*
X181012567Y-74784433D01*
X181110004Y-74739509D01*
X181110954Y-74739022D01*
X181204529Y-74685930D01*
X181205424Y-74685372D01*
X181295139Y-74624112D01*
X181295963Y-74623499D01*
X181381817Y-74554071D01*
X181382561Y-74553420D01*
X181457680Y-74482329D01*
X182355574Y-75000000D01*
G37*
X182355574Y-75000000D02*
X181457680Y-75517671D01*
X181382561Y-75446579D01*
X181381817Y-75445928D01*
X181295963Y-75376500D01*
X181295139Y-75375887D01*
X181205424Y-75314627D01*
X181204529Y-75314069D01*
X181110954Y-75260977D01*
X181110004Y-75260490D01*
X181012567Y-75215566D01*
X181011582Y-75215161D01*
X180910285Y-75178405D01*
X180909285Y-75178088D01*
X180804127Y-75149500D01*
X180803133Y-75149272D01*
X180694114Y-75128852D01*
X180693146Y-75128709D01*
X180580265Y-75116457D01*
X180579339Y-75116391D01*
X180474855Y-75112737D01*
X180474855Y-74887263D01*
X180579339Y-74883608D01*
X180580265Y-74883542D01*
X180693146Y-74871290D01*
X180694114Y-74871147D01*
X180803133Y-74850727D01*
X180804127Y-74850499D01*
X180909285Y-74821911D01*
X180910285Y-74821594D01*
X181011582Y-74784838D01*
X181012567Y-74784433D01*
X181110004Y-74739509D01*
X181110954Y-74739022D01*
X181204529Y-74685930D01*
X181205424Y-74685372D01*
X181295139Y-74624112D01*
X181295963Y-74623499D01*
X181381817Y-74554071D01*
X181382561Y-74553420D01*
X181457680Y-74482329D01*
X182355574Y-75000000D01*
G36*
X179873322Y-76216258D02*
G01*
X179874291Y-76217067D01*
X179921089Y-76252342D01*
X179922105Y-76253034D01*
X179972983Y-76284159D01*
X179974015Y-76284726D01*
X180028973Y-76311701D01*
X180029989Y-76312146D01*
X180089028Y-76334971D01*
X180090005Y-76335303D01*
X180153123Y-76353978D01*
X180154043Y-76354213D01*
X180221241Y-76368738D01*
X180222095Y-76368893D01*
X180293374Y-76379268D01*
X180294157Y-76379357D01*
X180369515Y-76385582D01*
X180370229Y-76385621D01*
X180437300Y-76387373D01*
X180437300Y-76612627D01*
X180370230Y-76614378D01*
X180369515Y-76614417D01*
X180294157Y-76620642D01*
X180293374Y-76620731D01*
X180222095Y-76631106D01*
X180221241Y-76631261D01*
X180154043Y-76645786D01*
X180153123Y-76646021D01*
X180090005Y-76664696D01*
X180089028Y-76665028D01*
X180029989Y-76687853D01*
X180028973Y-76688298D01*
X179974015Y-76715273D01*
X179972983Y-76715840D01*
X179922105Y-76746965D01*
X179921089Y-76747657D01*
X179874291Y-76782932D01*
X179873322Y-76783741D01*
X179837468Y-76816832D01*
X179287926Y-76500000D01*
X179837468Y-76183168D01*
X179873322Y-76216258D01*
G37*
X179873322Y-76216258D02*
X179874291Y-76217067D01*
X179921089Y-76252342D01*
X179922105Y-76253034D01*
X179972983Y-76284159D01*
X179974015Y-76284726D01*
X180028973Y-76311701D01*
X180029989Y-76312146D01*
X180089028Y-76334971D01*
X180090005Y-76335303D01*
X180153123Y-76353978D01*
X180154043Y-76354213D01*
X180221241Y-76368738D01*
X180222095Y-76368893D01*
X180293374Y-76379268D01*
X180294157Y-76379357D01*
X180369515Y-76385582D01*
X180370229Y-76385621D01*
X180437300Y-76387373D01*
X180437300Y-76612627D01*
X180370230Y-76614378D01*
X180369515Y-76614417D01*
X180294157Y-76620642D01*
X180293374Y-76620731D01*
X180222095Y-76631106D01*
X180221241Y-76631261D01*
X180154043Y-76645786D01*
X180153123Y-76646021D01*
X180090005Y-76664696D01*
X180089028Y-76665028D01*
X180029989Y-76687853D01*
X180028973Y-76688298D01*
X179974015Y-76715273D01*
X179972983Y-76715840D01*
X179922105Y-76746965D01*
X179921089Y-76747657D01*
X179874291Y-76782932D01*
X179873322Y-76783741D01*
X179837468Y-76816832D01*
X179287926Y-76500000D01*
X179837468Y-76183168D01*
X179873322Y-76216258D01*
G36*
X181982570Y-75749527D02*
G01*
X181879183Y-75752375D01*
X181878197Y-75752440D01*
X181768396Y-75764054D01*
X181767380Y-75764204D01*
X181660625Y-75784325D01*
X181659598Y-75784563D01*
X181555889Y-75813189D01*
X181554873Y-75813516D01*
X181454209Y-75850648D01*
X181453225Y-75851058D01*
X181355606Y-75896696D01*
X181354675Y-75897179D01*
X181260102Y-75951322D01*
X181259239Y-75951864D01*
X181167712Y-76014513D01*
X181166926Y-76015096D01*
X181078445Y-76086251D01*
X181077743Y-76086859D01*
X181001276Y-76158157D01*
X180841843Y-75998724D01*
X180913140Y-75922257D01*
X180913748Y-75921555D01*
X180984903Y-75833073D01*
X180985486Y-75832287D01*
X181048135Y-75740760D01*
X181048677Y-75739897D01*
X181102820Y-75645324D01*
X181103303Y-75644393D01*
X181148941Y-75546775D01*
X181149351Y-75545791D01*
X181186483Y-75445127D01*
X181186810Y-75444111D01*
X181215436Y-75340401D01*
X181215674Y-75339374D01*
X181235795Y-75232619D01*
X181235945Y-75231603D01*
X181247559Y-75121802D01*
X181247624Y-75120816D01*
X181250473Y-75017430D01*
X182251428Y-74748572D01*
X181982570Y-75749527D01*
G37*
X181982570Y-75749527D02*
X181879183Y-75752375D01*
X181878197Y-75752440D01*
X181768396Y-75764054D01*
X181767380Y-75764204D01*
X181660625Y-75784325D01*
X181659598Y-75784563D01*
X181555889Y-75813189D01*
X181554873Y-75813516D01*
X181454209Y-75850648D01*
X181453225Y-75851058D01*
X181355606Y-75896696D01*
X181354675Y-75897179D01*
X181260102Y-75951322D01*
X181259239Y-75951864D01*
X181167712Y-76014513D01*
X181166926Y-76015096D01*
X181078445Y-76086251D01*
X181077743Y-76086859D01*
X181001276Y-76158157D01*
X180841843Y-75998724D01*
X180913140Y-75922257D01*
X180913748Y-75921555D01*
X180984903Y-75833073D01*
X180985486Y-75832287D01*
X181048135Y-75740760D01*
X181048677Y-75739897D01*
X181102820Y-75645324D01*
X181103303Y-75644393D01*
X181148941Y-75546775D01*
X181149351Y-75545791D01*
X181186483Y-75445127D01*
X181186810Y-75444111D01*
X181215436Y-75340401D01*
X181215674Y-75339374D01*
X181235795Y-75232619D01*
X181235945Y-75231603D01*
X181247559Y-75121802D01*
X181247624Y-75120816D01*
X181250473Y-75017430D01*
X182251428Y-74748572D01*
X181982570Y-75749527D01*
G36*
X167674574Y-78500000D02*
G01*
X167216017Y-78764376D01*
X167190381Y-78741139D01*
X167189259Y-78740233D01*
X167152558Y-78713883D01*
X167151426Y-78713158D01*
X167110516Y-78689908D01*
X167109420Y-78689353D01*
X167064300Y-78669203D01*
X167063270Y-78668796D01*
X167013941Y-78651746D01*
X167012994Y-78651459D01*
X166959455Y-78637509D01*
X166958598Y-78637317D01*
X166900849Y-78626467D01*
X166900080Y-78626347D01*
X166838121Y-78618597D01*
X166837435Y-78618530D01*
X166771267Y-78613880D01*
X166770656Y-78613852D01*
X166712700Y-78612576D01*
X166712700Y-78387423D01*
X166770657Y-78386147D01*
X166771267Y-78386119D01*
X166837435Y-78381469D01*
X166838121Y-78381402D01*
X166900080Y-78373652D01*
X166900849Y-78373532D01*
X166958598Y-78362682D01*
X166959455Y-78362490D01*
X167012994Y-78348540D01*
X167013941Y-78348253D01*
X167063270Y-78331203D01*
X167064300Y-78330796D01*
X167109420Y-78310646D01*
X167110516Y-78310091D01*
X167151426Y-78286841D01*
X167152558Y-78286116D01*
X167189259Y-78259766D01*
X167190381Y-78258860D01*
X167216017Y-78235624D01*
X167674574Y-78500000D01*
G37*
X167674574Y-78500000D02*
X167216017Y-78764376D01*
X167190381Y-78741139D01*
X167189259Y-78740233D01*
X167152558Y-78713883D01*
X167151426Y-78713158D01*
X167110516Y-78689908D01*
X167109420Y-78689353D01*
X167064300Y-78669203D01*
X167063270Y-78668796D01*
X167013941Y-78651746D01*
X167012994Y-78651459D01*
X166959455Y-78637509D01*
X166958598Y-78637317D01*
X166900849Y-78626467D01*
X166900080Y-78626347D01*
X166838121Y-78618597D01*
X166837435Y-78618530D01*
X166771267Y-78613880D01*
X166770656Y-78613852D01*
X166712700Y-78612576D01*
X166712700Y-78387423D01*
X166770657Y-78386147D01*
X166771267Y-78386119D01*
X166837435Y-78381469D01*
X166838121Y-78381402D01*
X166900080Y-78373652D01*
X166900849Y-78373532D01*
X166958598Y-78362682D01*
X166959455Y-78362490D01*
X167012994Y-78348540D01*
X167013941Y-78348253D01*
X167063270Y-78331203D01*
X167064300Y-78330796D01*
X167109420Y-78310646D01*
X167110516Y-78310091D01*
X167151426Y-78286841D01*
X167152558Y-78286116D01*
X167189259Y-78259766D01*
X167190381Y-78258860D01*
X167216017Y-78235624D01*
X167674574Y-78500000D01*
G36*
X164607183Y-78060224D02*
G01*
X164607927Y-78060875D01*
X164692016Y-78128875D01*
X164692840Y-78129488D01*
X164780711Y-78189488D01*
X164781606Y-78190046D01*
X164873260Y-78242046D01*
X164874210Y-78242533D01*
X164969646Y-78286533D01*
X164970631Y-78286938D01*
X165069848Y-78322938D01*
X165070849Y-78323255D01*
X165173850Y-78351255D01*
X165174843Y-78351483D01*
X165281625Y-78371483D01*
X165282593Y-78371626D01*
X165393158Y-78383626D01*
X165394084Y-78383692D01*
X165496175Y-78387263D01*
X165496175Y-78612737D01*
X165394084Y-78616307D01*
X165393158Y-78616373D01*
X165282593Y-78628373D01*
X165281625Y-78628516D01*
X165174843Y-78648516D01*
X165173850Y-78648744D01*
X165070849Y-78676744D01*
X165069848Y-78677061D01*
X164970631Y-78713061D01*
X164969646Y-78713466D01*
X164874210Y-78757466D01*
X164873260Y-78757953D01*
X164781606Y-78809953D01*
X164780711Y-78810511D01*
X164692840Y-78870511D01*
X164692016Y-78871124D01*
X164607927Y-78939124D01*
X164607183Y-78939775D01*
X164533751Y-79009271D01*
X163650426Y-78500000D01*
X164533751Y-77990729D01*
X164607183Y-78060224D01*
G37*
X164607183Y-78060224D02*
X164607927Y-78060875D01*
X164692016Y-78128875D01*
X164692840Y-78129488D01*
X164780711Y-78189488D01*
X164781606Y-78190046D01*
X164873260Y-78242046D01*
X164874210Y-78242533D01*
X164969646Y-78286533D01*
X164970631Y-78286938D01*
X165069848Y-78322938D01*
X165070849Y-78323255D01*
X165173850Y-78351255D01*
X165174843Y-78351483D01*
X165281625Y-78371483D01*
X165282593Y-78371626D01*
X165393158Y-78383626D01*
X165394084Y-78383692D01*
X165496175Y-78387263D01*
X165496175Y-78612737D01*
X165394084Y-78616307D01*
X165393158Y-78616373D01*
X165282593Y-78628373D01*
X165281625Y-78628516D01*
X165174843Y-78648516D01*
X165173850Y-78648744D01*
X165070849Y-78676744D01*
X165069848Y-78677061D01*
X164970631Y-78713061D01*
X164969646Y-78713466D01*
X164874210Y-78757466D01*
X164873260Y-78757953D01*
X164781606Y-78809953D01*
X164780711Y-78810511D01*
X164692840Y-78870511D01*
X164692016Y-78871124D01*
X164607927Y-78939124D01*
X164607183Y-78939775D01*
X164533751Y-79009271D01*
X163650426Y-78500000D01*
X164533751Y-77990729D01*
X164607183Y-78060224D01*
G36*
X164607183Y-78060224D02*
G01*
X164607927Y-78060875D01*
X164692016Y-78128875D01*
X164692840Y-78129488D01*
X164780711Y-78189488D01*
X164781606Y-78190046D01*
X164873260Y-78242046D01*
X164874210Y-78242533D01*
X164969646Y-78286533D01*
X164970631Y-78286938D01*
X165069848Y-78322938D01*
X165070849Y-78323255D01*
X165173850Y-78351255D01*
X165174843Y-78351483D01*
X165281625Y-78371483D01*
X165282593Y-78371626D01*
X165393158Y-78383626D01*
X165394084Y-78383692D01*
X165496175Y-78387263D01*
X165496175Y-78612737D01*
X165394084Y-78616307D01*
X165393158Y-78616373D01*
X165282593Y-78628373D01*
X165281625Y-78628516D01*
X165174843Y-78648516D01*
X165173850Y-78648744D01*
X165070849Y-78676744D01*
X165069848Y-78677061D01*
X164970631Y-78713061D01*
X164969646Y-78713466D01*
X164874210Y-78757466D01*
X164873260Y-78757953D01*
X164781606Y-78809953D01*
X164780711Y-78810511D01*
X164692840Y-78870511D01*
X164692016Y-78871124D01*
X164607927Y-78939124D01*
X164607183Y-78939775D01*
X164533751Y-79009271D01*
X163650426Y-78500000D01*
X164533751Y-77990729D01*
X164607183Y-78060224D01*
G37*
X164607183Y-78060224D02*
X164607927Y-78060875D01*
X164692016Y-78128875D01*
X164692840Y-78129488D01*
X164780711Y-78189488D01*
X164781606Y-78190046D01*
X164873260Y-78242046D01*
X164874210Y-78242533D01*
X164969646Y-78286533D01*
X164970631Y-78286938D01*
X165069848Y-78322938D01*
X165070849Y-78323255D01*
X165173850Y-78351255D01*
X165174843Y-78351483D01*
X165281625Y-78371483D01*
X165282593Y-78371626D01*
X165393158Y-78383626D01*
X165394084Y-78383692D01*
X165496175Y-78387263D01*
X165496175Y-78612737D01*
X165394084Y-78616307D01*
X165393158Y-78616373D01*
X165282593Y-78628373D01*
X165281625Y-78628516D01*
X165174843Y-78648516D01*
X165173850Y-78648744D01*
X165070849Y-78676744D01*
X165069848Y-78677061D01*
X164970631Y-78713061D01*
X164969646Y-78713466D01*
X164874210Y-78757466D01*
X164873260Y-78757953D01*
X164781606Y-78809953D01*
X164780711Y-78810511D01*
X164692840Y-78870511D01*
X164692016Y-78871124D01*
X164607927Y-78939124D01*
X164607183Y-78939775D01*
X164533751Y-79009271D01*
X163650426Y-78500000D01*
X164533751Y-77990729D01*
X164607183Y-78060224D01*
G36*
X167486136Y-77387748D02*
G01*
X167451578Y-77389444D01*
X167450144Y-77389597D01*
X167405560Y-77396916D01*
X167404247Y-77397203D01*
X167358879Y-77409691D01*
X167357711Y-77410074D01*
X167311559Y-77427730D01*
X167310543Y-77428171D01*
X167263605Y-77450996D01*
X167262733Y-77451463D01*
X167215011Y-77479457D01*
X167214269Y-77479927D01*
X167165763Y-77513089D01*
X167165135Y-77513548D01*
X167115843Y-77551879D01*
X167115310Y-77552316D01*
X167065234Y-77595816D01*
X167064783Y-77596228D01*
X167022898Y-77636308D01*
X166863691Y-77477101D01*
X166903771Y-77435216D01*
X166904183Y-77434765D01*
X166947683Y-77384689D01*
X166948120Y-77384156D01*
X166986451Y-77334864D01*
X166986910Y-77334236D01*
X167020072Y-77285730D01*
X167020542Y-77284988D01*
X167048536Y-77237266D01*
X167049003Y-77236394D01*
X167071828Y-77189456D01*
X167072269Y-77188440D01*
X167089925Y-77142288D01*
X167090308Y-77141120D01*
X167102796Y-77095752D01*
X167103083Y-77094439D01*
X167110402Y-77049855D01*
X167110555Y-77048421D01*
X167112252Y-77013864D01*
X167623442Y-76876558D01*
X167486136Y-77387748D01*
G37*
X167486136Y-77387748D02*
X167451578Y-77389444D01*
X167450144Y-77389597D01*
X167405560Y-77396916D01*
X167404247Y-77397203D01*
X167358879Y-77409691D01*
X167357711Y-77410074D01*
X167311559Y-77427730D01*
X167310543Y-77428171D01*
X167263605Y-77450996D01*
X167262733Y-77451463D01*
X167215011Y-77479457D01*
X167214269Y-77479927D01*
X167165763Y-77513089D01*
X167165135Y-77513548D01*
X167115843Y-77551879D01*
X167115310Y-77552316D01*
X167065234Y-77595816D01*
X167064783Y-77596228D01*
X167022898Y-77636308D01*
X166863691Y-77477101D01*
X166903771Y-77435216D01*
X166904183Y-77434765D01*
X166947683Y-77384689D01*
X166948120Y-77384156D01*
X166986451Y-77334864D01*
X166986910Y-77334236D01*
X167020072Y-77285730D01*
X167020542Y-77284988D01*
X167048536Y-77237266D01*
X167049003Y-77236394D01*
X167071828Y-77189456D01*
X167072269Y-77188440D01*
X167089925Y-77142288D01*
X167090308Y-77141120D01*
X167102796Y-77095752D01*
X167103083Y-77094439D01*
X167110402Y-77049855D01*
X167110555Y-77048421D01*
X167112252Y-77013864D01*
X167623442Y-76876558D01*
X167486136Y-77387748D01*
G36*
X167064783Y-79403771D02*
G01*
X167065234Y-79404183D01*
X167115310Y-79447683D01*
X167115843Y-79448120D01*
X167165135Y-79486451D01*
X167165763Y-79486910D01*
X167214269Y-79520072D01*
X167215011Y-79520542D01*
X167262733Y-79548536D01*
X167263605Y-79549003D01*
X167310543Y-79571828D01*
X167311559Y-79572269D01*
X167357711Y-79589925D01*
X167358879Y-79590308D01*
X167404247Y-79602796D01*
X167405560Y-79603083D01*
X167450144Y-79610402D01*
X167451578Y-79610555D01*
X167486136Y-79612252D01*
X167623442Y-80123442D01*
X167112252Y-79986136D01*
X167110555Y-79951578D01*
X167110402Y-79950144D01*
X167103083Y-79905560D01*
X167102796Y-79904247D01*
X167090308Y-79858879D01*
X167089925Y-79857711D01*
X167072269Y-79811559D01*
X167071828Y-79810543D01*
X167049003Y-79763605D01*
X167048536Y-79762733D01*
X167020542Y-79715011D01*
X167020072Y-79714269D01*
X166986910Y-79665763D01*
X166986451Y-79665135D01*
X166948120Y-79615843D01*
X166947683Y-79615310D01*
X166904183Y-79565234D01*
X166903771Y-79564783D01*
X166863692Y-79522898D01*
X167022898Y-79363692D01*
X167064783Y-79403771D01*
G37*
X167064783Y-79403771D02*
X167065234Y-79404183D01*
X167115310Y-79447683D01*
X167115843Y-79448120D01*
X167165135Y-79486451D01*
X167165763Y-79486910D01*
X167214269Y-79520072D01*
X167215011Y-79520542D01*
X167262733Y-79548536D01*
X167263605Y-79549003D01*
X167310543Y-79571828D01*
X167311559Y-79572269D01*
X167357711Y-79589925D01*
X167358879Y-79590308D01*
X167404247Y-79602796D01*
X167405560Y-79603083D01*
X167450144Y-79610402D01*
X167451578Y-79610555D01*
X167486136Y-79612252D01*
X167623442Y-80123442D01*
X167112252Y-79986136D01*
X167110555Y-79951578D01*
X167110402Y-79950144D01*
X167103083Y-79905560D01*
X167102796Y-79904247D01*
X167090308Y-79858879D01*
X167089925Y-79857711D01*
X167072269Y-79811559D01*
X167071828Y-79810543D01*
X167049003Y-79763605D01*
X167048536Y-79762733D01*
X167020542Y-79715011D01*
X167020072Y-79714269D01*
X166986910Y-79665763D01*
X166986451Y-79665135D01*
X166948120Y-79615843D01*
X166947683Y-79615310D01*
X166904183Y-79565234D01*
X166903771Y-79564783D01*
X166863692Y-79522898D01*
X167022898Y-79363692D01*
X167064783Y-79403771D01*
G36*
X182116391Y-73579339D02*
G01*
X182116457Y-73580265D01*
X182128709Y-73693146D01*
X182128852Y-73694114D01*
X182149272Y-73803133D01*
X182149500Y-73804127D01*
X182178088Y-73909285D01*
X182178405Y-73910285D01*
X182215161Y-74011582D01*
X182215566Y-74012567D01*
X182260490Y-74110004D01*
X182260977Y-74110954D01*
X182314069Y-74204529D01*
X182314627Y-74205424D01*
X182375887Y-74295139D01*
X182376500Y-74295963D01*
X182445928Y-74381817D01*
X182446579Y-74382561D01*
X182517671Y-74457680D01*
X182000000Y-75355574D01*
X181482329Y-74457680D01*
X181553420Y-74382561D01*
X181554071Y-74381817D01*
X181623499Y-74295963D01*
X181624112Y-74295139D01*
X181685372Y-74205424D01*
X181685930Y-74204529D01*
X181739022Y-74110954D01*
X181739509Y-74110004D01*
X181784433Y-74012567D01*
X181784838Y-74011582D01*
X181821594Y-73910285D01*
X181821911Y-73909285D01*
X181850499Y-73804127D01*
X181850727Y-73803133D01*
X181871147Y-73694114D01*
X181871290Y-73693146D01*
X181883542Y-73580265D01*
X181883608Y-73579339D01*
X181887263Y-73474855D01*
X182112737Y-73474855D01*
X182116391Y-73579339D01*
G37*
X182116391Y-73579339D02*
X182116457Y-73580265D01*
X182128709Y-73693146D01*
X182128852Y-73694114D01*
X182149272Y-73803133D01*
X182149500Y-73804127D01*
X182178088Y-73909285D01*
X182178405Y-73910285D01*
X182215161Y-74011582D01*
X182215566Y-74012567D01*
X182260490Y-74110004D01*
X182260977Y-74110954D01*
X182314069Y-74204529D01*
X182314627Y-74205424D01*
X182375887Y-74295139D01*
X182376500Y-74295963D01*
X182445928Y-74381817D01*
X182446579Y-74382561D01*
X182517671Y-74457680D01*
X182000000Y-75355574D01*
X181482329Y-74457680D01*
X181553420Y-74382561D01*
X181554071Y-74381817D01*
X181623499Y-74295963D01*
X181624112Y-74295139D01*
X181685372Y-74205424D01*
X181685930Y-74204529D01*
X181739022Y-74110954D01*
X181739509Y-74110004D01*
X181784433Y-74012567D01*
X181784838Y-74011582D01*
X181821594Y-73910285D01*
X181821911Y-73909285D01*
X181850499Y-73804127D01*
X181850727Y-73803133D01*
X181871147Y-73694114D01*
X181871290Y-73693146D01*
X181883542Y-73580265D01*
X181883608Y-73579339D01*
X181887263Y-73474855D01*
X182112737Y-73474855D01*
X182116391Y-73579339D01*
G36*
X182191023Y-72694254D02*
G01*
X182181349Y-72705607D01*
X182180192Y-72707199D01*
X182166337Y-72729763D01*
X182165594Y-72731162D01*
X182153369Y-72758117D01*
X182152904Y-72759296D01*
X182142309Y-72790642D01*
X182142022Y-72791619D01*
X182133057Y-72827357D01*
X182132882Y-72828163D01*
X182125547Y-72868291D01*
X182125443Y-72868961D01*
X182119738Y-72913480D01*
X182119679Y-72914040D01*
X182115604Y-72962951D01*
X182115573Y-72963423D01*
X182113128Y-73016725D01*
X182113116Y-73017128D01*
X182112478Y-73062300D01*
X181887522Y-73062300D01*
X181886884Y-73017128D01*
X181886872Y-73016725D01*
X181884427Y-72963423D01*
X181884396Y-72962951D01*
X181880321Y-72914040D01*
X181880262Y-72913480D01*
X181874557Y-72868961D01*
X181874453Y-72868291D01*
X181867118Y-72828163D01*
X181866943Y-72827357D01*
X181857978Y-72791619D01*
X181857691Y-72790642D01*
X181847096Y-72759296D01*
X181846631Y-72758117D01*
X181834406Y-72731162D01*
X181833663Y-72729763D01*
X181819808Y-72707199D01*
X181818651Y-72705607D01*
X181808977Y-72694254D01*
X182000000Y-72362926D01*
X182191023Y-72694254D01*
G37*
X182191023Y-72694254D02*
X182181349Y-72705607D01*
X182180192Y-72707199D01*
X182166337Y-72729763D01*
X182165594Y-72731162D01*
X182153369Y-72758117D01*
X182152904Y-72759296D01*
X182142309Y-72790642D01*
X182142022Y-72791619D01*
X182133057Y-72827357D01*
X182132882Y-72828163D01*
X182125547Y-72868291D01*
X182125443Y-72868961D01*
X182119738Y-72913480D01*
X182119679Y-72914040D01*
X182115604Y-72962951D01*
X182115573Y-72963423D01*
X182113128Y-73016725D01*
X182113116Y-73017128D01*
X182112478Y-73062300D01*
X181887522Y-73062300D01*
X181886884Y-73017128D01*
X181886872Y-73016725D01*
X181884427Y-72963423D01*
X181884396Y-72962951D01*
X181880321Y-72914040D01*
X181880262Y-72913480D01*
X181874557Y-72868961D01*
X181874453Y-72868291D01*
X181867118Y-72828163D01*
X181866943Y-72827357D01*
X181857978Y-72791619D01*
X181857691Y-72790642D01*
X181847096Y-72759296D01*
X181846631Y-72758117D01*
X181834406Y-72731162D01*
X181833663Y-72729763D01*
X181819808Y-72707199D01*
X181818651Y-72705607D01*
X181808977Y-72694254D01*
X182000000Y-72362926D01*
X182191023Y-72694254D01*
G36*
X184705888Y-73599302D02*
G01*
X184705936Y-73600090D01*
X184716688Y-73717477D01*
X184716795Y-73718328D01*
X184734715Y-73830171D01*
X184734895Y-73831079D01*
X184759983Y-73937378D01*
X184760248Y-73938333D01*
X184792504Y-74039088D01*
X184792865Y-74040075D01*
X184832289Y-74135285D01*
X184832754Y-74136282D01*
X184879346Y-74225948D01*
X184879914Y-74226931D01*
X184933674Y-74311053D01*
X184934339Y-74311996D01*
X184995267Y-74390573D01*
X184996014Y-74391452D01*
X185057707Y-74457617D01*
X184540000Y-75355574D01*
X184022293Y-74457617D01*
X184083985Y-74391452D01*
X184084732Y-74390573D01*
X184145660Y-74311996D01*
X184146325Y-74311053D01*
X184200085Y-74226931D01*
X184200653Y-74225948D01*
X184247245Y-74136282D01*
X184247710Y-74135285D01*
X184287134Y-74040075D01*
X184287495Y-74039088D01*
X184319751Y-73938333D01*
X184320016Y-73937378D01*
X184345104Y-73831079D01*
X184345284Y-73830171D01*
X184363204Y-73718328D01*
X184363311Y-73717477D01*
X184374063Y-73600090D01*
X184374111Y-73599302D01*
X184377336Y-73488700D01*
X184702664Y-73488700D01*
X184705888Y-73599302D01*
G37*
X184705888Y-73599302D02*
X184705936Y-73600090D01*
X184716688Y-73717477D01*
X184716795Y-73718328D01*
X184734715Y-73830171D01*
X184734895Y-73831079D01*
X184759983Y-73937378D01*
X184760248Y-73938333D01*
X184792504Y-74039088D01*
X184792865Y-74040075D01*
X184832289Y-74135285D01*
X184832754Y-74136282D01*
X184879346Y-74225948D01*
X184879914Y-74226931D01*
X184933674Y-74311053D01*
X184934339Y-74311996D01*
X184995267Y-74390573D01*
X184996014Y-74391452D01*
X185057707Y-74457617D01*
X184540000Y-75355574D01*
X184022293Y-74457617D01*
X184083985Y-74391452D01*
X184084732Y-74390573D01*
X184145660Y-74311996D01*
X184146325Y-74311053D01*
X184200085Y-74226931D01*
X184200653Y-74225948D01*
X184247245Y-74136282D01*
X184247710Y-74135285D01*
X184287134Y-74040075D01*
X184287495Y-74039088D01*
X184319751Y-73938333D01*
X184320016Y-73937378D01*
X184345104Y-73831079D01*
X184345284Y-73830171D01*
X184363204Y-73718328D01*
X184363311Y-73717477D01*
X184374063Y-73600090D01*
X184374111Y-73599302D01*
X184377336Y-73488700D01*
X184702664Y-73488700D01*
X184705888Y-73599302D01*
G36*
X180509310Y-53033819D02*
G01*
X180449206Y-53098347D01*
X180448452Y-53099235D01*
X180388952Y-53176196D01*
X180388284Y-53177147D01*
X180335784Y-53259673D01*
X180335215Y-53260662D01*
X180289715Y-53348754D01*
X180289253Y-53349753D01*
X180250753Y-53443410D01*
X180250394Y-53444396D01*
X180218894Y-53543618D01*
X180218633Y-53544570D01*
X180194133Y-53649357D01*
X180193956Y-53650259D01*
X180176456Y-53760611D01*
X180176351Y-53761454D01*
X180165851Y-53877371D01*
X180165804Y-53878151D01*
X180162660Y-53987300D01*
X179837340Y-53987300D01*
X179834195Y-53878151D01*
X179834148Y-53877371D01*
X179823648Y-53761454D01*
X179823543Y-53760611D01*
X179806043Y-53650259D01*
X179805866Y-53649357D01*
X179781366Y-53544570D01*
X179781105Y-53543618D01*
X179749605Y-53444396D01*
X179749246Y-53443410D01*
X179710746Y-53349753D01*
X179710284Y-53348754D01*
X179664784Y-53260662D01*
X179664215Y-53259673D01*
X179611715Y-53177147D01*
X179611047Y-53176196D01*
X179551547Y-53099235D01*
X179550793Y-53098347D01*
X179490690Y-53033819D01*
X180000000Y-52150426D01*
X180509310Y-53033819D01*
G37*
X180509310Y-53033819D02*
X180449206Y-53098347D01*
X180448452Y-53099235D01*
X180388952Y-53176196D01*
X180388284Y-53177147D01*
X180335784Y-53259673D01*
X180335215Y-53260662D01*
X180289715Y-53348754D01*
X180289253Y-53349753D01*
X180250753Y-53443410D01*
X180250394Y-53444396D01*
X180218894Y-53543618D01*
X180218633Y-53544570D01*
X180194133Y-53649357D01*
X180193956Y-53650259D01*
X180176456Y-53760611D01*
X180176351Y-53761454D01*
X180165851Y-53877371D01*
X180165804Y-53878151D01*
X180162660Y-53987300D01*
X179837340Y-53987300D01*
X179834195Y-53878151D01*
X179834148Y-53877371D01*
X179823648Y-53761454D01*
X179823543Y-53760611D01*
X179806043Y-53650259D01*
X179805866Y-53649357D01*
X179781366Y-53544570D01*
X179781105Y-53543618D01*
X179749605Y-53444396D01*
X179749246Y-53443410D01*
X179710746Y-53349753D01*
X179710284Y-53348754D01*
X179664784Y-53260662D01*
X179664215Y-53259673D01*
X179611715Y-53177147D01*
X179611047Y-53176196D01*
X179551547Y-53099235D01*
X179550793Y-53098347D01*
X179490690Y-53033819D01*
X180000000Y-52150426D01*
X180509310Y-53033819D01*
G36*
X185148547Y-84543985D02*
G01*
X185149426Y-84544732D01*
X185228003Y-84605660D01*
X185228946Y-84606325D01*
X185313068Y-84660085D01*
X185314051Y-84660653D01*
X185403717Y-84707245D01*
X185404714Y-84707710D01*
X185499924Y-84747134D01*
X185500911Y-84747495D01*
X185601666Y-84779751D01*
X185602621Y-84780016D01*
X185708920Y-84805104D01*
X185709828Y-84805284D01*
X185821671Y-84823204D01*
X185822522Y-84823311D01*
X185939909Y-84834063D01*
X185940697Y-84834111D01*
X186051300Y-84837336D01*
X186051300Y-85162664D01*
X185940697Y-85165888D01*
X185939909Y-85165936D01*
X185822522Y-85176688D01*
X185821671Y-85176795D01*
X185709828Y-85194715D01*
X185708920Y-85194895D01*
X185602621Y-85219983D01*
X185601666Y-85220248D01*
X185500911Y-85252504D01*
X185499924Y-85252865D01*
X185404714Y-85292289D01*
X185403717Y-85292754D01*
X185314051Y-85339346D01*
X185313068Y-85339914D01*
X185228946Y-85393674D01*
X185228003Y-85394339D01*
X185149426Y-85455267D01*
X185148547Y-85456014D01*
X185082383Y-85517707D01*
X184184426Y-85000000D01*
X185082383Y-84482293D01*
X185148547Y-84543985D01*
G37*
X185148547Y-84543985D02*
X185149426Y-84544732D01*
X185228003Y-84605660D01*
X185228946Y-84606325D01*
X185313068Y-84660085D01*
X185314051Y-84660653D01*
X185403717Y-84707245D01*
X185404714Y-84707710D01*
X185499924Y-84747134D01*
X185500911Y-84747495D01*
X185601666Y-84779751D01*
X185602621Y-84780016D01*
X185708920Y-84805104D01*
X185709828Y-84805284D01*
X185821671Y-84823204D01*
X185822522Y-84823311D01*
X185939909Y-84834063D01*
X185940697Y-84834111D01*
X186051300Y-84837336D01*
X186051300Y-85162664D01*
X185940697Y-85165888D01*
X185939909Y-85165936D01*
X185822522Y-85176688D01*
X185821671Y-85176795D01*
X185709828Y-85194715D01*
X185708920Y-85194895D01*
X185602621Y-85219983D01*
X185601666Y-85220248D01*
X185500911Y-85252504D01*
X185499924Y-85252865D01*
X185404714Y-85292289D01*
X185403717Y-85292754D01*
X185314051Y-85339346D01*
X185313068Y-85339914D01*
X185228946Y-85393674D01*
X185228003Y-85394339D01*
X185149426Y-85455267D01*
X185148547Y-85456014D01*
X185082383Y-85517707D01*
X184184426Y-85000000D01*
X185082383Y-84482293D01*
X185148547Y-84543985D01*
G36*
X197349574Y-85000000D02*
G01*
X196466181Y-85509310D01*
X196401652Y-85449206D01*
X196400764Y-85448452D01*
X196323803Y-85388952D01*
X196322852Y-85388284D01*
X196240326Y-85335784D01*
X196239337Y-85335215D01*
X196151245Y-85289715D01*
X196150246Y-85289253D01*
X196056589Y-85250753D01*
X196055603Y-85250394D01*
X195956381Y-85218894D01*
X195955429Y-85218633D01*
X195850642Y-85194133D01*
X195849740Y-85193956D01*
X195739388Y-85176456D01*
X195738545Y-85176351D01*
X195622628Y-85165851D01*
X195621848Y-85165804D01*
X195512700Y-85162660D01*
X195512700Y-84837340D01*
X195621848Y-84834195D01*
X195622628Y-84834148D01*
X195738545Y-84823648D01*
X195739388Y-84823543D01*
X195849740Y-84806043D01*
X195850642Y-84805866D01*
X195955429Y-84781366D01*
X195956381Y-84781105D01*
X196055603Y-84749605D01*
X196056589Y-84749246D01*
X196150246Y-84710746D01*
X196151245Y-84710284D01*
X196239337Y-84664784D01*
X196240326Y-84664215D01*
X196322852Y-84611715D01*
X196323803Y-84611047D01*
X196400764Y-84551547D01*
X196401652Y-84550793D01*
X196466181Y-84490690D01*
X197349574Y-85000000D01*
G37*
X197349574Y-85000000D02*
X196466181Y-85509310D01*
X196401652Y-85449206D01*
X196400764Y-85448452D01*
X196323803Y-85388952D01*
X196322852Y-85388284D01*
X196240326Y-85335784D01*
X196239337Y-85335215D01*
X196151245Y-85289715D01*
X196150246Y-85289253D01*
X196056589Y-85250753D01*
X196055603Y-85250394D01*
X195956381Y-85218894D01*
X195955429Y-85218633D01*
X195850642Y-85194133D01*
X195849740Y-85193956D01*
X195739388Y-85176456D01*
X195738545Y-85176351D01*
X195622628Y-85165851D01*
X195621848Y-85165804D01*
X195512700Y-85162660D01*
X195512700Y-84837340D01*
X195621848Y-84834195D01*
X195622628Y-84834148D01*
X195738545Y-84823648D01*
X195739388Y-84823543D01*
X195849740Y-84806043D01*
X195850642Y-84805866D01*
X195955429Y-84781366D01*
X195956381Y-84781105D01*
X196055603Y-84749605D01*
X196056589Y-84749246D01*
X196150246Y-84710746D01*
X196151245Y-84710284D01*
X196239337Y-84664784D01*
X196240326Y-84664215D01*
X196322852Y-84611715D01*
X196323803Y-84611047D01*
X196400764Y-84551547D01*
X196401652Y-84550793D01*
X196466181Y-84490690D01*
X197349574Y-85000000D01*
G36*
X190789315Y-75105242D02*
G01*
X190716296Y-75183807D01*
X190715518Y-75184729D01*
X190645318Y-75276354D01*
X190644623Y-75277358D01*
X190583623Y-75375175D01*
X190583031Y-75376233D01*
X190531231Y-75480243D01*
X190530753Y-75481326D01*
X190488153Y-75591527D01*
X190487792Y-75592603D01*
X190454392Y-75708997D01*
X190454139Y-75710040D01*
X190429939Y-75832627D01*
X190429784Y-75833618D01*
X190414784Y-75962396D01*
X190414711Y-75963320D01*
X190408911Y-76098291D01*
X190408903Y-76099142D01*
X190411991Y-76227300D01*
X190086683Y-76227300D01*
X190075856Y-76097778D01*
X190075771Y-76097029D01*
X190056371Y-75962058D01*
X190056230Y-75961259D01*
X190029230Y-75832481D01*
X190029022Y-75831637D01*
X189994422Y-75709050D01*
X189994139Y-75708171D01*
X189951939Y-75591777D01*
X189951573Y-75590876D01*
X189901773Y-75480675D01*
X189901319Y-75479769D01*
X189843919Y-75375759D01*
X189843378Y-75374866D01*
X189778378Y-75277049D01*
X189777754Y-75276191D01*
X189705154Y-75184566D01*
X189704459Y-75183761D01*
X189630709Y-75105200D01*
X190210000Y-74100426D01*
X190789315Y-75105242D01*
G37*
X190789315Y-75105242D02*
X190716296Y-75183807D01*
X190715518Y-75184729D01*
X190645318Y-75276354D01*
X190644623Y-75277358D01*
X190583623Y-75375175D01*
X190583031Y-75376233D01*
X190531231Y-75480243D01*
X190530753Y-75481326D01*
X190488153Y-75591527D01*
X190487792Y-75592603D01*
X190454392Y-75708997D01*
X190454139Y-75710040D01*
X190429939Y-75832627D01*
X190429784Y-75833618D01*
X190414784Y-75962396D01*
X190414711Y-75963320D01*
X190408911Y-76098291D01*
X190408903Y-76099142D01*
X190411991Y-76227300D01*
X190086683Y-76227300D01*
X190075856Y-76097778D01*
X190075771Y-76097029D01*
X190056371Y-75962058D01*
X190056230Y-75961259D01*
X190029230Y-75832481D01*
X190029022Y-75831637D01*
X189994422Y-75709050D01*
X189994139Y-75708171D01*
X189951939Y-75591777D01*
X189951573Y-75590876D01*
X189901773Y-75480675D01*
X189901319Y-75479769D01*
X189843919Y-75375759D01*
X189843378Y-75374866D01*
X189778378Y-75277049D01*
X189777754Y-75276191D01*
X189705154Y-75184566D01*
X189704459Y-75183761D01*
X189630709Y-75105200D01*
X190210000Y-74100426D01*
X190789315Y-75105242D01*
G36*
X190415104Y-83809726D02*
G01*
X190415141Y-83810427D01*
X190423541Y-83914091D01*
X190423628Y-83914862D01*
X190437628Y-84012787D01*
X190437778Y-84013631D01*
X190457378Y-84105819D01*
X190457607Y-84106732D01*
X190482807Y-84193182D01*
X190483135Y-84194156D01*
X190513935Y-84274868D01*
X190514375Y-84275887D01*
X190550775Y-84350861D01*
X190551342Y-84351901D01*
X190593342Y-84421137D01*
X190594038Y-84422168D01*
X190641638Y-84485666D01*
X190642459Y-84486652D01*
X190689337Y-84537549D01*
X190250000Y-85299574D01*
X189810663Y-84537549D01*
X189857541Y-84486652D01*
X189858362Y-84485666D01*
X189905962Y-84422168D01*
X189906658Y-84421137D01*
X189948658Y-84351901D01*
X189949225Y-84350861D01*
X189985625Y-84275887D01*
X189986065Y-84274868D01*
X190016865Y-84194156D01*
X190017193Y-84193182D01*
X190042393Y-84106732D01*
X190042622Y-84105819D01*
X190062222Y-84013631D01*
X190062372Y-84012787D01*
X190076372Y-83914862D01*
X190076459Y-83914091D01*
X190084859Y-83810427D01*
X190084896Y-83809726D01*
X190087379Y-83712700D01*
X190412621Y-83712700D01*
X190415104Y-83809726D01*
G37*
X190415104Y-83809726D02*
X190415141Y-83810427D01*
X190423541Y-83914091D01*
X190423628Y-83914862D01*
X190437628Y-84012787D01*
X190437778Y-84013631D01*
X190457378Y-84105819D01*
X190457607Y-84106732D01*
X190482807Y-84193182D01*
X190483135Y-84194156D01*
X190513935Y-84274868D01*
X190514375Y-84275887D01*
X190550775Y-84350861D01*
X190551342Y-84351901D01*
X190593342Y-84421137D01*
X190594038Y-84422168D01*
X190641638Y-84485666D01*
X190642459Y-84486652D01*
X190689337Y-84537549D01*
X190250000Y-85299574D01*
X189810663Y-84537549D01*
X189857541Y-84486652D01*
X189858362Y-84485666D01*
X189905962Y-84422168D01*
X189906658Y-84421137D01*
X189948658Y-84351901D01*
X189949225Y-84350861D01*
X189985625Y-84275887D01*
X189986065Y-84274868D01*
X190016865Y-84194156D01*
X190017193Y-84193182D01*
X190042393Y-84106732D01*
X190042622Y-84105819D01*
X190062222Y-84013631D01*
X190062372Y-84012787D01*
X190076372Y-83914862D01*
X190076459Y-83914091D01*
X190084859Y-83810427D01*
X190084896Y-83809726D01*
X190087379Y-83712700D01*
X190412621Y-83712700D01*
X190415104Y-83809726D01*
G36*
X190414577Y-86675629D02*
G01*
X190414607Y-86676256D01*
X190421432Y-86770729D01*
X190421502Y-86771431D01*
X190432877Y-86860037D01*
X190433003Y-86860820D01*
X190448928Y-86943558D01*
X190449127Y-86944427D01*
X190469602Y-87021298D01*
X190469896Y-87022251D01*
X190494921Y-87093254D01*
X190495335Y-87094283D01*
X190524910Y-87159418D01*
X190525468Y-87160504D01*
X190559593Y-87219772D01*
X190560313Y-87220884D01*
X190598988Y-87274284D01*
X190599878Y-87275379D01*
X190636868Y-87316055D01*
X190250000Y-87987074D01*
X189863132Y-87316055D01*
X189900121Y-87275379D01*
X189901011Y-87274284D01*
X189939686Y-87220884D01*
X189940406Y-87219772D01*
X189974531Y-87160504D01*
X189975089Y-87159418D01*
X190004664Y-87094283D01*
X190005078Y-87093254D01*
X190030103Y-87022251D01*
X190030397Y-87021298D01*
X190050872Y-86944427D01*
X190051071Y-86943558D01*
X190066996Y-86860820D01*
X190067122Y-86860037D01*
X190078497Y-86771431D01*
X190078567Y-86770729D01*
X190085392Y-86676256D01*
X190085422Y-86675629D01*
X190087416Y-86587700D01*
X190412584Y-86587700D01*
X190414577Y-86675629D01*
G37*
X190414577Y-86675629D02*
X190414607Y-86676256D01*
X190421432Y-86770729D01*
X190421502Y-86771431D01*
X190432877Y-86860037D01*
X190433003Y-86860820D01*
X190448928Y-86943558D01*
X190449127Y-86944427D01*
X190469602Y-87021298D01*
X190469896Y-87022251D01*
X190494921Y-87093254D01*
X190495335Y-87094283D01*
X190524910Y-87159418D01*
X190525468Y-87160504D01*
X190559593Y-87219772D01*
X190560313Y-87220884D01*
X190598988Y-87274284D01*
X190599878Y-87275379D01*
X190636868Y-87316055D01*
X190250000Y-87987074D01*
X189863132Y-87316055D01*
X189900121Y-87275379D01*
X189901011Y-87274284D01*
X189939686Y-87220884D01*
X189940406Y-87219772D01*
X189974531Y-87160504D01*
X189975089Y-87159418D01*
X190004664Y-87094283D01*
X190005078Y-87093254D01*
X190030103Y-87022251D01*
X190030397Y-87021298D01*
X190050872Y-86944427D01*
X190051071Y-86943558D01*
X190066996Y-86860820D01*
X190067122Y-86860037D01*
X190078497Y-86771431D01*
X190078567Y-86770729D01*
X190085392Y-86676256D01*
X190085422Y-86675629D01*
X190087416Y-86587700D01*
X190412584Y-86587700D01*
X190414577Y-86675629D01*
G36*
X190689337Y-85462451D02*
G01*
X190642459Y-85513347D01*
X190641638Y-85514333D01*
X190594038Y-85577831D01*
X190593342Y-85578862D01*
X190551342Y-85648098D01*
X190550775Y-85649138D01*
X190514375Y-85724112D01*
X190513935Y-85725131D01*
X190483135Y-85805843D01*
X190482807Y-85806817D01*
X190457607Y-85893267D01*
X190457378Y-85894180D01*
X190437778Y-85986368D01*
X190437628Y-85987212D01*
X190423628Y-86085137D01*
X190423541Y-86085908D01*
X190415141Y-86189572D01*
X190415104Y-86190273D01*
X190412621Y-86287300D01*
X190087379Y-86287300D01*
X190084896Y-86190273D01*
X190084859Y-86189572D01*
X190076459Y-86085908D01*
X190076372Y-86085137D01*
X190062372Y-85987212D01*
X190062222Y-85986368D01*
X190042622Y-85894180D01*
X190042393Y-85893267D01*
X190017193Y-85806817D01*
X190016865Y-85805843D01*
X189986065Y-85725131D01*
X189985625Y-85724112D01*
X189949225Y-85649138D01*
X189948658Y-85648098D01*
X189906658Y-85578862D01*
X189905962Y-85577831D01*
X189858362Y-85514333D01*
X189857541Y-85513347D01*
X189810663Y-85462451D01*
X190250000Y-84700426D01*
X190689337Y-85462451D01*
G37*
X190689337Y-85462451D02*
X190642459Y-85513347D01*
X190641638Y-85514333D01*
X190594038Y-85577831D01*
X190593342Y-85578862D01*
X190551342Y-85648098D01*
X190550775Y-85649138D01*
X190514375Y-85724112D01*
X190513935Y-85725131D01*
X190483135Y-85805843D01*
X190482807Y-85806817D01*
X190457607Y-85893267D01*
X190457378Y-85894180D01*
X190437778Y-85986368D01*
X190437628Y-85987212D01*
X190423628Y-86085137D01*
X190423541Y-86085908D01*
X190415141Y-86189572D01*
X190415104Y-86190273D01*
X190412621Y-86287300D01*
X190087379Y-86287300D01*
X190084896Y-86190273D01*
X190084859Y-86189572D01*
X190076459Y-86085908D01*
X190076372Y-86085137D01*
X190062372Y-85987212D01*
X190062222Y-85986368D01*
X190042622Y-85894180D01*
X190042393Y-85893267D01*
X190017193Y-85806817D01*
X190016865Y-85805843D01*
X189986065Y-85725131D01*
X189985625Y-85724112D01*
X189949225Y-85649138D01*
X189948658Y-85648098D01*
X189906658Y-85578862D01*
X189905962Y-85577831D01*
X189858362Y-85514333D01*
X189857541Y-85513347D01*
X189810663Y-85462451D01*
X190250000Y-84700426D01*
X190689337Y-85462451D01*
M02*
